<svg width="64" height="64" viewBox="0 0 64 64" fill="none" xmlns="http://www.w3.org/2000/svg">
<path fill-rule="evenodd" clip-rule="evenodd" d="M49.9528 62.109H54.0542C54.5766 62.109 55 62.5324 55 63.0545C55 63.5766 54.5765 64 54.0542 64H49.007H43.5561H19.8879H14.6488H9.9458C9.42351 64 9 63.5766 9 63.0545C9 62.5324 9.42351 62.109 9.9458 62.109H13.703V43.9975C13.703 40.1647 16.3104 36.8779 20.0436 36.0047L24.0526 35.067C25.4324 34.7442 26.396 33.5296 26.396 32.1131V30.909C23.882 29.4816 22.0026 27.0636 21.2935 24.1884H19.8716C18.3734 24.1884 17.1545 22.9699 17.1545 21.4721V18.1326C14.284 16.3852 12.5249 13.2828 12.5249 9.89297C12.5249 4.57372 16.8538 0.246217 22.1747 0.246217C23.6792 0.246217 25.1701 0.599592 26.506 1.27059C29.4347 -0.111408 32.0192 -0.0021582 32.1607 0.0045918C35.0684 0.154717 37.7878 1.43484 40.2431 3.80922C42.3763 5.87197 43.9545 8.75672 44.9337 12.3833C45.0699 12.8875 44.7714 13.4065 44.2671 13.5426C44.1978 13.5613 44.1286 13.5701 44.0598 13.573C45.2464 13.864 46.1307 14.9336 46.1307 16.2084V21.4721C46.1307 22.6912 45.323 23.7251 44.2145 24.0676C44.1685 26.3554 42.3051 28.2044 40.0111 28.2274C39.2445 29.1982 38.3141 30.0332 37.26 30.6894V32.1131C37.26 33.5296 38.2235 34.7442 39.6032 35.067L43.6124 36.0047C47.3455 36.878 49.9528 40.1647 49.9528 43.9975V55.4905C49.9528 56.0126 49.5293 56.436 49.007 56.436C48.4847 56.436 48.0612 56.0126 48.0612 55.4905V43.9975C48.0612 41.0476 46.0546 38.5181 43.1814 37.846L42.5898 37.7076C41.609 39.3809 40.2725 40.7801 38.6909 41.8211H43.1655C44.8443 41.8211 46.2101 43.1865 46.2101 44.8647V61.3469C46.2101 61.6119 46.17 61.8674 46.0973 62.109H48.0612V59.9449C48.0612 59.4227 48.4847 58.9994 49.007 58.9994C49.5293 58.9994 49.9528 59.4227 49.9528 59.9449V62.109ZM41.9918 24.1882C41.8538 24.7474 41.6732 25.2897 41.4506 25.8105C41.9329 25.4191 42.2572 24.8416 42.3145 24.1882H41.9918ZM44.239 16.2082V21.472C44.239 21.927 43.8686 22.2972 43.4135 22.2972H42.3024V21.6381V15.383H43.4135C43.8686 15.383 44.239 15.7532 44.239 16.2082ZM14.4164 9.89297C14.4164 12.2188 15.447 14.3763 17.1834 15.8324C17.3198 14.8536 17.978 14.0412 18.8688 13.686C18.8279 12.6762 18.9091 11.6672 19.1148 10.6762C19.4109 9.2496 19.9528 7.8971 20.726 6.65272L20.7345 6.63885C20.7357 6.63709 20.7365 6.63535 20.7385 6.63247C20.9285 6.31272 21.1284 5.99997 21.3336 5.70322C21.6306 5.27372 22.2198 5.16609 22.6494 5.46297C23.079 5.75984 23.1867 6.34872 22.8897 6.77835C22.8346 6.8581 22.7803 6.9401 22.726 7.02235L26.0541 10.6088C28.8753 12.8602 32.1999 14.0931 35.6522 14.0931C37.0634 14.0931 39.7188 13.6425 40.8375 12.9086C40.8389 12.9077 40.8403 12.907 40.8417 12.9063L40.8442 12.905L40.8459 12.904C40.9933 12.8092 41.1682 12.7536 41.3564 12.7536C41.8076 12.7536 42.1843 13.0696 42.2788 13.4921H43.4133C43.4999 13.4921 43.5851 13.4971 43.6697 13.5051C43.4035 13.3982 43.1878 13.1745 43.1072 12.8762C42.2182 9.58385 40.812 6.99047 38.9278 5.16847C36.8105 3.12109 34.5008 2.01909 32.0629 1.89322C32.0268 1.89097 28.1726 1.74897 24.8924 4.53922C24.4946 4.87759 23.8977 4.82972 23.5592 4.43184C23.2207 4.03422 23.2687 3.43747 23.6666 3.09909C23.9278 2.87684 24.1916 2.67184 24.4565 2.48022C23.7205 2.25459 22.9501 2.13722 22.1746 2.13722C17.8967 2.13722 14.4164 5.61647 14.4164 9.89297ZM20.9826 21.638V22.2972H19.8715C19.4164 22.2972 19.046 21.927 19.046 21.472V17.8539C19.0923 17.687 19.0901 17.5142 19.046 17.3531V16.2081C19.046 15.7531 19.4164 15.3828 19.8715 15.3828H20.9826V21.638ZM21.3715 12.936C21.474 12.861 21.5918 12.8061 21.7198 12.7772C21.8706 12.7052 22.0202 12.6311 22.167 12.5522C22.477 12.3857 23.1702 11.9827 23.9746 11.3243C23.1602 10.5902 22.3909 9.77572 21.6747 8.88547C21.3607 9.58135 21.1233 10.3086 20.9672 11.0605C20.8218 11.7607 20.7489 12.4716 20.7488 13.1848C20.9596 13.1086 21.1669 13.0247 21.3715 12.936ZM22.8742 21.6381V14.4375V14.3152L22.9338 14.2847C22.9769 14.2628 23.0199 14.2408 23.0624 14.218C23.4634 14.0026 24.41 13.4506 25.4646 12.5412C28.488 14.7698 32.001 15.9839 35.6523 15.9839C36.8306 15.9839 38.8242 15.723 40.4107 15.1736V21.638C40.4107 23.3664 39.9057 24.978 39.0384 26.3372H32.6474C32.1251 26.3372 31.7016 26.7606 31.7016 27.2827C31.7016 27.8049 32.1251 28.2282 32.6474 28.2282H37.4143C35.8708 29.5809 33.8515 30.4035 31.6424 30.4035C26.8076 30.4036 22.8742 26.4714 22.8742 21.6381ZM28.2876 32.1131C28.2876 34.4125 26.7233 36.3844 24.4836 36.9082L23.0108 37.2526C24.5289 39.5426 26.8655 41.153 29.5771 41.7402C29.6574 41.7576 29.7324 41.7857 29.8026 41.821H33.8536C33.9238 41.7857 33.9988 41.7576 34.0791 41.7402C36.7907 41.153 39.1272 39.5427 40.6453 37.2526L39.1723 36.9081C36.9326 36.3844 35.3684 34.4124 35.3684 32.113V31.6215C34.2079 32.0557 32.9527 32.2946 31.6425 32.2946C30.4705 32.2946 29.3433 32.1017 28.2876 31.7509V32.1131ZM44.3185 61.3469C44.3185 61.7671 43.9765 62.109 43.5561 62.109H19.8879C19.4675 62.109 19.1255 61.7671 19.1255 61.3469V49.4917C19.1255 48.9696 18.702 48.5462 18.1797 48.5462C17.6574 48.5462 17.2339 48.9696 17.2339 49.4917V61.3469C17.2339 61.6119 17.274 61.8674 17.3467 62.109H15.5946V43.9975C15.5946 41.0476 17.6013 38.518 20.4746 37.846L21.066 37.7076C22.047 39.3809 23.3834 40.7801 24.9649 41.8211H20.2785C18.5997 41.8211 17.2339 43.1865 17.2339 44.8647V45.9514C17.2339 46.4735 17.6574 46.8969 18.1797 46.8969C18.702 46.8969 19.1255 46.4735 19.1255 45.9514V44.8647C19.1255 44.2291 19.6428 43.7121 20.2785 43.7121H43.1655C43.8013 43.7121 44.3185 44.2292 44.3185 44.8647V61.3469ZM28.8668 17.4887C28.8668 18.0832 28.3847 18.5651 27.7901 18.5651C27.1954 18.5651 26.7133 18.0832 26.7133 17.4887C26.7133 16.8943 27.1954 16.4123 27.7901 16.4123C28.3847 16.4123 28.8668 16.8943 28.8668 17.4887ZM35.1112 18.5651C35.7058 18.5651 36.1879 18.0832 36.1879 17.4887C36.1879 16.8943 35.7058 16.4123 35.1112 16.4123C34.5165 16.4123 34.0344 16.8943 34.0344 17.4887C34.0344 18.0832 34.5165 18.5651 35.1112 18.5651ZM31.7221 49.6667C29.9329 49.6667 28.4772 51.1219 28.4772 52.9106C28.4772 54.6994 29.9327 56.1545 31.7221 56.1545C33.5113 56.1545 34.967 54.6994 34.967 52.9106C34.9669 51.1219 33.5113 49.6667 31.7221 49.6667ZM31.7221 54.2634C30.976 54.2634 30.3688 53.6565 30.3688 52.9105C30.3688 52.1646 30.9758 51.5576 31.7221 51.5576C32.4682 51.5576 33.0754 52.1645 33.0754 52.9105C33.0753 53.6565 32.4682 54.2634 31.7221 54.2634ZM33.4285 22.9282C33.7947 22.5621 34.3886 22.5621 34.7547 22.9282C35.1209 23.2944 35.1209 23.888 34.7547 24.254C33.9327 25.0759 32.8394 25.5286 31.6767 25.5286C30.5139 25.5286 29.4207 25.076 28.5986 24.254C28.2323 23.8879 28.2323 23.2942 28.5986 22.9282C28.9648 22.5621 29.5586 22.562 29.9247 22.9282C30.3926 23.3961 31.0148 23.6536 31.6766 23.6536C32.3383 23.6536 32.9605 23.396 33.4285 22.9282Z" fill="#FF7F57"/>
</svg>
