<svg width="64" height="64" viewBox="0 0 64 64" fill="none" xmlns="http://www.w3.org/2000/svg">
<path fill-rule="evenodd" clip-rule="evenodd" d="M58 31.5H59C60.6569 31.5 62 32.8173 62 34.4423V54.0577C62 55.6827 60.6569 57 59 57H51C49.3431 57 48 55.6827 48 54.0577V45.2308H36V51.1154H39C41.76 51.1186 43.9967 53.3123 44 56.0192C44 56.5609 43.5522 57 43 57H5C3.34312 57 2 55.6827 2 54.0577V28.5577C2 26.9327 3.34312 25.6154 5 25.6154H6V10.9038C6.00325 8.19692 8.24 6.00319 11 6H53C55.76 6.00319 57.9967 8.19692 58 10.9038V31.5ZM23 55.0385C23.5522 55.0385 24 54.5993 24 54.0577V53.0769H4V54.0577C4 54.5993 4.44775 55.0385 5 55.0385H23ZM24 51.1154H4V28.5577C4 28.0161 4.44775 27.5769 5 27.5769H23C23.5522 27.5769 24 28.0161 24 28.5577V51.1154ZM41.829 55.0385C41.4036 53.8637 40.271 53.0784 39 53.0769H26V54.0577C25.9966 54.3926 25.9345 54.7244 25.816 55.0385H41.829ZM26 51.1154V45.2308H28V51.1154H26ZM30 45.2308V51.1154H34V45.2308H30ZM48 43.2692H26V37.3846H48V43.2692ZM48 35.4231V34.4423C48 32.8173 49.3431 31.5 51 31.5H56V10.9038C56 9.27883 54.6569 7.96154 53 7.96154H11C9.34312 7.96154 8 9.27883 8 10.9038V25.6154H23C23.4276 25.6166 23.85 25.7086 24.238 25.8851C24.2473 25.8738 24.2545 25.8612 24.2617 25.8487C24.2707 25.833 24.2797 25.8173 24.293 25.8037L34.193 16.0941C34.5806 15.727 35.195 15.727 35.5825 16.0941C35.9798 16.4703 35.9907 17.0913 35.607 17.4809L25.707 27.1905C25.6996 27.1983 25.6905 27.203 25.6814 27.2078C25.6733 27.2121 25.6651 27.2164 25.658 27.2229C25.8793 27.6345 25.9966 28.0923 26 28.5577V35.4231H48ZM60 54.0577C60 54.5993 59.5522 55.0385 59 55.0385H51C50.4478 55.0385 50 54.5993 50 54.0577V53.0769H60V54.0577ZM50 51.1154H60V34.4423C60 33.9007 59.5522 33.4615 59 33.4615H51C50.4478 33.4615 50 33.9007 50 34.4423V51.1154ZM13.949 37.5533C13.5585 37.1704 12.9255 37.1704 12.535 37.5533L8.293 41.7137C7.89575 42.0901 7.88475 42.7109 8.2685 43.1005C8.65225 43.4902 9.28525 43.5009 9.6825 43.1246L9.69588 43.1117L9.707 43.1005L13.949 38.9401C14.3533 38.5787 14.3533 38.0369 13.949 37.5533ZM18.535 37.5533C18.9226 37.1863 19.537 37.1863 19.9245 37.5533C20.3217 37.9296 20.3326 38.5505 19.949 38.9401L15.707 43.1005C15.699 43.1086 15.6909 43.1167 15.6825 43.1246C15.2852 43.5009 14.6521 43.4902 14.2685 43.1005C13.8847 42.7109 13.8958 42.09 14.293 41.7137L18.535 37.5533ZM41.6825 16.0951C41.295 15.728 40.6806 15.728 40.293 16.0951L30.393 25.8047C29.9958 26.1809 29.9848 26.8019 30.3684 27.1915C30.752 27.5811 31.3851 27.5919 31.7824 27.2156C31.7908 27.2078 31.7989 27.1997 31.807 27.1915L41.707 17.4819C42.0908 17.0923 42.0798 16.4713 41.6825 16.0951ZM55.707 40.2083C56.0945 39.8411 56.709 39.8411 57.0965 40.2083C57.4937 40.5846 57.5047 41.2054 57.121 41.5951L54.293 44.3687C54.285 44.3768 54.2767 44.3849 54.2685 44.3927C53.8713 44.7691 53.2383 44.7583 52.8545 44.3687C52.4707 43.9791 52.4818 43.3582 52.879 42.9819L55.707 40.2083ZM32.02 39.3462H32.01C31.4578 39.3489 31.0123 39.7902 31.015 40.3318C31.0177 40.8735 31.4678 41.3104 32.02 41.3077C32.5723 41.3077 33.02 40.8686 33.02 40.3269C33.02 39.7853 32.5723 39.3462 32.02 39.3462ZM30 9.92308H34C34.5522 9.92308 35 10.3622 35 10.9038C35 11.4455 34.5522 11.8846 34 11.8846H30C29.4478 11.8846 29 11.4455 29 10.9038C29 10.3622 29.4478 9.92308 30 9.92308Z" fill="#FF7F57"/>
</svg>
