<svg width="64" height="64" viewBox="0 0 64 64" fill="none" xmlns="http://www.w3.org/2000/svg">
<path fill-rule="evenodd" clip-rule="evenodd" d="M52.2196 21.5099C51.8723 22.4355 51.5444 23.3099 51.5444 24.0648C51.5444 24.8195 51.8719 25.6933 52.2186 26.6183L52.2191 26.6195C52.7433 28.0171 53.2853 29.4622 52.827 30.8844C52.3498 32.3659 50.9781 33.2666 49.7677 34.0613L49.7671 34.0617C48.9724 34.5835 48.2218 35.0764 47.8128 35.6427C47.395 36.2213 47.1574 37.1024 46.9058 38.0352C46.5812 39.2394 46.2178 40.5812 45.3321 41.5076L49.7756 57.5682C49.8715 57.915 49.7722 58.2869 49.5167 58.5386C49.2608 58.7902 48.8895 58.8813 48.5478 58.7764L42.4786 56.913L38.2425 61.6723C38.0546 61.8834 37.7885 62 37.514 62C37.4399 62 37.3653 61.9914 37.2913 61.9741C36.9434 61.8921 36.6674 61.6255 36.5714 61.2786L32.3734 46.1075C32.2505 46.1204 32.1263 46.1294 31.9998 46.1294C31.873 46.1294 31.7487 46.1205 31.6255 46.1075L27.4293 61.2786C27.3332 61.6255 27.0574 61.8921 26.7094 61.9741C26.6353 61.9916 26.5605 62 26.4865 62C26.212 62.0001 25.946 61.8835 25.7581 61.6725L21.5205 56.9131L15.4526 58.7766C15.111 58.8816 14.7394 58.7906 14.4837 58.5389C14.228 58.2873 14.1288 57.9152 14.2247 57.5683L17.8125 44.6021C17.9576 44.0774 18.4972 43.7709 19.018 43.917C19.5386 44.0634 19.8429 44.6072 19.6978 45.1319L16.5895 56.3655L21.5471 54.843C21.9112 54.7314 22.3065 54.8424 22.5607 55.1279L26.0232 59.0166L29.7751 45.4534C29.1422 45.0824 28.5597 44.6093 28.0131 44.1641L28.0127 44.1638L28.0126 44.1638L28.0126 44.1637C27.2862 43.5721 26.6003 43.0133 25.9587 42.8034C25.2691 42.5777 24.3568 42.6209 23.3911 42.667L23.3909 42.667C21.8958 42.738 20.3496 42.8114 19.1293 41.9164C17.8964 41.0121 17.47 39.4309 17.0938 38.0358L17.0933 38.0338C16.8418 37.1018 16.6043 36.2214 16.1868 35.6433C15.7779 35.077 15.0273 34.5841 14.2326 34.0623L14.2319 34.0619C13.0217 33.2672 11.65 32.3665 11.1725 30.8849C10.7143 29.4627 11.2563 28.0176 11.7804 26.62C12.1276 25.6943 12.4556 24.82 12.4556 24.065C12.4556 23.3103 12.1278 22.4362 11.7808 21.5107L11.7806 21.5101C11.2564 20.1125 10.7144 18.6674 11.1727 17.2452C11.6499 15.7636 13.0216 14.8629 14.2319 14.0682L14.2326 14.0678C15.0273 13.546 15.7779 13.0531 16.1868 12.4868C16.6046 11.9082 16.8423 11.0271 17.0938 10.0943L17.094 10.0935C17.4702 8.69854 17.8966 7.11777 19.1293 6.21372C20.3497 5.31852 21.8961 5.392 23.3912 5.46313L23.3934 5.46323C24.3584 5.50902 25.2699 5.55226 25.9589 5.32673C26.6003 5.11678 27.2862 4.55801 28.0124 3.96649L28.013 3.96606C29.1442 3.04449 30.4265 2 32.0001 2C33.5729 2 34.8547 3.04366 35.9857 3.96449L35.987 3.96559C36.7134 4.55739 37.3996 5.11637 38.0413 5.32637C38.7309 5.55208 39.6431 5.50872 40.6089 5.46278L40.609 5.46277C42.1041 5.39176 43.6503 5.31832 44.8707 6.21337C46.1036 7.11759 46.53 8.6988 46.9062 10.0939L46.9066 10.0953C47.1581 11.0276 47.3956 11.9082 47.8132 12.4864C48.222 13.0527 48.9722 13.5453 49.7665 14.0668L49.7681 14.0679L49.7692 14.0686C50.9792 14.8633 52.3502 15.7638 52.8275 17.2451C53.2857 18.6673 52.7437 20.1124 52.2196 21.5099ZM42.4523 54.843L47.4113 56.3655L43.5797 42.5164C42.6426 42.7618 41.6145 42.7142 40.6089 42.6664L40.6067 42.6663H40.6067C39.6418 42.6205 38.7304 42.5772 38.0412 42.8028C37.3995 43.013 36.7133 43.5719 35.9869 44.1636C35.4401 44.6091 34.8575 45.0822 34.2242 45.4533L37.9774 59.0165L41.4385 55.1279C41.6927 54.8423 42.0882 54.731 42.4523 54.843ZM50.9658 30.2756C50.7021 31.0942 49.7295 31.7329 48.6996 32.409L48.6989 32.4095C47.7907 33.0058 46.8516 33.6225 46.2306 34.4826C45.601 35.3546 45.3042 36.4546 45.0175 37.5184C44.6976 38.7048 44.3954 39.8253 43.7191 40.3214C43.0549 40.8084 41.9117 40.7541 40.701 40.6966L40.6971 40.6964C39.5997 40.6444 38.465 40.5907 37.4367 40.9272C36.4506 41.2499 35.5895 41.9514 34.7566 42.6299C33.7921 43.4156 32.8815 44.1573 31.9999 44.1573C31.1184 44.1573 30.2075 43.4153 29.2432 42.6297L29.2431 42.6296C28.4104 41.9512 27.549 41.2496 26.5631 40.9271C25.9138 40.7146 25.222 40.6577 24.5241 40.6577C24.1155 40.6577 23.7046 40.6771 23.2989 40.6964C22.0884 40.7541 20.9451 40.8084 20.2809 40.3213C19.6046 39.8253 19.3024 38.7047 18.9825 37.5183C18.6958 36.4545 18.399 35.3543 17.7694 34.4824C17.1483 33.6223 16.209 33.0055 15.3004 32.4089C14.2706 31.7328 13.2979 31.094 13.0342 30.2754C12.7883 29.5121 13.188 28.4461 13.6112 27.3176L13.6114 27.3172L13.6114 27.3172C14.0055 26.2665 14.4129 25.1802 14.4129 24.065C14.4129 22.9499 14.0054 21.8633 13.6115 20.8128C13.1881 19.6842 12.7883 18.618 13.0343 17.8546C13.298 17.036 14.2707 16.3973 15.3006 15.7212L15.3012 15.7207C16.2094 15.1244 17.1485 14.5077 17.7695 13.6479C18.3992 12.7759 18.6959 11.6758 18.9826 10.612C19.3025 9.4256 19.6047 8.30517 20.281 7.809C20.9451 7.32196 22.0887 7.37622 23.2991 7.43388L23.3008 7.43396C24.3988 7.48608 25.5344 7.53999 26.5634 7.20325C27.5493 6.88056 28.4104 6.17924 29.2432 5.50093L29.2436 5.50063C30.2077 4.71477 31.1187 3.97274 32.0001 3.97274C32.8815 3.97274 33.7925 4.71477 34.7567 5.50016C35.5895 6.17868 36.4509 6.88028 37.4368 7.2029C38.4663 7.53982 39.6023 7.48591 40.701 7.43353L40.7019 7.43348C41.912 7.37608 43.0551 7.32185 43.719 7.80864C44.3953 8.3047 44.6975 9.42525 45.0174 10.6117C45.3041 11.6755 45.6008 12.7756 46.2305 13.6475C46.8515 14.5077 47.7908 15.1244 48.6993 15.7208C49.7292 16.397 50.7019 17.0357 50.9657 17.8543C51.2117 18.6178 50.8119 19.6839 50.3885 20.8126C49.9944 21.8632 49.587 22.9496 49.587 24.0648C49.587 25.1793 49.9941 26.2648 50.3879 27.3149L50.3887 27.317L50.389 27.3176C50.8121 28.4461 51.2118 29.5121 50.9658 30.2756ZM43.5567 17.6119C44.0472 17.3837 44.6288 17.5996 44.8552 18.0941C45.7153 19.9721 46.1514 21.9811 46.1515 24.0649C46.1515 31.9292 39.8032 38.3271 32.0001 38.3271C24.1968 38.3271 17.8485 31.9292 17.8485 24.0649C17.8485 16.2007 24.1968 9.80271 32.0001 9.80271C35.9906 9.80271 39.8161 11.514 42.4955 14.4978C42.8583 14.9018 42.8274 15.5253 42.4267 15.891C42.0256 16.2562 41.4071 16.2252 41.0443 15.8214C38.7354 13.2499 35.4388 11.7751 32.0001 11.7751C25.276 11.7751 19.8057 17.2883 19.8057 24.0648C19.8057 30.8414 25.276 36.3545 32.0001 36.3545C38.724 36.3545 44.1943 30.8414 44.1943 24.0648C44.1943 22.2684 43.8188 20.5377 43.0782 18.9206C42.8518 18.4261 43.066 17.8401 43.5567 17.6119ZM28.2204 17.9311C27.6799 17.9311 27.2418 18.3726 27.2418 18.9173C27.2418 19.462 27.6799 19.9036 28.2204 19.9036H35.7797C36.3202 19.9036 36.7583 19.462 36.7583 18.9173C36.7583 18.3726 36.3202 17.9311 35.7797 17.9311H28.2204ZM27.2418 29.2123C27.2418 28.6676 27.6799 28.226 28.2204 28.226H35.7797C36.3202 28.226 36.7583 28.6676 36.7583 29.2123C36.7583 29.757 36.3202 30.1985 35.7797 30.1985H28.2204C27.6799 30.1985 27.2418 29.757 27.2418 29.2123ZM38.4896 23.0786H35.5418C35.0013 23.0786 34.5632 23.5201 34.5632 24.0648C34.5632 24.6095 35.0013 25.0511 35.5418 25.0511H38.4896C39.03 25.0511 39.4682 24.6096 39.4682 24.0648C39.4682 23.5201 39.03 23.0786 38.4896 23.0786ZM25.5104 23.0786H32.4771C33.0176 23.0786 33.4558 23.5201 33.4558 24.0648C33.4558 24.6095 33.0176 25.0511 32.4771 25.0511H25.5104C24.97 25.0511 24.5318 24.6095 24.5318 24.0648C24.5318 23.5201 24.97 23.0786 25.5104 23.0786Z" fill="#FF7F57"/>
</svg>
