<svg width="130" height="36" viewBox="0 0 130 36" fill="none" xmlns="http://www.w3.org/2000/svg">
<path fill-rule="evenodd" clip-rule="evenodd" d="M54.2191 21C55.194 21 56.0887 21.1415 56.9024 21.4254C57.72 21.7105 58.3833 22.089 58.8906 22.5626L59.0812 22.7406L57.2567 24.7194L57.0654 24.506C56.7917 24.2008 56.4022 23.9366 55.8945 23.7159C55.3877 23.4957 54.8356 23.3854 54.2358 23.3854C53.6472 23.3854 53.1178 23.4901 52.6452 23.6986C52.1713 23.9077 51.7697 24.1938 51.4381 24.5578C51.1047 24.9239 50.8466 25.3532 50.6632 25.8475C50.4794 26.3429 50.3873 26.8821 50.3873 27.4665C50.3873 28.0736 50.4796 28.6271 50.6635 29.1282C50.8467 29.6272 51.107 30.0584 51.4451 30.4239C51.7814 30.7875 52.1904 31.0707 52.6745 31.2745C53.159 31.4785 53.7123 31.5811 54.336 31.5811C55.1331 31.5811 55.8309 31.4687 56.4304 31.2455V28.6675H53.9413V26.3995H58.9905V32.9804L58.8427 33.0518C58.223 33.3513 57.5444 33.5841 56.8072 33.7505C56.0688 33.9171 55.2229 34 54.2692 34C53.2801 34 52.3739 33.8407 51.5522 33.5212C50.7294 33.2013 50.0202 32.752 49.4266 32.1737C48.8329 31.5952 48.3702 30.9059 48.0393 30.1076C47.7083 29.3089 47.5432 28.4279 47.5432 27.4665C47.5432 26.4817 47.7142 25.5885 48.0573 24.7888C48.3999 23.9902 48.8718 23.3089 49.4722 22.7472C50.0713 22.1867 50.7776 21.7549 51.589 21.4524C52.3984 21.1506 53.2755 21 54.2191 21ZM93.4849 21C93.8791 21 94.2895 21.0377 94.7161 21.1129C95.1456 21.1887 95.5581 21.3053 95.9534 21.4629C96.349 21.6205 96.7216 21.8163 97.071 22.0501C97.4295 22.2901 97.7352 22.5789 97.987 22.9158L98.1395 23.12L96.1246 24.7213L95.9643 24.5029C95.682 24.1183 95.3157 23.8387 94.8603 23.661C94.3885 23.4768 93.9304 23.3854 93.4849 23.3854C92.9079 23.3854 92.3871 23.4899 91.9204 23.6982C91.4512 23.9075 91.0487 24.1942 90.711 24.5593C90.3726 24.9251 90.1121 25.3538 89.929 25.8475C89.7453 26.3429 89.6531 26.8821 89.6531 27.4665C89.6531 28.086 89.743 28.649 89.9221 29.1565C90.1 29.6608 90.3523 30.0915 90.679 30.4507C91.0048 30.8088 91.3947 31.0862 91.851 31.284C92.3071 31.4817 92.8232 31.5811 93.4014 31.5811C93.9963 31.5811 94.518 31.4644 94.9698 31.2325C95.4241 30.9993 95.7877 30.6934 96.0638 30.3136L96.215 30.1057L98.3388 31.6043L98.1661 31.8219C97.618 32.5125 96.9463 33.049 96.1534 33.4294C95.359 33.8105 94.4354 34 93.3847 34C92.4282 34 91.5465 33.8404 90.7411 33.5205C89.9348 33.2002 89.2395 32.7505 88.6572 32.1718C88.075 31.5933 87.6211 30.9041 87.2962 30.1061C86.9711 29.3078 86.809 28.4274 86.809 27.4665C86.809 26.4817 86.98 25.5885 87.3231 24.7888C87.6657 23.9902 88.1376 23.3089 88.738 22.7472C89.3372 22.1867 90.0434 21.7549 90.8548 21.4524C91.6642 21.1506 92.5413 21 93.4849 21ZM46.8561 33.6982L41.5361 21.3018H39.3723L34 33.6982H36.9312L38.0003 30.9816H42.7758L43.8784 33.6982H46.8561ZM40.3932 24.8135L38.9215 28.6466H41.8384L40.3932 24.8135ZM70.4253 23.6704V21.3018H62.0685V33.6982H70.726V31.296H64.6954V28.4663H70.1246V26.1648H64.6954V23.6704H70.4253ZM76.4988 21.3018L81.622 29.5864V21.3018H84.2489V33.6982H81.1691L75.9297 25.1362V33.6982H73.3028V21.3018H76.4988ZM104.069 26.0521L101.242 21.3018H98.0352L102.704 28.3671V33.6982H105.331V28.3671L110 21.3018H106.927L104.069 26.0521Z" fill="#2557AB"/>
<path d="M15.2961 28.5763V21.1525H1.18455V13.9831H15.2961V0H24V36H0V28.5763H15.2961Z" fill="#2557AB"/>
<path fill-rule="evenodd" clip-rule="evenodd" d="M60.6622 8.64286H62.4732L61.4967 15.7143H63.0946L64.0711 8.64286H65.9887L66.184 7.25H64.2842L64.5505 5.30357C64.5979 5.00595 64.6541 4.74107 64.7192 4.50893C64.7843 4.27678 64.876 4.07738 64.9944 3.91071C65.1128 3.74405 65.2666 3.61607 65.456 3.52679C65.6454 3.4375 65.8881 3.39286 66.184 3.39286C66.3497 3.39286 66.5036 3.40476 66.6456 3.42857C66.7877 3.45238 66.9297 3.49405 67.0717 3.55357L67.4446 2.125C67.2315 2.06548 67.0274 2.02976 66.8321 2.01786C66.6367 2.00595 66.4503 2 66.2728 2C65.2193 2 64.441 2.27678 63.938 2.83036C63.4349 3.38393 63.1005 4.22618 62.9348 5.35714L62.6685 7.25H60.8575L60.6622 8.64286ZM48.3737 2.21429H46.7757L44.8937 15.7143H46.4917L48.3737 2.21429ZM43.6587 3.07143H35.7578L34 15.7143H35.7045L36.468 10.25H42.2383L42.4514 8.64286H36.681L37.2314 4.67857H43.4279L43.6587 3.07143ZM57.4742 15.7143H55.8762L56.0537 14.4107H56.0182C55.746 14.8631 55.3435 15.2292 54.8109 15.5089C54.2782 15.7887 53.6864 15.9286 53.0354 15.9286C52.6211 15.9286 52.2394 15.8661 51.8902 15.7411C51.541 15.6161 51.2451 15.4226 51.0024 15.1607C50.7598 14.8988 50.5852 14.5625 50.4787 14.1518C50.3721 13.7411 50.3544 13.256 50.4254 12.6964L51.1889 7.25H52.7868L52.0944 12.25C52.0352 12.6429 52.0381 12.9792 52.1032 13.2589C52.1684 13.5387 52.2778 13.7649 52.4317 13.9375C52.5856 14.1101 52.775 14.2351 52.9999 14.3125C53.2248 14.3899 53.4615 14.4286 53.7101 14.4286C54.3729 14.4286 54.9589 14.2054 55.4678 13.7589C55.9768 13.3125 56.3023 12.5952 56.4444 11.6071L57.048 7.25H58.646L57.4742 15.7143ZM69.0524 8.64286H67.2414L67.4367 7.25H69.2477L69.5141 5.35714C69.6798 4.22618 70.0141 3.38393 70.5172 2.83036C71.0203 2.27678 71.7985 2 72.852 2C73.0296 2 73.216 2.00595 73.4113 2.01786C73.6066 2.02976 73.8108 2.06548 74.0238 2.125L73.651 3.55357C73.5089 3.49405 73.3669 3.45238 73.2249 3.42857C73.0828 3.40476 72.9289 3.39286 72.7632 3.39286C72.4673 3.39286 72.2247 3.4375 72.0353 3.52679C71.8459 3.61607 71.692 3.74405 71.5736 3.91071C71.4553 4.07738 71.3635 4.27678 71.2984 4.50893C71.2333 4.74107 71.1771 5.00595 71.1298 5.30357L70.8634 7.25H72.7632L72.5679 8.64286H70.6504L69.6738 15.7143H68.0759L69.0524 8.64286ZM76.3596 7.25H74.5131L76.8212 15.7679L76.1288 17.1071C76.0223 17.3214 75.9128 17.5119 75.8003 17.6786C75.6879 17.8452 75.5636 17.9911 75.4275 18.1161C75.2913 18.2411 75.1316 18.3363 74.9481 18.4018C74.7646 18.4673 74.5486 18.5 74.3 18.5C73.9686 18.5 73.6549 18.4345 73.359 18.3036L72.9861 19.7679C73.1874 19.8631 73.4063 19.9256 73.6431 19.9554C73.8798 19.9851 74.1166 20 74.3533 20C74.7912 20 75.17 19.9405 75.4896 19.8214C75.8092 19.7024 76.0903 19.5357 76.333 19.3214C76.5756 19.1071 76.7946 18.8482 76.9899 18.5446C77.1852 18.2411 77.3776 17.9048 77.567 17.5357L83 7.25H81.2778L77.9753 13.8571H77.9398L76.3596 7.25Z" fill="#2557AB"/>
</svg>
