<svg width="91" height="20" viewBox="0 0 91 20" fill="none" xmlns="http://www.w3.org/2000/svg">
<path fill-rule="evenodd" clip-rule="evenodd" d="M9.816 0.124001C12.364 0.124001 15.094 0.67 17.044 2.438L14.626 4.882C13.378 3.686 11.532 3.088 9.816 3.088C6.046 3.088 3.498 6 3.498 9.666C3.498 13.462 5.89 16.504 9.842 16.504C11.22 16.504 12.832 16.27 14.132 15.542V11.2H10.362V8.236H17.408V17.648C14.964 18.948 12.39 19.468 9.816 19.468C4.096 19.468 0.0660019 15.568 0.0660019 9.874C0.0660019 4.076 4.018 0.124001 9.816 0.124001ZM26.658 6.208C30.61 6.208 32.508 9.198 32.508 12.968V13.852H22.992C23.2 15.646 24.552 16.816 26.346 16.816C27.75 16.816 28.816 16.218 29.7 15.126L31.936 16.816C30.584 18.48 28.79 19.312 26.658 19.312C22.836 19.312 19.872 16.66 19.872 12.76C19.872 8.886 22.836 6.208 26.658 6.208ZM22.992 11.512H29.388C29.362 9.562 28.036 8.548 26.19 8.548C24.344 8.548 23.226 9.744 22.992 11.512ZM41.758 6.208C45.476 6.208 46.308 9.094 46.308 11.018V19H43.188V12.526C43.188 10.03 42.382 9.016 40.9 9.016C38.898 9.016 38.04 10.472 38.04 12.136V19H34.92V6.52H37.884V8.522H37.936C38.69 6.884 40.12 6.208 41.758 6.208ZM55.506 6.208C59.458 6.208 61.356 9.198 61.356 12.968V13.852H51.84C52.048 15.646 53.4 16.816 55.194 16.816C56.598 16.816 57.664 16.218 58.548 15.126L60.784 16.816C59.432 18.48 57.638 19.312 55.506 19.312C51.684 19.312 48.72 16.66 48.72 12.76C48.72 8.886 51.684 6.208 55.506 6.208ZM51.84 11.512H58.236C58.21 9.562 56.884 8.548 55.038 8.548C53.192 8.548 52.074 9.744 51.84 11.512ZM68.032 6.208C69.982 6.208 71.594 6.884 72.504 8.106L70.424 9.978C69.8 9.12 69.02 8.704 67.98 8.704C66.966 8.704 66.16 9.224 66.16 10.03C66.16 11.044 67.564 11.226 69.124 11.59C71.048 12.032 72.894 12.734 72.894 15.308C72.894 17.934 70.58 19.312 67.486 19.312C65.562 19.312 63.924 18.818 62.65 17.388L64.73 15.438C65.796 16.608 66.628 16.972 67.694 16.972C68.838 16.972 69.774 16.4 69.774 15.542C69.774 14.346 68.266 14.138 66.68 13.774C64.99 13.384 63.04 12.786 63.04 10.238C63.04 7.196 65.9 6.208 68.032 6.208ZM76.398 0.410001C77.542 0.410001 78.426 1.216 78.426 2.282C78.426 3.4 77.516 4.154 76.398 4.154C75.28 4.154 74.422 3.296 74.422 2.282C74.422 1.268 75.28 0.410001 76.398 0.410001ZM74.864 6.52H77.984V19H74.864V6.52ZM85.336 6.208C87.286 6.208 88.898 6.884 89.808 8.106L87.728 9.978C87.104 9.12 86.324 8.704 85.284 8.704C84.27 8.704 83.464 9.224 83.464 10.03C83.464 11.044 84.868 11.226 86.428 11.59C88.352 12.032 90.198 12.734 90.198 15.308C90.198 17.934 87.884 19.312 84.79 19.312C82.866 19.312 81.228 18.818 79.954 17.388L82.034 15.438C83.1 16.608 83.932 16.972 84.998 16.972C86.142 16.972 87.078 16.4 87.078 15.542C87.078 14.346 85.57 14.138 83.984 13.774C82.294 13.384 80.344 12.786 80.344 10.238C80.344 7.196 83.204 6.208 85.336 6.208Z" fill="#111111"/>
</svg>
