<svg width="95" height="15" viewBox="0 0 95 15" fill="none" xmlns="http://www.w3.org/2000/svg">
<path fill-rule="evenodd" clip-rule="evenodd" d="M43.6875 0H49.3125C51.9009 0 54 2.09906 54 4.6875V10.3125C54 12.9009 51.9009 15 49.3125 15H43.6875C41.0991 15 39 12.9009 39 10.3125V4.6875C39 2.09906 41.0991 0 43.6875 0ZM49.3125 13.5938C51.1219 13.5938 52.5938 12.1219 52.5938 10.3125V4.6875C52.5938 2.87812 51.1219 1.40625 49.3125 1.40625H43.6875C41.8781 1.40625 40.4062 2.87812 40.4062 4.6875V10.3125C40.4062 12.1219 41.8781 13.5938 43.6875 13.5938H49.3125Z" fill="black"/>
<path fill-rule="evenodd" clip-rule="evenodd" d="M42.7585 7.51709C42.7585 5.44143 44.4414 3.75854 46.5171 3.75854C48.5927 3.75854 50.2756 5.44143 50.2756 7.51709C50.2756 9.59274 48.5927 11.2756 46.5171 11.2756C44.4414 11.2756 42.7585 9.59274 42.7585 7.51709ZM44.168 7.51709C44.168 8.8119 45.2223 9.86618 46.5171 9.86618C47.8119 9.86618 48.8662 8.8119 48.8662 7.51709C48.8662 6.22133 47.8119 5.168 46.5171 5.168C45.2223 5.168 44.168 6.22133 44.168 7.51709Z" fill="black"/>
<path fill-rule="evenodd" clip-rule="evenodd" d="M50.5319 3.96354C50.8056 3.96354 51.0274 3.74173 51.0274 3.4681C51.0274 3.19447 50.8056 2.97266 50.5319 2.97266C50.2583 2.97266 50.0365 3.19447 50.0365 3.4681C50.0365 3.74173 50.2583 3.96354 50.5319 3.96354Z" fill="black"/>
<path fill-rule="evenodd" clip-rule="evenodd" d="M95 1.65598C94.3375 1.937 93.6266 2.12758 92.8797 2.21266C93.6424 1.7755 94.2261 1.0821 94.5028 0.258405C93.7874 0.663244 92.9978 0.957209 92.1565 1.11657C91.4827 0.428545 90.5244 0 89.4615 0C87.4222 0 85.7688 1.58278 85.7688 3.5338C85.7688 3.81051 85.8014 4.08076 85.8644 4.3392C82.796 4.19167 80.0751 2.7844 78.2541 0.646013C77.9358 1.16716 77.7547 1.7744 77.7547 2.42261C77.7547 3.64901 78.4071 4.73111 79.3969 5.3642C78.7918 5.34483 78.2226 5.18548 77.7244 4.9206V4.96474C77.7244 6.67673 78.9976 8.10553 80.6859 8.43072C80.3766 8.5104 80.0504 8.55454 79.713 8.55454C79.4745 8.55454 79.2439 8.53193 79.0179 8.48886C79.488 9.89398 80.8513 10.9158 82.4665 10.9438C81.2033 11.8913 79.6106 12.4544 77.8807 12.4544C77.5826 12.4544 77.2891 12.4372 77 12.406C78.6343 13.4106 80.5746 13.9963 82.6599 13.9963C89.4525 13.9963 93.1655 8.61054 93.1655 3.93974L93.1531 3.48214C93.8786 2.98681 94.5062 2.36447 95 1.65598Z" fill="black"/>
<path fill-rule="evenodd" clip-rule="evenodd" d="M13.9795 3.73131C13.3095 2.58352 12.4007 1.67474 11.2529 1.00479C10.1049 0.334886 8.85164 0 7.49224 0C6.13298 0 4.87937 0.334886 3.73155 1.00479C2.58366 1.67464 1.67487 2.58342 1.0049 3.73131C0.334886 4.87927 0 6.13288 0 7.49204C0 8.85126 0.334989 10.1047 1.00479 11.2527C1.67474 12.4005 2.58352 13.3093 3.73141 13.9793C4.87937 14.6492 6.13288 14.9841 7.49211 14.9841C8.85133 14.9841 10.105 14.6492 11.2529 13.9793C12.4007 13.3095 13.3094 12.4005 13.9794 11.2527C14.6492 10.1048 14.984 8.8512 14.984 7.49204C14.984 6.13274 14.6492 4.8791 13.9795 3.73131ZM7.49214 1.09261C9.10493 1.09261 10.513 1.62588 11.7161 2.69238L11.5941 2.86298C11.5454 2.93139 11.4234 3.06294 11.2284 3.25814C11.0333 3.45318 10.8203 3.63864 10.5895 3.8142C10.3584 3.98983 10.0448 4.18978 9.64797 4.41417C9.25124 4.63855 8.82854 4.8354 8.37974 5.00446C7.63189 3.62559 6.83204 2.38343 5.98005 1.2779C6.49391 1.15435 6.99789 1.09261 7.49214 1.09261ZM4.76071 1.70706C3.86313 2.12973 3.10233 2.73465 2.47804 3.52141C1.85375 4.30835 1.43754 5.19294 1.22932 6.17491C3.19339 6.17501 5.1639 5.91485 7.14096 5.39457C6.36048 4.00937 5.56712 2.78013 4.76071 1.70706ZM1.52187 9.79934C1.23567 9.06772 1.09261 8.29855 1.09261 7.49204C1.09261 7.40095 1.09596 7.33264 1.10238 7.28716C3.45677 7.28716 5.64526 6.98484 7.66784 6.37989C7.87599 6.78308 8.04834 7.14403 8.18491 7.46279C8.15857 7.47577 8.11661 7.49033 8.05804 7.50663C7.99931 7.52289 7.95714 7.53417 7.9309 7.54076L7.57005 7.66756C7.3228 7.75866 6.99916 7.91477 6.59935 8.13577C6.19944 8.35712 5.7751 8.62035 5.32633 8.92609C4.87756 9.23187 4.41417 9.6367 3.93622 10.1409C3.4582 10.6449 3.05662 11.1861 2.73144 11.7649C2.21115 11.1861 1.808 10.5308 1.52187 9.79934ZM3.41436 12.4283C4.61105 13.4037 5.97027 13.8916 7.49214 13.8916C8.35069 13.8915 9.18301 13.7225 9.98945 13.3841C9.71641 11.8168 9.26095 10.1973 8.6238 8.52591H8.60416L8.58475 8.53572C8.48071 8.57481 8.34085 8.62859 8.16523 8.69686C7.98946 8.76492 7.66121 8.92442 7.17998 9.17464C6.69864 9.42533 6.25319 9.69195 5.84347 9.97466C5.43376 10.2576 5.00781 10.6301 4.56554 11.0918C4.12319 11.5535 3.7883 12.0347 3.56071 12.5357L3.41436 12.4283ZM12.8773 10.9503C12.396 11.695 11.7943 12.3114 11.0726 12.799C10.8058 11.3032 10.3898 9.77795 9.8238 8.22372C11.118 8.02189 12.4479 8.11637 13.8137 8.50644C13.6706 9.39092 13.3584 10.2057 12.8773 10.9503ZM13.5501 7.36042C13.6476 7.37658 13.729 7.39134 13.7941 7.40426L13.8917 7.42374C13.8724 5.91478 13.3877 4.58163 12.4382 3.424L12.4284 3.43384C12.3699 3.51178 12.3082 3.59139 12.2431 3.67285C12.1778 3.75417 12.0366 3.8988 11.8186 4.10689C11.6008 4.31494 11.3699 4.51169 11.126 4.69722C10.882 4.88255 10.557 5.09378 10.1507 5.33122C9.74399 5.56866 9.31626 5.77831 8.86749 5.96054C9.03024 6.30513 9.17337 6.61408 9.2971 6.88722C9.3097 6.92624 9.33103 6.98323 9.36024 7.05796C9.38949 7.13279 9.41382 7.18647 9.43346 7.21903C9.66755 7.18657 9.90974 7.16354 10.1601 7.15073C10.4103 7.13781 10.6495 7.13122 10.8769 7.13122C11.1046 7.13122 11.3289 7.13614 11.5502 7.14584C11.7712 7.15568 11.9794 7.16856 12.1744 7.1849C12.3697 7.20116 12.5534 7.219 12.7258 7.23851C12.898 7.25805 13.0543 7.27913 13.194 7.30189C13.3338 7.32465 13.4526 7.34426 13.5501 7.36042Z" fill="black"/>
</svg>
