<svg width="1046" height="210" viewBox="0 0 1046 210" fill="none" xmlns="http://www.w3.org/2000/svg">
<g opacity="0.5">
<mask id="path-1-inside-1" fill="white">
<path fill-rule="evenodd" clip-rule="evenodd" d="M170 96.9997C170 96.9997 362.477 -115.458 563.059 96.9997C563.059 96.9997 739.327 -116.754 947 96.9997"/>
</mask>
<path fill-rule="evenodd" clip-rule="evenodd" d="M170 96.9997C170 96.9997 362.477 -115.458 563.059 96.9997C563.059 96.9997 739.327 -116.754 947 96.9997" fill="black" fill-opacity="0.01"/>
<path d="M563.059 96.9997L562.332 97.6862L563.109 98.5101L563.83 97.6359L563.059 96.9997ZM170 96.9997C170.741 97.6711 170.741 97.6707 170.743 97.6694C170.744 97.6679 170.746 97.6659 170.749 97.6629C170.754 97.6569 170.762 97.6478 170.774 97.6355C170.796 97.6108 170.83 97.5735 170.876 97.5239C170.967 97.4246 171.105 97.2759 171.288 97.0802C171.655 96.6888 172.203 96.1095 172.928 95.3617C174.379 93.8662 176.535 91.6968 179.353 89.0092C184.988 83.6336 193.265 76.1861 203.825 67.9099C224.95 51.3538 255.186 31.4996 291.652 18.2679C328.113 5.03838 370.783 -1.56456 416.812 8.34651C462.836 18.2565 512.302 44.6948 562.332 97.6862L563.786 96.3132C513.524 43.0755 463.712 16.3993 417.233 6.39132C370.759 -3.61556 327.701 3.06013 290.97 16.3879C254.245 29.7134 223.824 49.6952 202.592 66.3357C191.973 74.6577 183.647 82.1487 177.972 87.562C175.135 90.2688 172.96 92.4565 171.493 93.9694C170.759 94.7259 170.202 95.3136 169.828 95.7132C169.641 95.9131 169.5 96.0658 169.405 96.1692C169.357 96.2208 169.321 96.2601 169.297 96.2867C169.285 96.3001 169.275 96.3102 169.269 96.3171C169.266 96.3206 169.263 96.3234 169.262 96.3251C169.26 96.3271 169.259 96.3283 170 96.9997ZM563.059 96.9997C563.83 97.6359 563.831 97.6355 563.832 97.6343C563.833 97.6328 563.834 97.6308 563.837 97.6278C563.842 97.6218 563.849 97.6127 563.86 97.6003C563.88 97.5756 563.911 97.5382 563.953 97.4883C564.037 97.3886 564.163 97.2392 564.331 97.0425C564.667 96.6491 565.171 96.0667 565.837 95.3147C567.171 93.8108 569.156 91.6292 571.759 88.926C576.964 83.5195 584.636 76.0289 594.491 67.7045C614.205 51.052 642.632 31.0838 677.509 17.7764C712.377 4.47208 753.68 -2.17108 799.183 7.7992C844.686 17.7694 894.474 44.3711 946.283 97.6965L947.717 96.3029C895.689 42.7515 845.567 15.9148 799.611 5.84554C753.657 -4.22359 711.954 2.49286 676.796 15.9078C641.646 29.3196 613.026 49.4302 593.2 66.1767C583.285 74.5518 575.563 82.0907 570.318 87.5389C567.695 90.2631 565.691 92.465 564.341 93.9879C563.666 94.7494 563.154 95.3411 562.81 95.7436C562.638 95.9448 562.508 96.0987 562.421 96.2028C562.377 96.2549 562.344 96.2945 562.322 96.3214C562.311 96.3348 562.302 96.3451 562.297 96.3521C562.294 96.3556 562.291 96.3585 562.29 96.3602C562.288 96.3623 562.287 96.3635 563.059 96.9997Z" fill="white" mask="url(#path-1-inside-1)"/>
</g>
<path d="M83.5343 162.356C86.1263 163.508 87.4223 165.44 87.4223 168.152C87.4223 170.528 86.6783 172.46 85.1903 173.948C83.6303 175.508 81.4943 176.288 78.7823 176.288C77.6543 176.288 76.4783 176.18 75.2543 175.964C74.2943 175.796 73.3343 175.568 72.3743 175.28L71.3303 174.92V168.44H73.0943C73.5023 168.44 73.7423 168.644 73.8143 169.052C73.8623 169.244 73.9223 169.832 73.9943 170.816L74.1023 172.4C75.9743 173.072 77.4383 173.408 78.4943 173.408C79.5503 173.408 80.4383 173.288 81.1583 173.048C81.8543 172.832 82.4063 172.508 82.8143 172.076C83.7263 171.236 84.1823 170.096 84.1823 168.656C84.1823 167.264 83.5343 166.208 82.2383 165.488C81.6623 165.128 81.0143 164.84 80.2943 164.624C77.7263 163.832 76.2143 163.328 75.7583 163.112C75.0623 162.8 74.4023 162.368 73.7783 161.816C72.5063 160.688 71.8703 159.08 71.8703 156.992C71.8703 155.096 72.5543 153.464 73.9223 152.096C75.4103 150.656 77.3303 149.936 79.6823 149.936C82.1783 149.936 84.5903 150.416 86.9183 151.376V157.316H85.1903C84.7583 157.316 84.5063 157.112 84.4343 156.704C84.4343 156.632 84.4103 156.392 84.3623 155.984C84.3383 155.552 84.2783 154.724 84.1823 153.5C82.5023 153.044 81.0863 152.816 79.9343 152.816C78.3743 152.816 77.1743 153.2 76.3343 153.968C75.5183 154.712 75.1103 155.672 75.1103 156.848C75.1103 158.12 75.7583 159.116 77.0543 159.836C77.5823 160.172 78.2543 160.472 79.0703 160.736C81.2303 161.456 82.7423 161.996 83.6063 162.356H83.5343ZM97.5332 157.496C98.5893 157.496 99.5853 157.676 100.521 158.036C101.481 158.396 102.273 158.912 102.897 159.584C103.617 160.352 104.145 161.204 104.481 162.14C104.865 163.22 105.057 164.372 105.057 165.596C105.057 166.148 105.009 166.484 104.913 166.604C104.793 166.772 104.577 166.856 104.265 166.856H92.1693C92.1693 168.008 92.3133 169.016 92.6013 169.88C92.8413 170.624 93.2493 171.32 93.8253 171.968C94.3533 172.568 94.9533 173 95.6253 173.264C96.3453 173.552 97.1133 173.696 97.9293 173.696C98.7933 173.696 99.4893 173.612 100.017 173.444C100.521 173.276 101.025 173.072 101.529 172.832C102.057 172.568 102.417 172.376 102.609 172.256C102.921 172.064 103.161 171.968 103.329 171.968C103.593 171.968 103.797 172.076 103.941 172.292L104.841 173.48C104.505 173.912 104.025 174.32 103.401 174.704C102.681 175.16 102.093 175.46 101.637 175.604C100.917 175.844 100.269 176.012 99.6933 176.108C98.9733 176.228 98.3133 176.288 97.7133 176.288C96.4653 176.288 95.3013 176.072 94.2213 175.64C93.1893 175.232 92.2653 174.596 91.4493 173.732C90.6813 172.94 90.0813 171.92 89.6493 170.672C89.2173 169.448 89.0013 168.056 89.0013 166.496C89.0013 165.248 89.2053 164.072 89.6133 162.968C90.0213 161.84 90.5853 160.88 91.3053 160.088C92.0493 159.272 92.9493 158.636 94.0053 158.18C95.0613 157.724 96.2373 157.496 97.5332 157.496ZM97.6053 159.836C96.0453 159.836 94.8333 160.28 93.9693 161.168C93.0813 162.104 92.5293 163.352 92.3133 164.912H102.213C102.213 164.168 102.105 163.496 101.889 162.896C101.625 162.152 101.337 161.612 101.025 161.276C100.617 160.844 100.125 160.496 99.5493 160.232C98.9973 159.992 98.3373 159.872 97.5693 159.872L97.6053 159.836ZM122.992 173.696C123.16 173.72 123.292 173.804 123.388 173.948C123.484 174.068 123.532 174.212 123.532 174.38V175.928H119.788C119.572 175.928 119.32 175.88 119.032 175.784C118.864 175.736 118.744 175.544 118.672 175.208L118.312 173.48L116.872 174.668C116.464 175.004 115.984 175.292 115.432 175.532C114.904 175.772 114.376 175.952 113.848 176.072C113.368 176.192 112.72 176.252 111.904 176.252C111.232 176.252 110.584 176.144 109.96 175.928C109.216 175.664 108.676 175.376 108.34 175.064C107.908 174.68 107.548 174.176 107.26 173.552C106.996 173 106.864 172.28 106.864 171.392C106.864 170.624 107.056 169.928 107.44 169.304C107.872 168.608 108.52 168.008 109.384 167.504C110.344 166.952 111.496 166.52 112.84 166.208C114.232 165.896 115.984 165.74 118.096 165.74V164.336C118.096 162.92 117.784 161.84 117.16 161.096C116.536 160.352 115.636 159.98 114.46 159.98C113.692 159.98 113.032 160.088 112.48 160.304C111.856 160.544 111.4 160.76 111.112 160.952C110.968 161.048 110.8 161.156 110.608 161.276C110.44 161.372 110.26 161.48 110.068 161.6C109.804 161.792 109.528 161.888 109.24 161.888C108.976 161.888 108.784 161.84 108.664 161.744C108.52 161.624 108.4 161.48 108.304 161.312L107.728 160.304C108.664 159.392 109.744 158.672 110.968 158.144C112.072 157.664 113.368 157.424 114.856 157.424C115.936 157.424 116.848 157.592 117.592 157.928C118.408 158.288 119.068 158.744 119.572 159.296C120.1 159.848 120.508 160.568 120.796 161.456C121.06 162.248 121.192 163.184 121.192 164.264V173.372C122.344 173.612 122.944 173.744 122.992 173.768V173.696ZM118.024 167.792C116.464 167.792 115.216 167.876 114.28 168.044C113.368 168.212 112.528 168.464 111.76 168.8C111.088 169.112 110.608 169.472 110.32 169.88C110.032 170.312 109.888 170.768 109.888 171.248C109.888 171.632 109.972 172.04 110.14 172.472C110.284 172.832 110.5 173.12 110.788 173.336C111.076 173.552 111.388 173.708 111.724 173.804C112.132 173.924 112.528 173.984 112.912 173.984C113.392 173.984 113.896 173.924 114.424 173.804C114.904 173.684 115.348 173.528 115.756 173.336C116.116 173.168 116.512 172.904 116.944 172.544C117.184 172.352 117.544 172.016 118.024 171.536V167.792ZM131.333 161.492C132.677 158.78 134.525 157.424 136.877 157.424C137.813 157.424 138.641 157.64 139.361 158.072L138.965 160.484C138.893 160.796 138.737 160.952 138.497 160.952C138.329 160.952 138.041 160.892 137.633 160.772C137.225 160.652 136.733 160.592 136.157 160.592C134.045 160.592 132.485 161.864 131.477 164.408V173.408L133.529 173.804C133.889 173.876 134.069 174.104 134.069 174.488V176H125.681V174.488C125.681 174.104 125.861 173.876 126.221 173.804L128.273 173.408V160.412C127.121 160.196 126.437 160.052 126.221 159.98C125.861 159.908 125.681 159.68 125.681 159.296V157.784H130.109C130.445 157.784 130.673 157.844 130.793 157.964C130.913 158.084 131.009 158.312 131.081 158.648L131.297 161.492H131.333ZM155.056 173.444C153.544 175.316 151.288 176.252 148.288 176.252C145.984 176.252 144.088 175.424 142.6 173.768C141.04 172.016 140.26 169.712 140.26 166.856C140.26 164.072 140.992 161.828 142.456 160.124C143.992 158.372 146.128 157.496 148.864 157.496C150.232 157.496 152.032 157.928 154.264 158.792V163.544H152.824C152.488 163.544 152.284 163.376 152.212 163.04C152.188 162.968 152.14 162.512 152.068 161.672L151.96 160.484C151.696 160.388 151.432 160.316 151.168 160.268C150.928 160.22 150.76 160.184 150.664 160.16C150.016 160.064 149.344 160.016 148.648 160.016C148.024 160.016 147.364 160.172 146.668 160.484C146.02 160.772 145.456 161.216 144.976 161.816C144.064 163.016 143.608 164.696 143.608 166.856C143.608 169.016 144.088 170.72 145.048 171.968C145.984 173.168 147.268 173.768 148.9 173.768C150.412 173.768 151.744 173.264 152.896 172.256C153.088 172.064 153.328 171.968 153.616 171.968C153.88 171.968 154.072 172.064 154.192 172.256L155.056 173.444ZM162.872 160.232C164.624 158.408 166.568 157.496 168.704 157.496C170.648 157.496 172.16 158.12 173.24 159.368C174.296 160.616 174.824 162.296 174.824 164.408V173.372C175.976 173.588 176.66 173.732 176.876 173.804C177.236 173.876 177.416 174.104 177.416 174.488V176H171.62V164.408C171.62 161.504 170.336 160.052 167.768 160.052C166.016 160.052 164.384 160.904 162.872 162.608V173.408L163.304 173.48L164.888 173.804C165.272 173.876 165.464 174.104 165.464 174.488V176H157.04V174.488C157.04 174.104 157.232 173.876 157.616 173.804L159.632 173.408V152.132C158.264 151.916 157.472 151.772 157.256 151.7C156.872 151.628 156.68 151.4 156.68 151.016V149.504H162.872V160.232ZM201.243 150.728C204.795 151.88 206.571 154.376 206.571 158.216C206.571 160.688 205.755 162.632 204.123 164.048C202.371 165.584 199.995 166.352 196.995 166.352H193.323V173.372C193.515 173.444 194.211 173.588 195.411 173.804C195.747 173.876 195.915 174.104 195.915 174.488V176H187.275V174.488C187.275 174.104 187.455 173.876 187.815 173.804L189.867 173.408V152.852C188.715 152.636 188.031 152.492 187.815 152.42C187.455 152.348 187.275 152.12 187.275 151.736V150.224H196.995C198.603 150.224 200.019 150.404 201.243 150.764V150.728ZM203.079 158.144C203.079 156.536 202.575 155.264 201.567 154.328C200.583 153.416 199.059 152.96 196.995 152.96H193.323V163.544H196.995C198.939 163.544 200.439 163.064 201.495 162.104C202.575 161.12 203.115 159.812 203.115 158.18L203.079 158.144ZM216.32 173.768C216.704 173.84 216.896 174.068 216.896 174.452V176H208.472V174.452C208.472 174.068 208.664 173.84 209.048 173.768L211.064 173.372V152.096C209.96 151.88 209.288 151.736 209.048 151.664C208.664 151.592 208.472 151.376 208.472 151.016V149.468H214.304V173.336C215.408 173.552 216.08 173.696 216.32 173.768ZM234.754 173.696C234.922 173.72 235.054 173.804 235.15 173.948C235.246 174.068 235.294 174.212 235.294 174.38V175.928H231.55C231.334 175.928 231.082 175.88 230.794 175.784C230.626 175.736 230.506 175.544 230.434 175.208L230.074 173.48L228.634 174.668C228.226 175.004 227.746 175.292 227.194 175.532C226.666 175.772 226.138 175.952 225.61 176.072C225.13 176.192 224.482 176.252 223.666 176.252C222.994 176.252 222.346 176.144 221.722 175.928C220.978 175.664 220.438 175.376 220.102 175.064C219.67 174.68 219.31 174.176 219.022 173.552C218.758 173 218.626 172.28 218.626 171.392C218.626 170.624 218.818 169.928 219.202 169.304C219.634 168.608 220.282 168.008 221.146 167.504C222.106 166.952 223.258 166.52 224.602 166.208C225.994 165.896 227.746 165.74 229.858 165.74V164.336C229.858 162.92 229.546 161.84 228.922 161.096C228.298 160.352 227.398 159.98 226.222 159.98C225.454 159.98 224.794 160.088 224.242 160.304C223.618 160.544 223.162 160.76 222.874 160.952C222.73 161.048 222.562 161.156 222.37 161.276C222.202 161.372 222.022 161.48 221.83 161.6C221.566 161.792 221.29 161.888 221.002 161.888C220.738 161.888 220.546 161.84 220.426 161.744C220.282 161.624 220.162 161.48 220.066 161.312L219.49 160.304C220.426 159.392 221.506 158.672 222.73 158.144C223.834 157.664 225.13 157.424 226.618 157.424C227.698 157.424 228.61 157.592 229.354 157.928C230.17 158.288 230.83 158.744 231.334 159.296C231.862 159.848 232.27 160.568 232.558 161.456C232.822 162.248 232.954 163.184 232.954 164.264V173.372C234.106 173.612 234.706 173.744 234.754 173.768V173.696ZM229.786 167.792C228.226 167.792 226.978 167.876 226.042 168.044C225.13 168.212 224.29 168.464 223.522 168.8C222.85 169.112 222.37 169.472 222.082 169.88C221.794 170.312 221.65 170.768 221.65 171.248C221.65 171.632 221.734 172.04 221.902 172.472C222.046 172.832 222.262 173.12 222.55 173.336C222.838 173.552 223.15 173.708 223.486 173.804C223.894 173.924 224.29 173.984 224.674 173.984C225.154 173.984 225.658 173.924 226.186 173.804C226.666 173.684 227.11 173.528 227.518 173.336C227.878 173.168 228.274 172.904 228.706 172.544C228.946 172.352 229.306 172.016 229.786 171.536V167.792ZM251.771 173.444C250.259 175.316 248.003 176.252 245.003 176.252C242.699 176.252 240.803 175.424 239.315 173.768C237.755 172.016 236.975 169.712 236.975 166.856C236.975 164.072 237.707 161.828 239.171 160.124C240.707 158.372 242.843 157.496 245.579 157.496C246.947 157.496 248.747 157.928 250.979 158.792V163.544H249.539C249.203 163.544 248.999 163.376 248.927 163.04C248.903 162.968 248.855 162.512 248.783 161.672L248.675 160.484C248.411 160.388 248.147 160.316 247.883 160.268C247.643 160.22 247.475 160.184 247.379 160.16C246.731 160.064 246.059 160.016 245.363 160.016C244.739 160.016 244.079 160.172 243.383 160.484C242.735 160.772 242.171 161.216 241.691 161.816C240.779 163.016 240.323 164.696 240.323 166.856C240.323 169.016 240.803 170.72 241.763 171.968C242.699 173.168 243.983 173.768 245.615 173.768C247.127 173.768 248.459 173.264 249.611 172.256C249.803 172.064 250.043 171.968 250.331 171.968C250.595 171.968 250.787 172.064 250.907 172.256L251.771 173.444ZM262.697 157.496C263.753 157.496 264.749 157.676 265.685 158.036C266.645 158.396 267.437 158.912 268.061 159.584C268.781 160.352 269.309 161.204 269.645 162.14C270.029 163.22 270.221 164.372 270.221 165.596C270.221 166.148 270.173 166.484 270.077 166.604C269.957 166.772 269.741 166.856 269.429 166.856H257.333C257.333 168.008 257.477 169.016 257.765 169.88C258.005 170.624 258.413 171.32 258.989 171.968C259.517 172.568 260.117 173 260.789 173.264C261.509 173.552 262.277 173.696 263.093 173.696C263.957 173.696 264.653 173.612 265.181 173.444C265.685 173.276 266.189 173.072 266.693 172.832C267.221 172.568 267.581 172.376 267.773 172.256C268.085 172.064 268.325 171.968 268.493 171.968C268.757 171.968 268.961 172.076 269.105 172.292L270.005 173.48C269.669 173.912 269.189 174.32 268.565 174.704C267.845 175.16 267.257 175.46 266.801 175.604C266.081 175.844 265.433 176.012 264.857 176.108C264.137 176.228 263.477 176.288 262.877 176.288C261.629 176.288 260.465 176.072 259.385 175.64C258.353 175.232 257.429 174.596 256.613 173.732C255.845 172.94 255.245 171.92 254.813 170.672C254.381 169.448 254.165 168.056 254.165 166.496C254.165 165.248 254.369 164.072 254.777 162.968C255.185 161.84 255.749 160.88 256.469 160.088C257.213 159.272 258.113 158.636 259.169 158.18C260.225 157.724 261.401 157.496 262.697 157.496ZM262.769 159.836C261.209 159.836 259.997 160.28 259.133 161.168C258.245 162.104 257.693 163.352 257.477 164.912H267.377C267.377 164.168 267.269 163.496 267.053 162.896C266.789 162.152 266.501 161.612 266.189 161.276C265.781 160.844 265.289 160.496 264.713 160.232C264.161 159.992 263.501 159.872 262.733 159.872L262.769 159.836ZM279.48 157.496C280.728 157.496 282.312 157.82 284.232 158.468V163.148H282.828C282.492 163.148 282.288 162.98 282.216 162.644L282 160.268C280.872 160.004 279.936 159.872 279.192 159.872H279.156C278.172 159.872 277.344 160.136 276.672 160.664C276.024 161.168 275.7 161.72 275.7 162.32C275.7 162.944 275.844 163.4 276.132 163.688C276.612 164.24 277.308 164.66 278.22 164.948L279.3 165.272C279.492 165.32 279.876 165.44 280.452 165.632L282.18 166.28C282.66 166.448 283.164 166.76 283.692 167.216C284.676 167.984 285.168 169.04 285.168 170.384C285.168 172.136 284.58 173.528 283.404 174.56C282.132 175.688 280.524 176.252 278.58 176.252C276.588 176.252 274.62 175.928 272.676 175.28V170.528H273.972C274.26 170.528 274.44 170.672 274.512 170.96L274.728 173.264C275.688 173.744 276.924 173.984 278.436 173.984C279.588 173.984 280.524 173.684 281.244 173.084C281.868 172.532 282.18 171.92 282.18 171.248C282.18 170.552 282.036 170.048 281.748 169.736C281.412 169.352 281.052 169.064 280.668 168.872C280.14 168.608 279.636 168.416 279.156 168.296C277.38 167.72 276.264 167.336 275.808 167.144C275.232 166.88 274.692 166.544 274.188 166.136C273.18 165.296 272.676 164.168 272.676 162.752C272.676 161.312 273.252 160.088 274.404 159.08C275.604 158.024 277.296 157.496 279.48 157.496Z" fill="#E8E8E8"/>
<path fill-rule="evenodd" clip-rule="evenodd" d="M177 35.9998C203.51 35.9998 225 57.4902 225 83.9998C225 110.51 203.51 132 177 132C150.49 132 129 110.51 129 83.9998C129 57.4902 150.49 35.9998 177 35.9998Z" fill="#333333"/>
<path fill-rule="evenodd" clip-rule="evenodd" d="M205.266 109.812L202.312 112.766L186 96.4529C185.062 97.2968 184.031 98.0483 182.906 98.7031C181.781 99.3601 180.608 99.9224 179.391 100.391C178.171 100.861 176.881 101.212 175.523 101.445C174.163 101.68 172.827 101.797 171.516 101.797C168.327 101.797 165.35 101.188 162.586 99.9685C159.82 98.7514 157.405 97.11 155.344 95.0467C153.28 92.9856 151.663 90.571 150.492 87.8046C149.319 85.0404 148.734 82.1093 148.734 79.0155C148.734 75.8295 149.319 72.8521 150.492 70.0859C151.663 67.3218 153.28 64.9069 155.344 62.8436C157.405 60.7826 159.82 59.1653 162.586 57.992C165.35 56.821 168.327 56.2342 171.516 56.2342C174.609 56.2342 177.538 56.821 180.305 57.992C183.069 59.1653 185.484 60.7826 187.547 62.8436C189.608 64.9069 191.249 67.3218 192.469 70.0859C193.686 72.8521 194.297 75.8295 194.297 79.0155C194.297 80.3293 194.178 81.6653 193.945 83.0232C193.71 84.3834 193.359 85.6733 192.891 86.8904C192.42 88.1101 191.858 89.2811 191.203 90.4061C190.546 91.531 189.797 92.5638 188.953 93.4999L205.266 109.812ZM151.125 79.0155C151.125 81.828 151.639 84.4537 152.672 86.8904C153.702 89.3295 155.155 91.485 157.031 93.3593C158.905 95.2358 161.085 96.7123 163.57 97.7889C166.053 98.8677 168.703 99.4062 171.516 99.4062C174.328 99.4062 176.952 98.8677 179.391 97.7889C181.827 96.7123 183.983 95.2358 185.859 93.3593C187.734 91.485 189.21 89.3295 190.289 86.8904C191.366 84.4537 191.906 81.828 191.906 79.0155C191.906 76.203 191.366 73.5552 190.289 71.0701C189.21 68.5872 187.734 66.4076 185.859 64.5312C183.983 62.6568 181.827 61.2044 179.391 60.1716C176.952 59.1412 174.328 58.6248 171.516 58.6248C168.703 58.6248 166.053 59.1412 163.57 60.1716C161.085 61.2044 158.905 62.6568 157.031 64.5312C155.155 66.4076 153.702 68.5872 152.672 71.0701C151.639 73.5552 151.125 76.203 151.125 79.0155Z" fill="#5474FD"/>
<g clip-path="url(#clip0)">
<path d="M470.443 162.356C473.035 163.508 474.331 165.44 474.331 168.152C474.331 170.528 473.587 172.46 472.099 173.948C470.539 175.508 468.403 176.288 465.691 176.288C464.563 176.288 463.387 176.18 462.163 175.964C461.203 175.796 460.243 175.568 459.283 175.28L458.239 174.92V168.44H460.003C460.411 168.44 460.651 168.644 460.723 169.052C460.771 169.244 460.831 169.832 460.903 170.816L461.011 172.4C462.883 173.072 464.347 173.408 465.403 173.408C466.459 173.408 467.347 173.288 468.067 173.048C468.763 172.832 469.315 172.508 469.723 172.076C470.635 171.236 471.091 170.096 471.091 168.656C471.091 167.264 470.443 166.208 469.147 165.488C468.571 165.128 467.923 164.84 467.203 164.624C464.635 163.832 463.123 163.328 462.667 163.112C461.971 162.8 461.311 162.368 460.687 161.816C459.415 160.688 458.779 159.08 458.779 156.992C458.779 155.096 459.463 153.464 460.831 152.096C462.319 150.656 464.239 149.936 466.591 149.936C469.087 149.936 471.499 150.416 473.827 151.376V157.316H472.099C471.667 157.316 471.415 157.112 471.343 156.704C471.343 156.632 471.319 156.392 471.271 155.984C471.247 155.552 471.187 154.724 471.091 153.5C469.411 153.044 467.995 152.816 466.843 152.816C465.283 152.816 464.083 153.2 463.243 153.968C462.427 154.712 462.019 155.672 462.019 156.848C462.019 158.12 462.667 159.116 463.963 159.836C464.491 160.172 465.163 160.472 465.979 160.736C468.139 161.456 469.651 161.996 470.515 162.356H470.443ZM484.441 157.496C485.497 157.496 486.493 157.676 487.429 158.036C488.389 158.396 489.181 158.912 489.805 159.584C490.525 160.352 491.053 161.204 491.389 162.14C491.773 163.22 491.965 164.372 491.965 165.596C491.965 166.148 491.917 166.484 491.821 166.604C491.701 166.772 491.485 166.856 491.173 166.856H479.077C479.077 168.008 479.221 169.016 479.509 169.88C479.749 170.624 480.157 171.32 480.733 171.968C481.261 172.568 481.861 173 482.533 173.264C483.253 173.552 484.021 173.696 484.837 173.696C485.701 173.696 486.397 173.612 486.925 173.444C487.429 173.276 487.933 173.072 488.437 172.832C488.965 172.568 489.325 172.376 489.517 172.256C489.829 172.064 490.069 171.968 490.237 171.968C490.501 171.968 490.705 172.076 490.849 172.292L491.749 173.48C491.413 173.912 490.933 174.32 490.309 174.704C489.589 175.16 489.001 175.46 488.545 175.604C487.825 175.844 487.177 176.012 486.601 176.108C485.881 176.228 485.221 176.288 484.621 176.288C483.373 176.288 482.209 176.072 481.129 175.64C480.097 175.232 479.173 174.596 478.357 173.732C477.589 172.94 476.989 171.92 476.557 170.672C476.125 169.448 475.909 168.056 475.909 166.496C475.909 165.248 476.113 164.072 476.521 162.968C476.929 161.84 477.493 160.88 478.213 160.088C478.957 159.272 479.857 158.636 480.913 158.18C481.969 157.724 483.145 157.496 484.441 157.496ZM484.513 159.836C482.953 159.836 481.741 160.28 480.877 161.168C479.989 162.104 479.437 163.352 479.221 164.912H489.121C489.121 164.168 489.013 163.496 488.797 162.896C488.533 162.152 488.245 161.612 487.933 161.276C487.525 160.844 487.033 160.496 486.457 160.232C485.905 159.992 485.245 159.872 484.477 159.872L484.513 159.836ZM501.908 173.768C502.292 173.84 502.484 174.068 502.484 174.452V176H494.06V174.452C494.06 174.068 494.252 173.84 494.636 173.768L496.652 173.372V152.096C495.548 151.88 494.876 151.736 494.636 151.664C494.252 151.592 494.06 151.376 494.06 151.016V149.468H499.892V173.336C500.996 173.552 501.668 173.696 501.908 173.768ZM512.602 157.496C513.658 157.496 514.654 157.676 515.59 158.036C516.55 158.396 517.342 158.912 517.966 159.584C518.686 160.352 519.214 161.204 519.55 162.14C519.934 163.22 520.126 164.372 520.126 165.596C520.126 166.148 520.078 166.484 519.982 166.604C519.862 166.772 519.646 166.856 519.334 166.856H507.238C507.238 168.008 507.382 169.016 507.67 169.88C507.91 170.624 508.318 171.32 508.894 171.968C509.422 172.568 510.022 173 510.694 173.264C511.414 173.552 512.182 173.696 512.998 173.696C513.862 173.696 514.558 173.612 515.086 173.444C515.59 173.276 516.094 173.072 516.598 172.832C517.126 172.568 517.486 172.376 517.678 172.256C517.99 172.064 518.23 171.968 518.398 171.968C518.662 171.968 518.866 172.076 519.01 172.292L519.91 173.48C519.574 173.912 519.094 174.32 518.47 174.704C517.75 175.16 517.162 175.46 516.706 175.604C515.986 175.844 515.338 176.012 514.762 176.108C514.042 176.228 513.382 176.288 512.782 176.288C511.534 176.288 510.37 176.072 509.29 175.64C508.258 175.232 507.334 174.596 506.518 173.732C505.75 172.94 505.15 171.92 504.718 170.672C504.286 169.448 504.07 168.056 504.07 166.496C504.07 165.248 504.274 164.072 504.682 162.968C505.09 161.84 505.654 160.88 506.374 160.088C507.118 159.272 508.018 158.636 509.074 158.18C510.13 157.724 511.306 157.496 512.602 157.496ZM512.674 159.836C511.114 159.836 509.902 160.28 509.038 161.168C508.15 162.104 507.598 163.352 507.382 164.912H517.282C517.282 164.168 517.174 163.496 516.958 162.896C516.694 162.152 516.406 161.612 516.094 161.276C515.686 160.844 515.194 160.496 514.618 160.232C514.066 159.992 513.406 159.872 512.638 159.872L512.674 159.836ZM537.57 173.444C536.058 175.316 533.802 176.252 530.802 176.252C528.498 176.252 526.602 175.424 525.114 173.768C523.554 172.016 522.774 169.712 522.774 166.856C522.774 164.072 523.506 161.828 524.97 160.124C526.506 158.372 528.642 157.496 531.378 157.496C532.746 157.496 534.546 157.928 536.778 158.792V163.544H535.338C535.002 163.544 534.798 163.376 534.726 163.04C534.702 162.968 534.654 162.512 534.582 161.672L534.474 160.484C534.21 160.388 533.946 160.316 533.682 160.268C533.442 160.22 533.274 160.184 533.178 160.16C532.53 160.064 531.858 160.016 531.162 160.016C530.538 160.016 529.878 160.172 529.182 160.484C528.534 160.772 527.97 161.216 527.49 161.816C526.578 163.016 526.122 164.696 526.122 166.856C526.122 169.016 526.602 170.72 527.562 171.968C528.498 173.168 529.782 173.768 531.414 173.768C532.926 173.768 534.258 173.264 535.41 172.256C535.602 172.064 535.842 171.968 536.13 171.968C536.394 171.968 536.586 172.064 536.706 172.256L537.57 173.444ZM546.142 176.288C544.75 176.288 543.646 175.88 542.83 175.064C542.062 174.296 541.678 173.144 541.678 171.608V160.448H539.482C539.266 160.448 539.098 160.4 538.978 160.304C538.858 160.208 538.798 160.028 538.798 159.764V158.504L541.786 158.108L542.506 152.456C542.506 152.264 542.578 152.12 542.722 152.024C542.842 151.928 543.01 151.88 543.226 151.88H544.846V158.144H550.066V160.484H544.846V171.428C544.846 172.22 545.026 172.796 545.386 173.156C545.746 173.516 546.238 173.696 546.862 173.696C547.126 173.696 547.426 173.648 547.762 173.552C547.978 173.48 548.194 173.384 548.41 173.264C548.482 173.216 548.554 173.168 548.626 173.12C548.698 173.072 548.77 173.024 548.842 172.976C549.034 172.88 549.154 172.832 549.202 172.832C549.37 172.832 549.514 172.928 549.634 173.12L550.57 174.632C549.922 175.184 549.25 175.592 548.554 175.856C547.762 176.144 546.958 176.288 546.142 176.288ZM574.335 150.728C577.887 151.88 579.663 154.376 579.663 158.216C579.663 160.688 578.847 162.632 577.215 164.048C575.463 165.584 573.087 166.352 570.087 166.352H566.415V173.372C566.607 173.444 567.303 173.588 568.503 173.804C568.839 173.876 569.007 174.104 569.007 174.488V176H560.367V174.488C560.367 174.104 560.547 173.876 560.907 173.804L562.959 173.408V152.852C561.807 152.636 561.123 152.492 560.907 152.42C560.547 152.348 560.367 152.12 560.367 151.736V150.224H570.087C571.695 150.224 573.111 150.404 574.335 150.764V150.728ZM576.171 158.144C576.171 156.536 575.667 155.264 574.659 154.328C573.675 153.416 572.151 152.96 570.087 152.96H566.415V163.544H570.087C572.031 163.544 573.531 163.064 574.587 162.104C575.667 161.12 576.207 159.812 576.207 158.18L576.171 158.144ZM589.412 173.768C589.796 173.84 589.988 174.068 589.988 174.452V176H581.564V174.452C581.564 174.068 581.756 173.84 582.14 173.768L584.156 173.372V152.096C583.052 151.88 582.38 151.736 582.14 151.664C581.756 151.592 581.564 151.376 581.564 151.016V149.468H587.396V173.336C588.5 173.552 589.172 173.696 589.412 173.768ZM607.846 173.696C608.014 173.72 608.146 173.804 608.242 173.948C608.338 174.068 608.386 174.212 608.386 174.38V175.928H604.642C604.426 175.928 604.174 175.88 603.886 175.784C603.718 175.736 603.598 175.544 603.526 175.208L603.166 173.48L601.726 174.668C601.318 175.004 600.838 175.292 600.286 175.532C599.758 175.772 599.23 175.952 598.702 176.072C598.222 176.192 597.574 176.252 596.758 176.252C596.086 176.252 595.438 176.144 594.814 175.928C594.07 175.664 593.53 175.376 593.194 175.064C592.762 174.68 592.402 174.176 592.114 173.552C591.85 173 591.718 172.28 591.718 171.392C591.718 170.624 591.91 169.928 592.294 169.304C592.726 168.608 593.374 168.008 594.238 167.504C595.198 166.952 596.35 166.52 597.694 166.208C599.086 165.896 600.838 165.74 602.95 165.74V164.336C602.95 162.92 602.638 161.84 602.014 161.096C601.39 160.352 600.49 159.98 599.314 159.98C598.546 159.98 597.886 160.088 597.334 160.304C596.71 160.544 596.254 160.76 595.966 160.952C595.822 161.048 595.654 161.156 595.462 161.276C595.294 161.372 595.114 161.48 594.922 161.6C594.658 161.792 594.382 161.888 594.094 161.888C593.83 161.888 593.638 161.84 593.518 161.744C593.374 161.624 593.254 161.48 593.158 161.312L592.582 160.304C593.518 159.392 594.598 158.672 595.822 158.144C596.926 157.664 598.222 157.424 599.71 157.424C600.79 157.424 601.702 157.592 602.446 157.928C603.262 158.288 603.922 158.744 604.426 159.296C604.954 159.848 605.362 160.568 605.65 161.456C605.914 162.248 606.046 163.184 606.046 164.264V173.372C607.198 173.612 607.798 173.744 607.846 173.768V173.696ZM602.878 167.792C601.318 167.792 600.07 167.876 599.134 168.044C598.222 168.212 597.382 168.464 596.614 168.8C595.942 169.112 595.462 169.472 595.174 169.88C594.886 170.312 594.742 170.768 594.742 171.248C594.742 171.632 594.826 172.04 594.994 172.472C595.138 172.832 595.354 173.12 595.642 173.336C595.93 173.552 596.242 173.708 596.578 173.804C596.986 173.924 597.382 173.984 597.766 173.984C598.246 173.984 598.75 173.924 599.278 173.804C599.758 173.684 600.202 173.528 600.61 173.336C600.97 173.168 601.366 172.904 601.798 172.544C602.038 172.352 602.398 172.016 602.878 171.536V167.792ZM624.863 173.444C623.351 175.316 621.095 176.252 618.095 176.252C615.791 176.252 613.895 175.424 612.407 173.768C610.847 172.016 610.067 169.712 610.067 166.856C610.067 164.072 610.799 161.828 612.263 160.124C613.799 158.372 615.935 157.496 618.671 157.496C620.039 157.496 621.839 157.928 624.071 158.792V163.544H622.631C622.295 163.544 622.091 163.376 622.019 163.04C621.995 162.968 621.947 162.512 621.875 161.672L621.767 160.484C621.503 160.388 621.239 160.316 620.975 160.268C620.735 160.22 620.567 160.184 620.471 160.16C619.823 160.064 619.151 160.016 618.455 160.016C617.831 160.016 617.171 160.172 616.475 160.484C615.827 160.772 615.263 161.216 614.783 161.816C613.871 163.016 613.415 164.696 613.415 166.856C613.415 169.016 613.895 170.72 614.855 171.968C615.791 173.168 617.075 173.768 618.707 173.768C620.219 173.768 621.551 173.264 622.703 172.256C622.895 172.064 623.135 171.968 623.423 171.968C623.687 171.968 623.879 172.064 623.999 172.256L624.863 173.444ZM635.789 157.496C636.845 157.496 637.841 157.676 638.777 158.036C639.737 158.396 640.529 158.912 641.153 159.584C641.873 160.352 642.401 161.204 642.737 162.14C643.121 163.22 643.313 164.372 643.313 165.596C643.313 166.148 643.265 166.484 643.169 166.604C643.049 166.772 642.833 166.856 642.521 166.856H630.425C630.425 168.008 630.569 169.016 630.857 169.88C631.097 170.624 631.505 171.32 632.081 171.968C632.609 172.568 633.209 173 633.881 173.264C634.601 173.552 635.369 173.696 636.185 173.696C637.049 173.696 637.745 173.612 638.273 173.444C638.777 173.276 639.281 173.072 639.785 172.832C640.313 172.568 640.673 172.376 640.865 172.256C641.177 172.064 641.417 171.968 641.585 171.968C641.849 171.968 642.053 172.076 642.197 172.292L643.097 173.48C642.761 173.912 642.281 174.32 641.657 174.704C640.937 175.16 640.349 175.46 639.893 175.604C639.173 175.844 638.525 176.012 637.949 176.108C637.229 176.228 636.569 176.288 635.969 176.288C634.721 176.288 633.557 176.072 632.477 175.64C631.445 175.232 630.521 174.596 629.705 173.732C628.937 172.94 628.337 171.92 627.905 170.672C627.473 169.448 627.257 168.056 627.257 166.496C627.257 165.248 627.461 164.072 627.869 162.968C628.277 161.84 628.841 160.88 629.561 160.088C630.305 159.272 631.205 158.636 632.261 158.18C633.317 157.724 634.493 157.496 635.789 157.496ZM635.861 159.836C634.301 159.836 633.089 160.28 632.225 161.168C631.337 162.104 630.785 163.352 630.569 164.912H640.469C640.469 164.168 640.361 163.496 640.145 162.896C639.881 162.152 639.593 161.612 639.281 161.276C638.873 160.844 638.381 160.496 637.805 160.232C637.253 159.992 636.593 159.872 635.825 159.872L635.861 159.836ZM652.572 157.496C653.82 157.496 655.404 157.82 657.324 158.468V163.148H655.92C655.584 163.148 655.38 162.98 655.308 162.644L655.092 160.268C653.964 160.004 653.028 159.872 652.284 159.872H652.248C651.264 159.872 650.436 160.136 649.764 160.664C649.116 161.168 648.792 161.72 648.792 162.32C648.792 162.944 648.936 163.4 649.224 163.688C649.704 164.24 650.4 164.66 651.312 164.948L652.392 165.272C652.584 165.32 652.968 165.44 653.544 165.632L655.272 166.28C655.752 166.448 656.256 166.76 656.784 167.216C657.768 167.984 658.26 169.04 658.26 170.384C658.26 172.136 657.672 173.528 656.496 174.56C655.224 175.688 653.616 176.252 651.672 176.252C649.68 176.252 647.712 175.928 645.768 175.28V170.528H647.064C647.352 170.528 647.532 170.672 647.604 170.96L647.82 173.264C648.78 173.744 650.016 173.984 651.528 173.984C652.68 173.984 653.616 173.684 654.336 173.084C654.96 172.532 655.272 171.92 655.272 171.248C655.272 170.552 655.128 170.048 654.84 169.736C654.504 169.352 654.144 169.064 653.76 168.872C653.232 168.608 652.728 168.416 652.248 168.296C650.472 167.72 649.356 167.336 648.9 167.144C648.324 166.88 647.784 166.544 647.28 166.136C646.272 165.296 645.768 164.168 645.768 162.752C645.768 161.312 646.344 160.088 647.496 159.08C648.696 158.024 650.388 157.496 652.572 157.496Z" fill="#E8E8E8"/>
<path fill-rule="evenodd" clip-rule="evenodd" d="M557 38C583.51 38 605 59.4901 605 86C605 112.509 583.51 134 557 134C530.49 134 509 112.509 509 86C509 59.4901 530.49 38 557 38Z" fill="#333333"/>
<path fill-rule="evenodd" clip-rule="evenodd" d="M557 55.5468C561.124 55.5468 565.016 56.3202 568.672 57.867C572.328 59.414 575.514 61.5476 578.234 64.2654C580.952 66.9857 583.086 70.1717 584.633 73.8281C586.18 77.4843 586.953 81.3756 586.953 85.4999C586.953 89.6263 586.18 93.5154 584.633 97.1718C583.086 100.828 580.952 104.016 578.234 106.734C575.514 109.454 572.328 111.586 568.672 113.133C565.016 114.679 561.124 115.453 557 115.453C552.873 115.453 548.984 114.679 545.328 113.133C541.672 111.586 538.484 109.454 535.766 106.734C533.045 104.016 530.914 100.828 529.367 97.1718C527.82 93.5154 527.047 89.6263 527.047 85.4999C527.047 81.3756 527.82 77.4843 529.367 73.8281C530.914 70.1717 533.045 66.9857 535.766 64.2654C538.484 61.5476 541.672 59.414 545.328 57.867C548.984 56.3202 552.873 55.5468 557 55.5468ZM557 113.062C560.843 113.062 564.429 112.337 567.758 110.883C571.084 109.43 574.016 107.486 576.547 105.047C578.984 102.516 580.928 99.5867 582.383 96.2576C583.835 92.9309 584.562 89.345 584.562 85.4999C584.562 81.6569 583.835 78.0708 582.383 74.742C580.928 71.4153 578.984 68.4841 576.547 65.9529C574.016 63.5162 571.084 61.5718 567.758 60.1172C564.429 58.6646 560.843 57.9372 557 57.9372C553.155 57.9372 549.569 58.6646 546.242 60.1172C542.913 61.5718 539.984 63.5162 537.453 65.9529C535.014 68.4841 533.07 71.4153 531.617 74.742C530.163 78.0708 529.437 81.6569 529.437 85.4999C529.437 89.345 530.163 92.9309 531.617 96.2576C533.07 99.5867 535.014 102.516 537.453 105.047C539.984 107.486 542.913 109.43 546.242 110.883C549.569 112.337 553.155 113.062 557 113.062ZM572.047 74.8123C572.328 74.4388 572.726 74.25 573.242 74.25C573.756 74.25 574.202 74.4388 574.578 74.8123C574.859 75.188 575 75.6341 575 76.1483C575 76.6646 574.811 77.0625 574.438 77.3438L553.906 97.3123C553.812 97.5012 553.647 97.6178 553.414 97.6639C553.179 97.7122 552.968 97.7342 552.781 97.7342C552.5 97.7342 552.241 97.7122 552.008 97.6639C551.773 97.6178 551.608 97.5012 551.516 97.3123L543.5 89.2966C543.124 88.9232 542.937 88.4772 542.937 87.9609C542.937 87.4466 543.124 87.0467 543.5 86.7654C543.781 86.392 544.179 86.2031 544.695 86.2031C545.209 86.2031 545.655 86.392 546.031 86.7654L552.781 93.5154L572.047 74.8123Z" fill="#FF6363"/>
</g>
<g clip-path="url(#clip1)">
<path d="M846.754 173.752C850.546 174.496 852.442 176.464 852.442 179.656C852.442 181.984 851.602 183.796 849.922 185.092C848.242 186.364 846.058 187 843.37 187H831.67V185.416C831.67 185.056 831.85 184.84 832.21 184.768L834.262 184.336V163.888L832.21 163.456C831.85 163.384 831.67 163.168 831.67 162.808V161.224H842.506C845.314 161.224 847.522 161.752 849.13 162.808C850.762 163.864 851.578 165.496 851.578 167.704C851.578 169.264 851.182 170.536 850.39 171.52C849.598 172.504 848.386 173.248 846.754 173.752ZM842.362 172.744C844.186 172.744 845.602 172.396 846.61 171.7C847.618 170.98 848.122 169.888 848.122 168.424C848.122 166.864 847.642 165.748 846.682 165.076C845.746 164.38 844.354 164.032 842.506 164.032H837.754V172.744H842.362ZM848.986 179.584C848.986 178.096 848.482 177.004 847.474 176.308C846.49 175.612 845.11 175.264 843.334 175.264H837.754V184.228H843.37C845.266 184.252 846.67 183.868 847.582 183.076C848.518 182.26 848.986 181.096 848.986 179.584ZM862.662 168.496C863.982 168.496 865.182 168.712 866.262 169.144C867.318 169.576 868.242 170.2 869.034 171.016C869.778 171.784 870.354 172.768 870.762 173.968C871.17 175.144 871.374 176.44 871.374 177.856C871.374 179.272 871.17 180.568 870.762 181.744C870.354 182.944 869.778 183.928 869.034 184.696C868.242 185.512 867.318 186.136 866.262 186.568C865.182 187 863.982 187.216 862.662 187.216C861.342 187.216 860.142 187 859.062 186.568C858.006 186.136 857.082 185.512 856.29 184.696C855.57 183.952 854.982 182.968 854.526 181.744C854.142 180.712 853.95 179.416 853.95 177.856C853.95 176.296 854.142 175 854.526 173.968C854.982 172.744 855.57 171.76 856.29 171.016C857.082 170.2 858.006 169.576 859.062 169.144C860.142 168.712 861.342 168.496 862.662 168.496ZM862.662 184.768C864.51 184.768 865.854 184.168 866.694 182.968C867.582 181.72 868.026 180.028 868.026 177.892C868.026 175.756 867.582 174.064 866.694 172.816C865.854 171.616 864.51 171.016 862.662 171.016C861.726 171.016 860.934 171.16 860.286 171.448C859.662 171.736 859.11 172.192 858.63 172.816C858.174 173.44 857.838 174.16 857.622 174.976C857.382 175.936 857.262 176.92 857.262 177.928C857.262 178.888 857.382 179.848 857.622 180.808C857.838 181.624 858.174 182.344 858.63 182.968C859.038 183.52 859.59 183.952 860.286 184.264C861.054 184.6 861.846 184.768 862.662 184.768ZM882.596 168.496C883.916 168.496 885.116 168.712 886.196 169.144C887.252 169.576 888.176 170.2 888.968 171.016C889.712 171.784 890.288 172.768 890.696 173.968C891.104 175.144 891.308 176.44 891.308 177.856C891.308 179.272 891.104 180.568 890.696 181.744C890.288 182.944 889.712 183.928 888.968 184.696C888.176 185.512 887.252 186.136 886.196 186.568C885.116 187 883.916 187.216 882.596 187.216C881.276 187.216 880.076 187 878.996 186.568C877.94 186.136 877.016 185.512 876.224 184.696C875.504 183.952 874.916 182.968 874.46 181.744C874.076 180.712 873.884 179.416 873.884 177.856C873.884 176.296 874.076 175 874.46 173.968C874.916 172.744 875.504 171.76 876.224 171.016C877.016 170.2 877.94 169.576 878.996 169.144C880.076 168.712 881.276 168.496 882.596 168.496ZM882.596 184.768C884.444 184.768 885.788 184.168 886.628 182.968C887.516 181.72 887.96 180.028 887.96 177.892C887.96 175.756 887.516 174.064 886.628 172.816C885.788 171.616 884.444 171.016 882.596 171.016C881.66 171.016 880.868 171.16 880.22 171.448C879.596 171.736 879.044 172.192 878.564 172.816C878.108 173.44 877.772 174.16 877.556 174.976C877.316 175.936 877.196 176.92 877.196 177.928C877.196 178.888 877.316 179.848 877.556 180.808C877.772 181.624 878.108 182.344 878.564 182.968C878.972 183.52 879.524 183.952 880.22 184.264C880.988 184.6 881.78 184.768 882.596 184.768ZM911.371 184.768C911.731 184.84 911.911 185.056 911.911 185.416V187H908.527C908.071 187 907.663 186.784 907.303 186.352L901.327 178.864C901.159 178.624 900.979 178.468 900.787 178.396C900.595 178.324 900.319 178.288 899.959 178.288H899.095V184.372C899.239 184.372 899.659 184.456 900.355 184.624L901.111 184.768C901.495 184.84 901.687 185.068 901.687 185.452V187H893.263V185.452C893.263 185.068 893.443 184.84 893.803 184.768L895.855 184.372V163.096C894.703 162.88 894.019 162.736 893.803 162.664C893.443 162.592 893.263 162.376 893.263 162.016V160.468H899.095V176.056H899.887C900.391 176.056 900.775 175.888 901.039 175.552L905.143 171.16C905.071 171.16 904.999 171.148 904.927 171.124C904.855 171.1 904.783 171.088 904.711 171.088L904.135 170.98C903.751 170.908 903.559 170.68 903.559 170.296V168.784H911.191V170.296C911.191 170.656 911.035 170.872 910.723 170.944L908.491 171.376L904.243 175.912C903.859 176.368 903.511 176.692 903.199 176.884C903.679 177.196 904.039 177.568 904.279 178L909.319 184.408L910.255 184.552C910.879 184.696 911.263 184.768 911.407 184.768H911.371ZM931.818 161.008C932.754 161.008 933.618 161.152 934.41 161.44C935.154 161.704 935.838 162.112 936.462 162.664C937.014 163.144 937.458 163.72 937.794 164.392C938.106 164.992 938.298 165.688 938.37 166.48L936.39 166.876L936.21 166.912C936.114 166.912 935.97 166.864 935.778 166.768C935.658 166.72 935.562 166.576 935.49 166.336C935.418 166.048 935.286 165.712 935.094 165.328C934.95 165.04 934.722 164.74 934.41 164.428C934.146 164.164 933.786 163.936 933.33 163.744C932.874 163.552 932.394 163.456 931.89 163.456C931.242 163.456 930.69 163.552 930.234 163.744C929.778 163.936 929.37 164.212 929.01 164.572C928.65 164.932 928.386 165.328 928.218 165.76C928.026 166.264 927.93 166.768 927.93 167.272C927.93 167.68 927.99 168.088 928.11 168.496C928.23 168.928 928.386 169.312 928.578 169.648C928.746 169.96 929.01 170.356 929.37 170.836C929.658 171.22 930.042 171.652 930.522 172.132L937.938 179.656C938.346 178.912 938.706 178.072 939.018 177.136C939.33 176.2 939.522 175.312 939.594 174.472C939.594 174.28 939.666 174.112 939.81 173.968C939.954 173.824 940.122 173.752 940.314 173.752H942.258C942.258 175.12 942.042 176.476 941.61 177.82C941.154 179.236 940.554 180.484 939.81 181.564L945.21 187.036H942.114C941.754 187.036 941.466 187 941.25 186.928C941.106 186.88 940.866 186.688 940.53 186.352L937.938 183.76C936.762 184.864 935.466 185.728 934.05 186.352C932.634 186.976 931.014 187.288 929.19 187.288C928.23 187.288 927.294 187.132 926.382 186.82C925.446 186.484 924.618 186.016 923.898 185.416C923.178 184.816 922.602 184.072 922.17 183.184C921.738 182.32 921.522 181.312 921.522 180.16C921.522 179.32 921.666 178.528 921.954 177.784C922.266 176.992 922.65 176.296 923.106 175.696C923.586 175.072 924.186 174.496 924.906 173.968C925.578 173.488 926.322 173.056 927.138 172.672C926.466 171.808 925.938 170.908 925.554 169.972C925.194 169.108 925.014 168.208 925.014 167.272C925.014 166.36 925.17 165.52 925.482 164.752C925.77 164.056 926.238 163.384 926.886 162.736C927.438 162.184 928.17 161.74 929.082 161.404C929.922 161.092 930.882 160.936 931.962 160.936L931.818 161.008ZM924.726 179.908C924.726 180.7 924.87 181.384 925.158 181.96C925.446 182.56 925.818 183.064 926.274 183.472C926.682 183.832 927.222 184.144 927.894 184.408C928.47 184.624 929.082 184.732 929.73 184.732C931.05 184.732 932.25 184.48 933.33 183.976C934.41 183.472 935.346 182.824 936.138 182.032L928.542 174.364C927.294 175.012 926.334 175.828 925.662 176.812C925.014 177.748 924.69 178.792 924.69 179.944L924.726 179.908ZM973.328 167.452H971.6C971.168 167.452 970.916 167.248 970.844 166.84L970.592 164.068H960.944V172.636H970.448V175.372H960.944V184.192H970.592L970.808 181.6C970.88 181.216 971.144 181.024 971.6 181.024H973.328V187H954.824V185.488C954.824 185.104 955.004 184.876 955.364 184.804L957.416 184.408V163.852C956.264 163.636 955.58 163.492 955.364 163.42C955.004 163.348 954.824 163.12 954.824 162.736V161.224H973.328V167.452ZM981.569 171.376C983.369 169.432 985.385 168.46 987.617 168.46C989.585 168.46 991.097 169.096 992.153 170.368C993.185 171.616 993.701 173.284 993.701 175.372V184.336C994.853 184.552 995.537 184.696 995.753 184.768C996.137 184.84 996.329 185.068 996.329 185.452V187H990.497V175.408C990.497 172.48 989.225 171.016 986.681 171.016C984.881 171.016 983.225 171.868 981.713 173.572V184.372C981.809 184.372 982.505 184.516 983.801 184.804C984.161 184.876 984.341 185.104 984.341 185.488V187H975.953V185.488C975.953 185.104 976.121 184.876 976.457 184.804L978.545 184.408V171.412C977.345 171.196 976.649 171.052 976.457 170.98C976.121 170.908 975.953 170.68 975.953 170.296V168.784H980.417C980.849 168.784 981.137 169 981.281 169.432L981.569 171.412V171.376ZM1005.15 162.16C1005.27 162.4 1005.33 162.7 1005.33 163.06C1005.33 163.396 1005.27 163.684 1005.15 163.924C1005 164.212 1004.84 164.452 1004.64 164.644C1004.45 164.836 1004.21 165.004 1003.92 165.148C1003.68 165.268 1003.4 165.328 1003.06 165.328C1002.72 165.328 1002.44 165.268 1002.2 165.148C1001.91 165.004 1001.67 164.836 1001.48 164.644C1001.28 164.452 1001.12 164.212 1000.97 163.924C1000.85 163.684 1000.79 163.396 1000.79 163.06C1000.79 162.7 1000.85 162.4 1000.97 162.16C1001.14 161.824 1001.31 161.572 1001.48 161.404C1001.67 161.212 1001.91 161.044 1002.2 160.9C1002.44 160.78 1002.72 160.72 1003.06 160.72C1003.4 160.72 1003.68 160.78 1003.92 160.9C1004.21 161.044 1004.45 161.212 1004.64 161.404C1004.81 161.572 1004.98 161.824 1005.15 162.16ZM1001.8 193.156C1001.2 193.42 1000.47 193.552 999.605 193.552C998.837 193.552 998.093 193.432 997.373 193.192L997.517 191.464C997.565 191.224 997.757 191.104 998.093 191.104H998.813C999.749 191.104 1000.41 190.888 1000.79 190.456C1001.2 190 1001.4 189.304 1001.4 188.368V171.412C1001.26 171.388 1001.03 171.352 1000.72 171.304C1000.41 171.232 999.941 171.136 999.317 171.016C998.981 170.944 998.813 170.716 998.813 170.332V168.784H1004.57V188.368C1004.57 190.792 1003.65 192.4 1001.8 193.192V193.156ZM1016.01 168.496C1017.33 168.496 1018.53 168.712 1019.61 169.144C1020.67 169.576 1021.59 170.2 1022.39 171.016C1023.13 171.784 1023.71 172.768 1024.11 173.968C1024.52 175.144 1024.73 176.44 1024.73 177.856C1024.73 179.272 1024.52 180.568 1024.11 181.744C1023.71 182.944 1023.13 183.928 1022.39 184.696C1021.59 185.512 1020.67 186.136 1019.61 186.568C1018.53 187 1017.33 187.216 1016.01 187.216C1014.69 187.216 1013.49 187 1012.41 186.568C1011.36 186.136 1010.43 185.512 1009.64 184.696C1008.92 183.952 1008.33 182.968 1007.88 181.744C1007.49 180.712 1007.3 179.416 1007.3 177.856C1007.3 176.296 1007.49 175 1007.88 173.968C1008.33 172.744 1008.92 171.76 1009.64 171.016C1010.43 170.2 1011.36 169.576 1012.41 169.144C1013.49 168.712 1014.69 168.496 1016.01 168.496ZM1016.01 184.768C1017.86 184.768 1019.21 184.168 1020.05 182.968C1020.93 181.72 1021.38 180.028 1021.38 177.892C1021.38 175.756 1020.93 174.064 1020.05 172.816C1019.21 171.616 1017.86 171.016 1016.01 171.016C1015.08 171.016 1014.29 171.16 1013.64 171.448C1013.01 171.736 1012.46 172.192 1011.98 172.816C1011.53 173.44 1011.19 174.16 1010.97 174.976C1010.73 175.936 1010.61 176.92 1010.61 177.928C1010.61 178.888 1010.73 179.848 1010.97 180.808C1011.19 181.624 1011.53 182.344 1011.98 182.968C1012.39 183.52 1012.94 183.952 1013.64 184.264C1014.41 184.6 1015.2 184.768 1016.01 184.768ZM1045.81 170.296C1045.81 170.656 1045.63 170.872 1045.27 170.944C1045.17 170.944 1045.03 170.968 1044.84 171.016C1044.67 171.064 1044.49 171.112 1044.3 171.16L1043.4 171.34L1034.36 192.364C1034.26 192.604 1034.11 192.796 1033.89 192.94C1033.7 193.084 1033.47 193.156 1033.21 193.156H1030.83L1034.14 185.92L1027.74 171.304C1027.02 171.184 1026.48 171.064 1026.12 170.944C1025.76 170.872 1025.58 170.656 1025.58 170.296V168.748H1033.75V170.296C1033.75 170.656 1033.57 170.872 1033.21 170.944C1032.97 171.016 1032.3 171.16 1031.19 171.376L1035.26 180.88C1035.38 181.144 1035.48 181.456 1035.55 181.816C1035.64 182.176 1035.7 182.416 1035.73 182.536C1035.9 181.96 1036.09 181.408 1036.3 180.88L1040.23 171.376C1040.23 171.376 1039.57 171.244 1038.25 170.98C1037.91 170.908 1037.74 170.68 1037.74 170.296V168.784H1044.51L1045.81 168.748V170.296Z" fill="#E8E8E8"/>
<path fill-rule="evenodd" clip-rule="evenodd" d="M937 38C963.51 38 985 59.4901 985 86C985 112.509 963.51 134 937 134C910.49 134 889 112.509 889 86C889 59.4901 910.49 38 937 38Z" fill="#333333"/>
<path fill-rule="evenodd" clip-rule="evenodd" d="M967.586 84.6561C967.586 85.3131 967.491 85.9218 967.305 86.4841C967.116 87.0467 966.834 87.563 966.461 88.0311C966.085 88.5014 965.663 88.8748 965.195 89.1561C964.725 89.4374 964.211 89.6724 963.648 89.8592C963.93 90.3294 964.163 90.8218 964.351 91.3357C964.538 91.8523 964.633 92.4388 964.633 93.0936C964.633 93.6562 964.538 94.2185 964.351 94.7812C964.163 95.3438 963.93 95.86 963.648 96.3279C963.273 96.7036 962.851 97.0552 962.383 97.3826C961.913 97.7123 961.444 97.9694 960.977 98.1562C961.258 98.6264 961.491 99.1404 961.68 99.703C961.866 100.266 961.961 100.828 961.961 101.391C961.961 102.047 961.866 102.634 961.68 103.148C961.491 103.665 961.258 104.157 960.977 104.625C960.601 105.095 960.179 105.493 959.711 105.82C959.241 106.15 958.726 106.361 958.164 106.453C958.538 106.923 958.819 107.416 959.008 107.929C959.195 108.446 959.289 109.033 959.289 109.687C959.289 110.344 959.148 111.001 958.867 111.656C958.586 112.313 958.21 112.876 957.742 113.344C957.18 113.814 956.569 114.187 955.914 114.469C955.257 114.75 954.554 114.89 953.805 114.89H935.242C934.585 114.89 933.836 114.798 932.992 114.609C932.148 114.423 931.256 114.141 930.32 113.766C929.382 113.484 928.444 113.133 927.508 112.711C926.57 112.289 925.631 111.891 924.695 111.515C923.57 111.047 922.467 110.58 921.391 110.109C920.312 109.641 919.538 109.406 919.07 109.406H906.273V81.9843L907.398 81.8435C912.742 81.8435 916.398 81.8435 918.367 81.8435C919.211 81.8435 919.984 81.7514 920.687 81.5623C921.391 81.3757 922.116 80.9999 922.867 80.4373C923.711 79.9694 924.671 79.3123 925.75 78.4687C926.827 77.6248 928.116 76.5943 929.617 75.3749C932.522 72.9381 934.234 69.8904 934.75 66.2342C935.264 62.5781 935.523 60.4687 935.523 59.9061C935.523 59.3435 935.664 58.8054 935.945 58.2888C936.226 57.7748 936.6 57.3749 937.07 57.0936C937.538 56.7201 938.03 56.4608 938.547 56.3202C939.061 56.1794 939.553 56.1092 940.023 56.1092C940.773 56.1092 941.522 56.2037 942.273 56.3905C943.023 56.5794 943.726 57.0015 944.383 57.6562C945.038 58.313 945.554 59.1811 945.93 60.2577C946.303 61.3366 946.492 62.767 946.492 64.5467C946.492 66.1418 946.374 67.6647 946.141 69.117C945.905 70.5717 945.6 71.9537 945.226 73.2655C944.945 74.5794 944.594 75.7748 944.172 76.8514C943.75 77.9303 943.398 78.8445 943.117 79.5937H962.242C963.086 79.5937 963.811 79.7123 964.422 79.9452C965.031 80.1802 965.617 80.5317 966.18 80.9999C966.648 81.4701 966.999 82.0085 967.234 82.617C967.467 83.2279 967.586 83.9069 967.586 84.6561ZM962.242 87.6093C962.71 87.6093 963.132 87.5388 963.508 87.3983C963.881 87.2578 964.163 87.0467 964.351 86.7654C964.633 86.4841 964.866 86.1809 965.055 85.8515C965.241 85.5242 965.336 85.1263 965.336 84.6561C965.336 83.9069 965.055 83.2498 964.492 82.6875C963.93 82.1249 963.178 81.8435 962.242 81.8435H953.805C953.805 81.938 953.805 81.938 953.805 81.8435H939.32L940.164 80.156C942.788 73.6874 944.102 68.4842 944.102 64.5467C944.102 61.4529 943.585 59.649 942.555 59.1328C941.522 58.6185 940.678 58.3593 940.023 58.3593C939.742 58.3593 939.32 58.4999 938.758 58.7811C938.195 59.0625 937.914 59.4382 937.914 59.9061C937.914 60.4687 937.866 61.4068 937.773 62.7186C937.679 64.0327 937.398 65.5311 936.93 67.2187C936.459 68.9062 935.78 70.6419 934.89 72.4218C933.999 74.2036 932.757 75.7506 931.164 77.0624C929.569 78.3763 928.233 79.477 927.156 80.367C926.077 81.259 925.069 81.9843 924.133 82.5467C923.194 83.1093 922.256 83.5311 921.32 83.8124C920.382 84.0937 919.398 84.2342 918.367 84.2342C917.616 84.2342 916.796 84.2342 915.906 84.2342C915.014 84.2342 914.1 84.2342 913.164 84.2342C912.32 84.2342 911.498 84.2342 910.703 84.2342C909.905 84.2342 909.226 84.2342 908.664 84.2342V107.016H919.07C919.725 107.016 920.593 107.226 921.672 107.648C922.748 108.07 924.084 108.611 925.68 109.265C926.429 109.641 927.249 110.039 928.141 110.461C929.03 110.883 929.898 111.234 930.742 111.515C931.678 111.797 932.522 112.056 933.273 112.289C934.023 112.524 934.68 112.641 935.242 112.641H950.852H953.805C954.273 112.641 954.695 112.548 955.07 112.359C955.444 112.172 955.773 111.937 956.055 111.656C956.336 111.469 956.547 111.188 956.687 110.812C956.828 110.439 956.898 110.063 956.898 109.687C956.898 109.219 956.828 108.822 956.687 108.492C956.547 108.165 956.336 107.859 956.055 107.578C955.773 107.297 955.444 107.086 955.07 106.945C954.695 106.805 954.273 106.734 953.805 106.734H953.523V104.344H956.758C957.131 104.344 957.507 104.273 957.883 104.133C958.256 103.992 958.586 103.781 958.867 103.5C959.054 103.219 959.241 102.891 959.43 102.516C959.616 102.142 959.711 101.766 959.711 101.391C959.711 101.017 959.616 100.641 959.43 100.266C959.241 99.8919 959.054 99.5625 958.867 99.2812C958.586 99.0943 958.256 98.9075 957.883 98.7186C957.507 98.532 957.131 98.4373 956.758 98.4373H955.773V96.0468H959.289C959.663 96.0468 960.038 95.9763 960.414 95.8358C960.788 95.6953 961.117 95.4842 961.398 95.203C961.68 94.9216 961.913 94.5942 962.102 94.2185C962.288 93.845 962.383 93.4693 962.383 93.0936C962.383 92.6257 962.288 92.2038 962.102 91.8281C961.913 91.4544 961.68 91.1734 961.398 90.9842C961.117 90.7029 960.788 90.4702 960.414 90.2811C960.038 90.0945 959.663 89.9998 959.289 89.9998H958.164V87.6093H962.242Z" fill="#00A2FF"/>
</g>
<defs>
<clipPath id="clip0">
<rect x="458" y="36" width="200" height="161" fill="white"/>
</clipPath>
<clipPath id="clip1">
<rect x="831" y="36" width="215" height="174" fill="white"/>
</clipPath>
</defs>
</svg>
