<svg width="196" height="51" viewBox="0 0 196 51" fill="none" xmlns="http://www.w3.org/2000/svg">
<g clip-path="url(#clip0)">
<path d="M12.2839 41.496C11.8679 41.272 11.4253 41.0907 10.9559 40.952C10.4866 40.8133 10.0439 40.744 9.62794 40.744C8.99861 40.744 8.49727 40.888 8.12394 41.176C7.76127 41.4533 7.57994 41.8373 7.57994 42.328C7.57994 42.808 7.79327 43.2027 8.21994 43.512C8.65727 43.8107 9.27594 44.1093 10.0759 44.408C10.6733 44.6213 11.1746 44.856 11.5799 45.112C11.9959 45.3573 12.3373 45.704 12.6039 46.152C12.8813 46.5893 13.0199 47.1493 13.0199 47.832C13.0199 48.4507 12.8653 49.0107 12.5559 49.512C12.2466 50.0133 11.8039 50.408 11.2279 50.696C10.6626 50.984 9.99594 51.128 9.22794 51.128C8.51327 51.128 7.82527 51.016 7.16394 50.792C6.50261 50.5573 5.92127 50.264 5.41994 49.912L6.10794 48.68C6.50261 48.9787 6.97727 49.2347 7.53194 49.448C8.08661 49.6507 8.60394 49.752 9.08394 49.752C9.70261 49.752 10.2413 49.592 10.6999 49.272C11.1693 48.952 11.4039 48.4773 11.4039 47.848C11.4039 47.3147 11.2066 46.8933 10.8119 46.584C10.4279 46.264 9.88394 45.9653 9.17994 45.688C8.52927 45.4427 7.98527 45.2027 7.54794 44.968C7.12127 44.7333 6.75327 44.4133 6.44394 44.008C6.13461 43.592 5.97994 43.0747 5.97994 42.456C5.97994 41.5493 6.29461 40.8187 6.92394 40.264C7.56394 39.6987 8.39061 39.4 9.40394 39.368C10.6519 39.368 11.8093 39.6773 12.8759 40.296L12.2839 41.496ZM23.6444 44.376V51H22.1564V49.912C21.9218 50.2213 21.5804 50.5093 21.1324 50.776C20.6844 51.032 20.1778 51.16 19.6124 51.16C18.9831 51.16 18.4124 51.0267 17.9004 50.76C17.3991 50.4827 16.9991 50.0827 16.7004 49.56C16.4124 49.0373 16.2684 48.4133 16.2684 47.688C16.2684 46.9627 16.4178 46.3333 16.7164 45.8C17.0258 45.256 17.4364 44.84 17.9484 44.552C18.4711 44.2533 19.0471 44.104 19.6764 44.104C20.2418 44.104 20.7324 44.2267 21.1484 44.472C21.5644 44.7173 21.9004 45.0373 22.1564 45.432L22.2684 44.376H23.6444ZM20.0124 49.928C20.5564 49.928 21.0204 49.7787 21.4044 49.48C21.7991 49.1707 22.0498 48.7547 22.1564 48.232V46.92C22.0284 46.4507 21.7618 46.072 21.3564 45.784C20.9511 45.4853 20.4871 45.336 19.9644 45.336C19.5698 45.336 19.2018 45.432 18.8604 45.624C18.5298 45.816 18.2631 46.088 18.0604 46.44C17.8684 46.7813 17.7724 47.1707 17.7724 47.608C17.7724 48.0347 17.8738 48.424 18.0764 48.776C18.2791 49.128 18.5511 49.4107 18.8924 49.624C19.2338 49.8267 19.6071 49.928 20.0124 49.928ZM28.3791 45.704H27.2431V44.36H28.3791V41.576C28.3791 40.616 28.5977 39.88 29.0351 39.368C29.4724 38.856 30.1124 38.6 30.9551 38.6C31.1897 38.6 31.4404 38.6373 31.7071 38.712C31.9737 38.776 32.2084 38.872 32.4111 39L31.7711 40.088C31.6111 39.9173 31.3871 39.832 31.0991 39.832C30.6937 39.832 30.3844 39.9707 30.1711 40.248C29.9684 40.5253 29.8671 40.9733 29.8671 41.592V44.36H31.9791V45.704H29.8671V51H28.3791V45.704ZM38.2422 49.88C38.7969 49.88 39.3355 49.688 39.8582 49.304L40.5462 50.408C40.1942 50.6427 39.8102 50.8293 39.3942 50.968C38.9889 51.096 38.5942 51.16 38.2102 51.16C37.4742 51.16 36.8289 51.0107 36.2742 50.712C35.7302 50.4027 35.3089 49.9813 35.0102 49.448C34.7115 48.9147 34.5622 48.312 34.5622 47.64C34.5622 46.9893 34.7222 46.3973 35.0422 45.864C35.3729 45.32 35.8209 44.8933 36.3862 44.584C36.9515 44.264 37.5702 44.104 38.2422 44.104C39.1062 44.104 39.8262 44.36 40.4022 44.872C40.9889 45.3733 41.3889 46.0773 41.6022 46.984L36.3542 48.824C36.5462 49.1547 36.8022 49.416 37.1222 49.608C37.4529 49.7893 37.8262 49.88 38.2422 49.88ZM38.1302 45.288C37.5222 45.288 37.0209 45.5013 36.6262 45.928C36.2315 46.3547 36.0342 46.8987 36.0342 47.56C36.0342 47.72 36.0395 47.8427 36.0502 47.928L39.9062 46.504C39.7462 46.1413 39.5169 45.848 39.2182 45.624C38.9302 45.4 38.5675 45.288 38.1302 45.288ZM58.9132 39.432V40.92H55.8092V51H54.2572V40.92H51.2332V39.432H58.9132ZM63.1126 45.944C63.2832 45.5813 63.5232 45.2613 63.8326 44.984C64.1526 44.7067 64.4886 44.4933 64.8406 44.344C65.1926 44.1947 65.5019 44.1147 65.7686 44.104L65.7046 45.592C65.2246 45.5707 64.7872 45.6667 64.3926 45.88C64.0086 46.0933 63.7046 46.392 63.4806 46.776C63.2672 47.1493 63.1606 47.5493 63.1606 47.976V51H61.6726V44.376H63.0006L63.1126 45.944ZM75.9319 44.376V51H74.4439V49.912C74.2093 50.2213 73.8679 50.5093 73.4199 50.776C72.9719 51.032 72.4653 51.16 71.8999 51.16C71.2706 51.16 70.6999 51.0267 70.1879 50.76C69.6866 50.4827 69.2866 50.0827 68.9879 49.56C68.6999 49.0373 68.5559 48.4133 68.5559 47.688C68.5559 46.9627 68.7053 46.3333 69.0039 45.8C69.3133 45.256 69.7239 44.84 70.2359 44.552C70.7586 44.2533 71.3346 44.104 71.9639 44.104C72.5293 44.104 73.0199 44.2267 73.4359 44.472C73.8519 44.7173 74.1879 45.0373 74.4439 45.432L74.5559 44.376H75.9319ZM72.2999 49.928C72.8439 49.928 73.3079 49.7787 73.6919 49.48C74.0866 49.1707 74.3373 48.7547 74.4439 48.232V46.92C74.3159 46.4507 74.0493 46.072 73.6439 45.784C73.2386 45.4853 72.7746 45.336 72.2519 45.336C71.8573 45.336 71.4893 45.432 71.1479 45.624C70.8173 45.816 70.5506 46.088 70.3479 46.44C70.1559 46.7813 70.0599 47.1707 70.0599 47.608C70.0599 48.0347 70.1613 48.424 70.3639 48.776C70.5666 49.128 70.8386 49.4107 71.1799 49.624C71.5213 49.8267 71.8946 49.928 72.2999 49.928ZM86.4266 44.376L82.8906 51.192H82.8106L79.1306 44.376H80.9066L82.9066 48.6L84.7626 44.376H86.4266ZM92.5766 49.88C93.1312 49.88 93.6699 49.688 94.1926 49.304L94.8806 50.408C94.5286 50.6427 94.1446 50.8293 93.7286 50.968C93.3232 51.096 92.9286 51.16 92.5446 51.16C91.8086 51.16 91.1632 51.0107 90.6086 50.712C90.0646 50.4027 89.6432 49.9813 89.3446 49.448C89.0459 48.9147 88.8966 48.312 88.8966 47.64C88.8966 46.9893 89.0566 46.3973 89.3766 45.864C89.7072 45.32 90.1552 44.8933 90.7206 44.584C91.2859 44.264 91.9046 44.104 92.5766 44.104C93.4406 44.104 94.1606 44.36 94.7366 44.872C95.3232 45.3733 95.7232 46.0773 95.9366 46.984L90.6886 48.824C90.8806 49.1547 91.1366 49.416 91.4566 49.608C91.7872 49.7893 92.1606 49.88 92.5766 49.88ZM92.4646 45.288C91.8566 45.288 91.3552 45.5013 90.9606 45.928C90.5659 46.3547 90.3686 46.8987 90.3686 47.56C90.3686 47.72 90.3739 47.8427 90.3846 47.928L94.2406 46.504C94.0806 46.1413 93.8512 45.848 93.5526 45.624C93.2646 45.4 92.9019 45.288 92.4646 45.288ZM100.873 38.6V51H99.3851V38.6H100.873ZM118.158 47.96H113.71L112.478 51H110.942L115.998 38.952H116.094L121.15 51H119.358L118.158 47.96ZM117.63 46.616L115.982 42.392L114.27 46.616H117.63ZM128.656 44.12C129.275 44.12 129.787 44.3067 130.192 44.68C130.598 45.0427 130.806 45.5173 130.816 46.104V51H129.312V46.616C129.291 46.2427 129.179 45.9493 128.976 45.736C128.774 45.5227 128.47 45.4107 128.064 45.4C127.478 45.4 126.992 45.6347 126.608 46.104C126.224 46.5733 126.032 47.1707 126.032 47.896V51H124.544V44.376H125.888L125.984 45.656C126.219 45.176 126.571 44.8027 127.04 44.536C127.51 44.2587 128.048 44.12 128.656 44.12ZM141.058 44.376L136.786 54.184H135.314L136.834 50.776L133.762 44.376H135.442L137.586 49.096L139.682 44.376H141.058ZM153.46 44.376L150.404 51.4L148.276 46.856L146.34 51.4L143.268 44.376H144.74L146.516 48.392L147.748 45.512L147.22 44.376H148.516L150.308 48.488L151.988 44.376H153.46ZM160.769 44.12C161.388 44.12 161.9 44.3067 162.305 44.68C162.71 45.0427 162.918 45.5173 162.929 46.104V51H161.425V46.616C161.404 46.2427 161.292 45.9493 161.089 45.736C160.886 45.5227 160.582 45.4107 160.177 45.4C159.793 45.4 159.446 45.5067 159.137 45.72C158.828 45.9333 158.582 46.232 158.401 46.616C158.23 47 158.145 47.4267 158.145 47.896V51H156.657V38.6H158.113V45.576C158.358 45.1387 158.71 44.7867 159.169 44.52C159.638 44.2533 160.172 44.12 160.769 44.12ZM170.205 49.88C170.759 49.88 171.298 49.688 171.821 49.304L172.509 50.408C172.157 50.6427 171.773 50.8293 171.357 50.968C170.951 51.096 170.557 51.16 170.173 51.16C169.437 51.16 168.791 51.0107 168.237 50.712C167.693 50.4027 167.271 49.9813 166.973 49.448C166.674 48.9147 166.525 48.312 166.525 47.64C166.525 46.9893 166.685 46.3973 167.005 45.864C167.335 45.32 167.783 44.8933 168.349 44.584C168.914 44.264 169.533 44.104 170.205 44.104C171.069 44.104 171.789 44.36 172.365 44.872C172.951 45.3733 173.351 46.0773 173.565 46.984L168.317 48.824C168.509 49.1547 168.765 49.416 169.085 49.608C169.415 49.7893 169.789 49.88 170.205 49.88ZM170.093 45.288C169.485 45.288 168.983 45.5013 168.589 45.928C168.194 46.3547 167.997 46.8987 167.997 47.56C167.997 47.72 168.002 47.8427 168.013 47.928L171.869 46.504C171.709 46.1413 171.479 45.848 171.181 45.624C170.893 45.4 170.53 45.288 170.093 45.288ZM178.453 45.944C178.624 45.5813 178.864 45.2613 179.173 44.984C179.493 44.7067 179.829 44.4933 180.181 44.344C180.533 44.1947 180.843 44.1147 181.109 44.104L181.045 45.592C180.565 45.5707 180.128 45.6667 179.733 45.88C179.349 46.0933 179.045 46.392 178.821 46.776C178.608 47.1493 178.501 47.5493 178.501 47.976V51H177.013V44.376H178.341L178.453 45.944ZM187.452 49.88C188.006 49.88 188.545 49.688 189.068 49.304L189.756 50.408C189.404 50.6427 189.02 50.8293 188.604 50.968C188.198 51.096 187.804 51.16 187.42 51.16C186.684 51.16 186.038 51.0107 185.484 50.712C184.94 50.4027 184.518 49.9813 184.22 49.448C183.921 48.9147 183.772 48.312 183.772 47.64C183.772 46.9893 183.932 46.3973 184.252 45.864C184.582 45.32 185.03 44.8933 185.596 44.584C186.161 44.264 186.78 44.104 187.452 44.104C188.316 44.104 189.036 44.36 189.612 44.872C190.198 45.3733 190.598 46.0773 190.812 46.984L185.564 48.824C185.756 49.1547 186.012 49.416 186.332 49.608C186.662 49.7893 187.036 49.88 187.452 49.88ZM187.34 45.288C186.732 45.288 186.23 45.5013 185.836 45.928C185.441 46.3547 185.244 46.8987 185.244 47.56C185.244 47.72 185.249 47.8427 185.26 47.928L189.116 46.504C188.956 46.1413 188.726 45.848 188.428 45.624C188.14 45.4 187.777 45.288 187.34 45.288Z" fill="white"/>
<path d="M21.376 9.688C22.304 10.12 23.024 10.688 23.536 11.392C24.064 12.08 24.328 12.88 24.328 13.792C24.328 15.584 23.736 16.904 22.552 17.752C21.384 18.584 19.92 19 18.16 19H12.28V1.336H17.464C19.336 1.336 20.808 1.72 21.88 2.488C22.952 3.24 23.488 4.336 23.488 5.776C23.488 6.656 23.304 7.432 22.936 8.104C22.568 8.76 22.048 9.288 21.376 9.688ZM15.76 8.56H17.872C18.512 8.56 19.008 8.368 19.36 7.984C19.712 7.584 19.888 7.096 19.888 6.52C19.888 5.928 19.688 5.48 19.288 5.176C18.888 4.856 18.336 4.696 17.632 4.696H15.76V8.56ZM17.992 15.76C18.808 15.76 19.464 15.6 19.96 15.28C20.472 14.944 20.728 14.448 20.728 13.792C20.728 12.544 19.736 11.92 17.752 11.92H15.76V15.76H17.992ZM46.0351 19H42.5551V11.824H34.6591V19H31.1791V1.336H34.6591V8.464H42.5551V1.336H46.0351V19ZM63.4733 19L59.7533 13.384H57.4253V19H53.9453V1.336H59.2973C61.4893 1.336 63.1853 1.872 64.3853 2.944C65.6013 4 66.2093 5.448 66.2093 7.288C66.2093 8.376 65.9773 9.4 65.5133 10.36C65.0653 11.304 64.3693 12.048 63.4253 12.592L67.5293 19H63.4733ZM57.4253 10.024H59.8973C60.8413 10.024 61.5293 9.752 61.9613 9.208C62.3933 8.648 62.6093 8.048 62.6093 7.408C62.6093 6.768 62.4253 6.16 62.0573 5.584C61.6893 4.992 60.9773 4.696 59.9213 4.696H57.4253V10.024ZM72.0691 10.192C72.0691 8.592 72.4691 7.096 73.2691 5.704C74.0851 4.312 75.1811 3.208 76.5571 2.392C77.9491 1.56 79.4531 1.144 81.0691 1.144C82.6851 1.144 84.1811 1.56 85.5571 2.392C86.9491 3.208 88.0531 4.312 88.8691 5.704C89.7011 7.096 90.1171 8.592 90.1171 10.192C90.1171 11.824 89.7011 13.328 88.8691 14.704C88.0531 16.08 86.9491 17.176 85.5571 17.992C84.1811 18.792 82.6851 19.192 81.0691 19.192C79.4371 19.192 77.9331 18.792 76.5571 17.992C75.1811 17.176 74.0851 16.08 73.2691 14.704C72.4691 13.328 72.0691 11.824 72.0691 10.192ZM75.6691 10.192C75.6691 11.216 75.9091 12.16 76.3891 13.024C76.8851 13.888 77.5491 14.576 78.3811 15.088C79.2291 15.584 80.1651 15.832 81.1891 15.832C82.1811 15.832 83.0851 15.584 83.9011 15.088C84.7171 14.576 85.3571 13.896 85.8211 13.048C86.2851 12.184 86.5171 11.232 86.5171 10.192C86.5171 9.136 86.2771 8.176 85.7971 7.312C85.3171 6.448 84.6611 5.768 83.8291 5.272C83.0131 4.76 82.1011 4.504 81.0931 4.504C80.0851 4.504 79.1651 4.76 78.3331 5.272C77.5171 5.768 76.8691 6.448 76.3891 7.312C75.9091 8.176 75.6691 9.136 75.6691 10.192ZM115.139 0.615999V19H111.659V10.576L105.899 18.76H105.851L100.307 11.104V19H96.9466V0.615999H96.9706L105.923 13.312L115.091 0.615999H115.139ZM131.8 15.544H125.944L124.504 19H121.072L129.04 0.639999H129.232L137.2 19H133.168L131.8 15.544ZM130.648 12.616L128.944 8.32L127.168 12.616H130.648ZM140.86 10.192C140.86 8.592 141.26 7.096 142.06 5.704C142.876 4.312 143.972 3.208 145.348 2.392C146.74 1.56 148.244 1.144 149.86 1.144C151.476 1.144 152.972 1.56 154.348 2.392C155.74 3.208 156.844 4.312 157.66 5.704C158.492 7.096 158.908 8.592 158.908 10.192C158.908 11.824 158.492 13.328 157.66 14.704C156.844 16.08 155.74 17.176 154.348 17.992C152.972 18.792 151.476 19.192 149.86 19.192C148.228 19.192 146.724 18.792 145.348 17.992C143.972 17.176 142.876 16.08 142.06 14.704C141.26 13.328 140.86 11.824 140.86 10.192ZM144.46 10.192C144.46 11.216 144.7 12.16 145.18 13.024C145.676 13.888 146.34 14.576 147.172 15.088C148.02 15.584 148.956 15.832 149.98 15.832C150.972 15.832 151.876 15.584 152.692 15.088C153.508 14.576 154.148 13.896 154.612 13.048C155.076 12.184 155.308 11.232 155.308 10.192C155.308 9.136 155.068 8.176 154.588 7.312C154.108 6.448 153.452 5.768 152.62 5.272C151.804 4.76 150.892 4.504 149.884 4.504C148.876 4.504 147.956 4.76 147.124 5.272C146.308 5.768 145.66 6.448 145.18 7.312C144.7 8.176 144.46 9.136 144.46 10.192ZM181.65 1.336V19.72H181.554L169.194 8.56L169.266 19H165.738V0.639999H165.882L178.218 11.968L178.146 1.336H181.65Z" fill="white"/>
</g>
<defs>
<clipPath id="clip0">
<rect width="196" height="51" fill="white"/>
</clipPath>
</defs>
</svg>
