<svg width="353" height="163" viewBox="0 0 353 163" fill="none" xmlns="http://www.w3.org/2000/svg">
<path d="M83.5343 128.356C86.1263 129.508 87.4223 131.44 87.4223 134.152C87.4223 136.528 86.6783 138.46 85.1903 139.948C83.6303 141.508 81.4943 142.288 78.7823 142.288C77.6543 142.288 76.4783 142.18 75.2543 141.964C74.2943 141.796 73.3343 141.568 72.3743 141.28L71.3303 140.92V134.44H73.0943C73.5023 134.44 73.7423 134.644 73.8143 135.052C73.8623 135.244 73.9223 135.832 73.9943 136.816L74.1023 138.4C75.9743 139.072 77.4383 139.408 78.4943 139.408C79.5503 139.408 80.4383 139.288 81.1583 139.048C81.8543 138.832 82.4063 138.508 82.8143 138.076C83.7263 137.236 84.1823 136.096 84.1823 134.656C84.1823 133.264 83.5343 132.208 82.2383 131.488C81.6623 131.128 81.0143 130.84 80.2943 130.624C77.7263 129.832 76.2143 129.328 75.7583 129.112C75.0623 128.8 74.4023 128.368 73.7783 127.816C72.5063 126.688 71.8703 125.08 71.8703 122.992C71.8703 121.096 72.5543 119.464 73.9223 118.096C75.4103 116.656 77.3303 115.936 79.6823 115.936C82.1783 115.936 84.5903 116.416 86.9183 117.376V123.316H85.1903C84.7583 123.316 84.5063 123.112 84.4343 122.704C84.4343 122.632 84.4103 122.392 84.3623 121.984C84.3383 121.552 84.2783 120.724 84.1823 119.5C82.5023 119.044 81.0863 118.816 79.9343 118.816C78.3743 118.816 77.1743 119.2 76.3343 119.968C75.5183 120.712 75.1103 121.672 75.1103 122.848C75.1103 124.12 75.7583 125.116 77.0543 125.836C77.5823 126.172 78.2543 126.472 79.0703 126.736C81.2303 127.456 82.7423 127.996 83.6063 128.356H83.5343ZM97.5332 123.496C98.5893 123.496 99.5853 123.676 100.521 124.036C101.481 124.396 102.273 124.912 102.897 125.584C103.617 126.352 104.145 127.204 104.481 128.14C104.865 129.22 105.057 130.372 105.057 131.596C105.057 132.148 105.009 132.484 104.913 132.604C104.793 132.772 104.577 132.856 104.265 132.856H92.1693C92.1693 134.008 92.3133 135.016 92.6013 135.88C92.8413 136.624 93.2493 137.32 93.8253 137.968C94.3533 138.568 94.9533 139 95.6253 139.264C96.3453 139.552 97.1133 139.696 97.9293 139.696C98.7933 139.696 99.4893 139.612 100.017 139.444C100.521 139.276 101.025 139.072 101.529 138.832C102.057 138.568 102.417 138.376 102.609 138.256C102.921 138.064 103.161 137.968 103.329 137.968C103.593 137.968 103.797 138.076 103.941 138.292L104.841 139.48C104.505 139.912 104.025 140.32 103.401 140.704C102.681 141.16 102.093 141.46 101.637 141.604C100.917 141.844 100.269 142.012 99.6933 142.108C98.9733 142.228 98.3133 142.288 97.7133 142.288C96.4653 142.288 95.3013 142.072 94.2213 141.64C93.1893 141.232 92.2653 140.596 91.4493 139.732C90.6813 138.94 90.0813 137.92 89.6493 136.672C89.2173 135.448 89.0013 134.056 89.0013 132.496C89.0013 131.248 89.2053 130.072 89.6133 128.968C90.0213 127.84 90.5853 126.88 91.3053 126.088C92.0493 125.272 92.9493 124.636 94.0053 124.18C95.0613 123.724 96.2373 123.496 97.5332 123.496ZM97.6053 125.836C96.0453 125.836 94.8333 126.28 93.9693 127.168C93.0813 128.104 92.5293 129.352 92.3133 130.912H102.213C102.213 130.168 102.105 129.496 101.889 128.896C101.625 128.152 101.337 127.612 101.025 127.276C100.617 126.844 100.125 126.496 99.5493 126.232C98.9973 125.992 98.3373 125.872 97.5693 125.872L97.6053 125.836ZM122.992 139.696C123.16 139.72 123.292 139.804 123.388 139.948C123.484 140.068 123.532 140.212 123.532 140.38V141.928H119.788C119.572 141.928 119.32 141.88 119.032 141.784C118.864 141.736 118.744 141.544 118.672 141.208L118.312 139.48L116.872 140.668C116.464 141.004 115.984 141.292 115.432 141.532C114.904 141.772 114.376 141.952 113.848 142.072C113.368 142.192 112.72 142.252 111.904 142.252C111.232 142.252 110.584 142.144 109.96 141.928C109.216 141.664 108.676 141.376 108.34 141.064C107.908 140.68 107.548 140.176 107.26 139.552C106.996 139 106.864 138.28 106.864 137.392C106.864 136.624 107.056 135.928 107.44 135.304C107.872 134.608 108.52 134.008 109.384 133.504C110.344 132.952 111.496 132.52 112.84 132.208C114.232 131.896 115.984 131.74 118.096 131.74V130.336C118.096 128.92 117.784 127.84 117.16 127.096C116.536 126.352 115.636 125.98 114.46 125.98C113.692 125.98 113.032 126.088 112.48 126.304C111.856 126.544 111.4 126.76 111.112 126.952C110.968 127.048 110.8 127.156 110.608 127.276C110.44 127.372 110.26 127.48 110.068 127.6C109.804 127.792 109.528 127.888 109.24 127.888C108.976 127.888 108.784 127.84 108.664 127.744C108.52 127.624 108.4 127.48 108.304 127.312L107.728 126.304C108.664 125.392 109.744 124.672 110.968 124.144C112.072 123.664 113.368 123.424 114.856 123.424C115.936 123.424 116.848 123.592 117.592 123.928C118.408 124.288 119.068 124.744 119.572 125.296C120.1 125.848 120.508 126.568 120.796 127.456C121.06 128.248 121.192 129.184 121.192 130.264V139.372C122.344 139.612 122.944 139.744 122.992 139.768V139.696ZM118.024 133.792C116.464 133.792 115.216 133.876 114.28 134.044C113.368 134.212 112.528 134.464 111.76 134.8C111.088 135.112 110.608 135.472 110.32 135.88C110.032 136.312 109.888 136.768 109.888 137.248C109.888 137.632 109.972 138.04 110.14 138.472C110.284 138.832 110.5 139.12 110.788 139.336C111.076 139.552 111.388 139.708 111.724 139.804C112.132 139.924 112.528 139.984 112.912 139.984C113.392 139.984 113.896 139.924 114.424 139.804C114.904 139.684 115.348 139.528 115.756 139.336C116.116 139.168 116.512 138.904 116.944 138.544C117.184 138.352 117.544 138.016 118.024 137.536V133.792ZM131.333 127.492C132.677 124.78 134.525 123.424 136.877 123.424C137.813 123.424 138.641 123.64 139.361 124.072L138.965 126.484C138.893 126.796 138.737 126.952 138.497 126.952C138.329 126.952 138.041 126.892 137.633 126.772C137.225 126.652 136.733 126.592 136.157 126.592C134.045 126.592 132.485 127.864 131.477 130.408V139.408L133.529 139.804C133.889 139.876 134.069 140.104 134.069 140.488V142H125.681V140.488C125.681 140.104 125.861 139.876 126.221 139.804L128.273 139.408V126.412C127.121 126.196 126.437 126.052 126.221 125.98C125.861 125.908 125.681 125.68 125.681 125.296V123.784H130.109C130.445 123.784 130.673 123.844 130.793 123.964C130.913 124.084 131.009 124.312 131.081 124.648L131.297 127.492H131.333ZM155.056 139.444C153.544 141.316 151.288 142.252 148.288 142.252C145.984 142.252 144.088 141.424 142.6 139.768C141.04 138.016 140.26 135.712 140.26 132.856C140.26 130.072 140.992 127.828 142.456 126.124C143.992 124.372 146.128 123.496 148.864 123.496C150.232 123.496 152.032 123.928 154.264 124.792V129.544H152.824C152.488 129.544 152.284 129.376 152.212 129.04C152.188 128.968 152.14 128.512 152.068 127.672L151.96 126.484C151.696 126.388 151.432 126.316 151.168 126.268C150.928 126.22 150.76 126.184 150.664 126.16C150.016 126.064 149.344 126.016 148.648 126.016C148.024 126.016 147.364 126.172 146.668 126.484C146.02 126.772 145.456 127.216 144.976 127.816C144.064 129.016 143.608 130.696 143.608 132.856C143.608 135.016 144.088 136.72 145.048 137.968C145.984 139.168 147.268 139.768 148.9 139.768C150.412 139.768 151.744 139.264 152.896 138.256C153.088 138.064 153.328 137.968 153.616 137.968C153.88 137.968 154.072 138.064 154.192 138.256L155.056 139.444ZM162.872 126.232C164.624 124.408 166.568 123.496 168.704 123.496C170.648 123.496 172.16 124.12 173.24 125.368C174.296 126.616 174.824 128.296 174.824 130.408V139.372C175.976 139.588 176.66 139.732 176.876 139.804C177.236 139.876 177.416 140.104 177.416 140.488V142H171.62V130.408C171.62 127.504 170.336 126.052 167.768 126.052C166.016 126.052 164.384 126.904 162.872 128.608V139.408L163.304 139.48L164.888 139.804C165.272 139.876 165.464 140.104 165.464 140.488V142H157.04V140.488C157.04 140.104 157.232 139.876 157.616 139.804L159.632 139.408V118.132C158.264 117.916 157.472 117.772 157.256 117.7C156.872 117.628 156.68 117.4 156.68 117.016V115.504H162.872V126.232ZM201.243 116.728C204.795 117.88 206.571 120.376 206.571 124.216C206.571 126.688 205.755 128.632 204.123 130.048C202.371 131.584 199.995 132.352 196.995 132.352H193.323V139.372C193.515 139.444 194.211 139.588 195.411 139.804C195.747 139.876 195.915 140.104 195.915 140.488V142H187.275V140.488C187.275 140.104 187.455 139.876 187.815 139.804L189.867 139.408V118.852C188.715 118.636 188.031 118.492 187.815 118.42C187.455 118.348 187.275 118.12 187.275 117.736V116.224H196.995C198.603 116.224 200.019 116.404 201.243 116.764V116.728ZM203.079 124.144C203.079 122.536 202.575 121.264 201.567 120.328C200.583 119.416 199.059 118.96 196.995 118.96H193.323V129.544H196.995C198.939 129.544 200.439 129.064 201.495 128.104C202.575 127.12 203.115 125.812 203.115 124.18L203.079 124.144ZM216.32 139.768C216.704 139.84 216.896 140.068 216.896 140.452V142H208.472V140.452C208.472 140.068 208.664 139.84 209.048 139.768L211.064 139.372V118.096C209.96 117.88 209.288 117.736 209.048 117.664C208.664 117.592 208.472 117.376 208.472 117.016V115.468H214.304V139.336C215.408 139.552 216.08 139.696 216.32 139.768ZM234.754 139.696C234.922 139.72 235.054 139.804 235.15 139.948C235.246 140.068 235.294 140.212 235.294 140.38V141.928H231.55C231.334 141.928 231.082 141.88 230.794 141.784C230.626 141.736 230.506 141.544 230.434 141.208L230.074 139.48L228.634 140.668C228.226 141.004 227.746 141.292 227.194 141.532C226.666 141.772 226.138 141.952 225.61 142.072C225.13 142.192 224.482 142.252 223.666 142.252C222.994 142.252 222.346 142.144 221.722 141.928C220.978 141.664 220.438 141.376 220.102 141.064C219.67 140.68 219.31 140.176 219.022 139.552C218.758 139 218.626 138.28 218.626 137.392C218.626 136.624 218.818 135.928 219.202 135.304C219.634 134.608 220.282 134.008 221.146 133.504C222.106 132.952 223.258 132.52 224.602 132.208C225.994 131.896 227.746 131.74 229.858 131.74V130.336C229.858 128.92 229.546 127.84 228.922 127.096C228.298 126.352 227.398 125.98 226.222 125.98C225.454 125.98 224.794 126.088 224.242 126.304C223.618 126.544 223.162 126.76 222.874 126.952C222.73 127.048 222.562 127.156 222.37 127.276C222.202 127.372 222.022 127.48 221.83 127.6C221.566 127.792 221.29 127.888 221.002 127.888C220.738 127.888 220.546 127.84 220.426 127.744C220.282 127.624 220.162 127.48 220.066 127.312L219.49 126.304C220.426 125.392 221.506 124.672 222.73 124.144C223.834 123.664 225.13 123.424 226.618 123.424C227.698 123.424 228.61 123.592 229.354 123.928C230.17 124.288 230.83 124.744 231.334 125.296C231.862 125.848 232.27 126.568 232.558 127.456C232.822 128.248 232.954 129.184 232.954 130.264V139.372C234.106 139.612 234.706 139.744 234.754 139.768V139.696ZM229.786 133.792C228.226 133.792 226.978 133.876 226.042 134.044C225.13 134.212 224.29 134.464 223.522 134.8C222.85 135.112 222.37 135.472 222.082 135.88C221.794 136.312 221.65 136.768 221.65 137.248C221.65 137.632 221.734 138.04 221.902 138.472C222.046 138.832 222.262 139.12 222.55 139.336C222.838 139.552 223.15 139.708 223.486 139.804C223.894 139.924 224.29 139.984 224.674 139.984C225.154 139.984 225.658 139.924 226.186 139.804C226.666 139.684 227.11 139.528 227.518 139.336C227.878 139.168 228.274 138.904 228.706 138.544C228.946 138.352 229.306 138.016 229.786 137.536V133.792ZM251.771 139.444C250.259 141.316 248.003 142.252 245.003 142.252C242.699 142.252 240.803 141.424 239.315 139.768C237.755 138.016 236.975 135.712 236.975 132.856C236.975 130.072 237.707 127.828 239.171 126.124C240.707 124.372 242.843 123.496 245.579 123.496C246.947 123.496 248.747 123.928 250.979 124.792V129.544H249.539C249.203 129.544 248.999 129.376 248.927 129.04C248.903 128.968 248.855 128.512 248.783 127.672L248.675 126.484C248.411 126.388 248.147 126.316 247.883 126.268C247.643 126.22 247.475 126.184 247.379 126.16C246.731 126.064 246.059 126.016 245.363 126.016C244.739 126.016 244.079 126.172 243.383 126.484C242.735 126.772 242.171 127.216 241.691 127.816C240.779 129.016 240.323 130.696 240.323 132.856C240.323 135.016 240.803 136.72 241.763 137.968C242.699 139.168 243.983 139.768 245.615 139.768C247.127 139.768 248.459 139.264 249.611 138.256C249.803 138.064 250.043 137.968 250.331 137.968C250.595 137.968 250.787 138.064 250.907 138.256L251.771 139.444ZM262.697 123.496C263.753 123.496 264.749 123.676 265.685 124.036C266.645 124.396 267.437 124.912 268.061 125.584C268.781 126.352 269.309 127.204 269.645 128.14C270.029 129.22 270.221 130.372 270.221 131.596C270.221 132.148 270.173 132.484 270.077 132.604C269.957 132.772 269.741 132.856 269.429 132.856H257.333C257.333 134.008 257.477 135.016 257.765 135.88C258.005 136.624 258.413 137.32 258.989 137.968C259.517 138.568 260.117 139 260.789 139.264C261.509 139.552 262.277 139.696 263.093 139.696C263.957 139.696 264.653 139.612 265.181 139.444C265.685 139.276 266.189 139.072 266.693 138.832C267.221 138.568 267.581 138.376 267.773 138.256C268.085 138.064 268.325 137.968 268.493 137.968C268.757 137.968 268.961 138.076 269.105 138.292L270.005 139.48C269.669 139.912 269.189 140.32 268.565 140.704C267.845 141.16 267.257 141.46 266.801 141.604C266.081 141.844 265.433 142.012 264.857 142.108C264.137 142.228 263.477 142.288 262.877 142.288C261.629 142.288 260.465 142.072 259.385 141.64C258.353 141.232 257.429 140.596 256.613 139.732C255.845 138.94 255.245 137.92 254.813 136.672C254.381 135.448 254.165 134.056 254.165 132.496C254.165 131.248 254.369 130.072 254.777 128.968C255.185 127.84 255.749 126.88 256.469 126.088C257.213 125.272 258.113 124.636 259.169 124.18C260.225 123.724 261.401 123.496 262.697 123.496ZM262.769 125.836C261.209 125.836 259.997 126.28 259.133 127.168C258.245 128.104 257.693 129.352 257.477 130.912H267.377C267.377 130.168 267.269 129.496 267.053 128.896C266.789 128.152 266.501 127.612 266.189 127.276C265.781 126.844 265.289 126.496 264.713 126.232C264.161 125.992 263.501 125.872 262.733 125.872L262.769 125.836ZM279.48 123.496C280.728 123.496 282.312 123.82 284.232 124.468V129.148H282.828C282.492 129.148 282.288 128.98 282.216 128.644L282 126.268C280.872 126.004 279.936 125.872 279.192 125.872H279.156C278.172 125.872 277.344 126.136 276.672 126.664C276.024 127.168 275.7 127.72 275.7 128.32C275.7 128.944 275.844 129.4 276.132 129.688C276.612 130.24 277.308 130.66 278.22 130.948L279.3 131.272C279.492 131.32 279.876 131.44 280.452 131.632L282.18 132.28C282.66 132.448 283.164 132.76 283.692 133.216C284.676 133.984 285.168 135.04 285.168 136.384C285.168 138.136 284.58 139.528 283.404 140.56C282.132 141.688 280.524 142.252 278.58 142.252C276.588 142.252 274.62 141.928 272.676 141.28V136.528H273.972C274.26 136.528 274.44 136.672 274.512 136.96L274.728 139.264C275.688 139.744 276.924 139.984 278.436 139.984C279.588 139.984 280.524 139.684 281.244 139.084C281.868 138.532 282.18 137.92 282.18 137.248C282.18 136.552 282.036 136.048 281.748 135.736C281.412 135.352 281.052 135.064 280.668 134.872C280.14 134.608 279.636 134.416 279.156 134.296C277.38 133.72 276.264 133.336 275.808 133.144C275.232 132.88 274.692 132.544 274.188 132.136C273.18 131.296 272.676 130.168 272.676 128.752C272.676 127.312 273.252 126.088 274.404 125.08C275.604 124.024 277.296 123.496 279.48 123.496Z" fill="#E8E8E8"/>
<path fill-rule="evenodd" clip-rule="evenodd" d="M177 1.9998C203.51 1.9998 225 23.4902 225 49.9998C225 76.5096 203.51 98 177 98C150.49 98 129 76.5096 129 49.9998C129 23.4902 150.49 1.9998 177 1.9998Z" fill="#333333"/>
<path fill-rule="evenodd" clip-rule="evenodd" d="M205.266 75.8123L202.312 78.7656L186 62.4529C185.062 63.2968 184.031 64.0483 182.906 64.7031C181.781 65.3601 180.608 65.9224 179.391 66.3906C178.171 66.8608 176.881 67.2123 175.523 67.4453C174.163 67.6803 172.827 67.7969 171.516 67.7969C168.327 67.7969 165.35 67.1881 162.586 65.9685C159.82 64.7514 157.405 63.11 155.344 61.0467C153.28 58.9856 151.663 56.571 150.492 53.8046C149.319 51.0404 148.734 48.1093 148.734 45.0155C148.734 41.8295 149.319 38.8521 150.492 36.0859C151.663 33.3218 153.28 30.9069 155.344 28.8436C157.405 26.7826 159.82 25.1653 162.586 23.992C165.35 22.821 168.327 22.2342 171.516 22.2342C174.609 22.2342 177.538 22.821 180.305 23.992C183.069 25.1653 185.484 26.7826 187.547 28.8436C189.608 30.9069 191.249 33.3218 192.469 36.0859C193.686 38.8521 194.297 41.8295 194.297 45.0155C194.297 46.3293 194.178 47.6653 193.945 49.0232C193.71 50.3834 193.359 51.6733 192.891 52.8904C192.42 54.1101 191.858 55.2811 191.203 56.4061C190.546 57.531 189.797 58.5638 188.953 59.4999L205.266 75.8123ZM151.125 45.0155C151.125 47.828 151.639 50.4537 152.672 52.8904C153.702 55.3295 155.155 57.485 157.031 59.3593C158.905 61.2358 161.085 62.7123 163.57 63.7889C166.053 64.8677 168.703 65.4062 171.516 65.4062C174.328 65.4062 176.952 64.8677 179.391 63.7889C181.827 62.7123 183.983 61.2358 185.859 59.3593C187.734 57.485 189.21 55.3295 190.289 52.8904C191.366 50.4537 191.906 47.828 191.906 45.0155C191.906 42.203 191.366 39.5552 190.289 37.0701C189.21 34.5872 187.734 32.4076 185.859 30.5312C183.983 28.6568 181.827 27.2044 179.391 26.1716C176.952 25.1412 174.328 24.6248 171.516 24.6248C168.703 24.6248 166.053 25.1412 163.57 26.1716C161.085 27.2044 158.905 28.6568 157.031 30.5312C155.155 32.4076 153.702 34.5872 152.672 37.0701C151.639 39.5552 151.125 42.203 151.125 45.0155Z" fill="#5474FD"/>
</svg>
