<svg width="200" height="161" viewBox="0 0 200 161" fill="none" xmlns="http://www.w3.org/2000/svg">
<g clip-path="url(#clip0)">
<path d="M12.4425 126.356C15.0345 127.508 16.3305 129.44 16.3305 132.152C16.3305 134.528 15.5865 136.46 14.0985 137.948C12.5385 139.508 10.4025 140.288 7.69052 140.288C6.56252 140.288 5.38652 140.18 4.16252 139.964C3.20252 139.796 2.24252 139.568 1.28252 139.28L0.238516 138.92V132.44H2.00252C2.41052 132.44 2.65052 132.644 2.72252 133.052C2.77052 133.244 2.83052 133.832 2.90252 134.816L3.01052 136.4C4.88252 137.072 6.34652 137.408 7.40252 137.408C8.45852 137.408 9.34652 137.288 10.0665 137.048C10.7625 136.832 11.3145 136.508 11.7225 136.076C12.6345 135.236 13.0905 134.096 13.0905 132.656C13.0905 131.264 12.4425 130.208 11.1465 129.488C10.5705 129.128 9.92252 128.84 9.20252 128.624C6.63452 127.832 5.12252 127.328 4.66652 127.112C3.97052 126.8 3.31052 126.368 2.68652 125.816C1.41452 124.688 0.778516 123.08 0.778516 120.992C0.778516 119.096 1.46252 117.464 2.83052 116.096C4.31852 114.656 6.23852 113.936 8.59052 113.936C11.0865 113.936 13.4985 114.416 15.8265 115.376V121.316H14.0985C13.6665 121.316 13.4145 121.112 13.3425 120.704C13.3425 120.632 13.3185 120.392 13.2705 119.984C13.2465 119.552 13.1865 118.724 13.0905 117.5C11.4105 117.044 9.99452 116.816 8.84252 116.816C7.28252 116.816 6.08252 117.2 5.24252 117.968C4.42652 118.712 4.01852 119.672 4.01852 120.848C4.01852 122.12 4.66652 123.116 5.96252 123.836C6.49052 124.172 7.16252 124.472 7.97852 124.736C10.1385 125.456 11.6505 125.996 12.5145 126.356H12.4425ZM26.4415 121.496C27.4975 121.496 28.4935 121.676 29.4295 122.036C30.3895 122.396 31.1815 122.912 31.8055 123.584C32.5255 124.352 33.0535 125.204 33.3895 126.14C33.7735 127.22 33.9655 128.372 33.9655 129.596C33.9655 130.148 33.9175 130.484 33.8215 130.604C33.7015 130.772 33.4855 130.856 33.1735 130.856H21.0775C21.0775 132.008 21.2215 133.016 21.5095 133.88C21.7495 134.624 22.1575 135.32 22.7335 135.968C23.2615 136.568 23.8615 137 24.5335 137.264C25.2535 137.552 26.0215 137.696 26.8375 137.696C27.7015 137.696 28.3975 137.612 28.9255 137.444C29.4295 137.276 29.9335 137.072 30.4375 136.832C30.9655 136.568 31.3255 136.376 31.5175 136.256C31.8295 136.064 32.0695 135.968 32.2375 135.968C32.5015 135.968 32.7055 136.076 32.8495 136.292L33.7495 137.48C33.4135 137.912 32.9335 138.32 32.3095 138.704C31.5895 139.16 31.0015 139.46 30.5455 139.604C29.8255 139.844 29.1775 140.012 28.6015 140.108C27.8815 140.228 27.2215 140.288 26.6215 140.288C25.3735 140.288 24.2095 140.072 23.1295 139.64C22.0975 139.232 21.1735 138.596 20.3575 137.732C19.5895 136.94 18.9895 135.92 18.5575 134.672C18.1255 133.448 17.9095 132.056 17.9095 130.496C17.9095 129.248 18.1135 128.072 18.5215 126.968C18.9295 125.84 19.4935 124.88 20.2135 124.088C20.9575 123.272 21.8575 122.636 22.9135 122.18C23.9695 121.724 25.1455 121.496 26.4415 121.496ZM26.5135 123.836C24.9535 123.836 23.7415 124.28 22.8775 125.168C21.9895 126.104 21.4375 127.352 21.2215 128.912H31.1215C31.1215 128.168 31.0135 127.496 30.7975 126.896C30.5335 126.152 30.2455 125.612 29.9335 125.276C29.5255 124.844 29.0335 124.496 28.4575 124.232C27.9055 123.992 27.2455 123.872 26.4775 123.872L26.5135 123.836ZM43.9082 137.768C44.2922 137.84 44.4842 138.068 44.4842 138.452V140H36.0602V138.452C36.0602 138.068 36.2522 137.84 36.6362 137.768L38.6522 137.372V116.096C37.5482 115.88 36.8762 115.736 36.6362 115.664C36.2522 115.592 36.0602 115.376 36.0602 115.016V113.468H41.8922V137.336C42.9962 137.552 43.6682 137.696 43.9082 137.768ZM54.6016 121.496C55.6576 121.496 56.6536 121.676 57.5896 122.036C58.5496 122.396 59.3416 122.912 59.9656 123.584C60.6856 124.352 61.2136 125.204 61.5496 126.14C61.9336 127.22 62.1256 128.372 62.1256 129.596C62.1256 130.148 62.0776 130.484 61.9816 130.604C61.8616 130.772 61.6456 130.856 61.3336 130.856H49.2376C49.2376 132.008 49.3816 133.016 49.6696 133.88C49.9096 134.624 50.3176 135.32 50.8936 135.968C51.4216 136.568 52.0216 137 52.6936 137.264C53.4136 137.552 54.1816 137.696 54.9976 137.696C55.8616 137.696 56.5576 137.612 57.0856 137.444C57.5896 137.276 58.0936 137.072 58.5976 136.832C59.1256 136.568 59.4856 136.376 59.6776 136.256C59.9896 136.064 60.2296 135.968 60.3976 135.968C60.6616 135.968 60.8656 136.076 61.0096 136.292L61.9096 137.48C61.5736 137.912 61.0936 138.32 60.4696 138.704C59.7496 139.16 59.1616 139.46 58.7056 139.604C57.9856 139.844 57.3376 140.012 56.7616 140.108C56.0416 140.228 55.3816 140.288 54.7816 140.288C53.5336 140.288 52.3696 140.072 51.2896 139.64C50.2576 139.232 49.3336 138.596 48.5176 137.732C47.7496 136.94 47.1496 135.92 46.7176 134.672C46.2856 133.448 46.0696 132.056 46.0696 130.496C46.0696 129.248 46.2736 128.072 46.6816 126.968C47.0896 125.84 47.6536 124.88 48.3736 124.088C49.1176 123.272 50.0176 122.636 51.0736 122.18C52.1296 121.724 53.3056 121.496 54.6016 121.496ZM54.6736 123.836C53.1136 123.836 51.9016 124.28 51.0376 125.168C50.1496 126.104 49.5976 127.352 49.3816 128.912H59.2816C59.2816 128.168 59.1736 127.496 58.9576 126.896C58.6936 126.152 58.4056 125.612 58.0936 125.276C57.6856 124.844 57.1936 124.496 56.6176 124.232C56.0656 123.992 55.4056 123.872 54.6376 123.872L54.6736 123.836ZM79.5696 137.444C78.0576 139.316 75.8016 140.252 72.8016 140.252C70.4976 140.252 68.6016 139.424 67.1136 137.768C65.5536 136.016 64.7736 133.712 64.7736 130.856C64.7736 128.072 65.5056 125.828 66.9696 124.124C68.5056 122.372 70.6416 121.496 73.3776 121.496C74.7456 121.496 76.5456 121.928 78.7776 122.792V127.544H77.3376C77.0016 127.544 76.7976 127.376 76.7256 127.04C76.7016 126.968 76.6536 126.512 76.5816 125.672L76.4736 124.484C76.2096 124.388 75.9456 124.316 75.6816 124.268C75.4416 124.22 75.2736 124.184 75.1776 124.16C74.5296 124.064 73.8576 124.016 73.1616 124.016C72.5376 124.016 71.8776 124.172 71.1816 124.484C70.5336 124.772 69.9696 125.216 69.4896 125.816C68.5776 127.016 68.1216 128.696 68.1216 130.856C68.1216 133.016 68.6016 134.72 69.5616 135.968C70.4976 137.168 71.7816 137.768 73.4136 137.768C74.9256 137.768 76.2576 137.264 77.4096 136.256C77.6016 136.064 77.8416 135.968 78.1296 135.968C78.3936 135.968 78.5856 136.064 78.7056 136.256L79.5696 137.444ZM88.1421 140.288C86.7501 140.288 85.6461 139.88 84.8301 139.064C84.0621 138.296 83.6781 137.144 83.6781 135.608V124.448H81.4821C81.2661 124.448 81.0981 124.4 80.9781 124.304C80.8581 124.208 80.7981 124.028 80.7981 123.764V122.504L83.7861 122.108L84.5061 116.456C84.5061 116.264 84.5781 116.12 84.7221 116.024C84.8421 115.928 85.0101 115.88 85.2261 115.88H86.8461V122.144H92.0661V124.484H86.8461V135.428C86.8461 136.22 87.0261 136.796 87.3861 137.156C87.7461 137.516 88.2381 137.696 88.8621 137.696C89.1261 137.696 89.4261 137.648 89.7621 137.552C89.9781 137.48 90.1941 137.384 90.4101 137.264C90.4821 137.216 90.5541 137.168 90.6261 137.12C90.6981 137.072 90.7701 137.024 90.8421 136.976C91.0341 136.88 91.1541 136.832 91.2021 136.832C91.3701 136.832 91.5141 136.928 91.6341 137.12L92.5701 138.632C91.9221 139.184 91.2501 139.592 90.5541 139.856C89.7621 140.144 88.9581 140.288 88.1421 140.288ZM116.335 114.728C119.887 115.88 121.663 118.376 121.663 122.216C121.663 124.688 120.847 126.632 119.215 128.048C117.463 129.584 115.087 130.352 112.087 130.352H108.415V137.372C108.607 137.444 109.303 137.588 110.503 137.804C110.839 137.876 111.007 138.104 111.007 138.488V140H102.367V138.488C102.367 138.104 102.547 137.876 102.907 137.804L104.959 137.408V116.852C103.807 116.636 103.123 116.492 102.907 116.42C102.547 116.348 102.367 116.12 102.367 115.736V114.224H112.087C113.695 114.224 115.111 114.404 116.335 114.764V114.728ZM118.171 122.144C118.171 120.536 117.667 119.264 116.659 118.328C115.675 117.416 114.151 116.96 112.087 116.96H108.415V127.544H112.087C114.031 127.544 115.531 127.064 116.587 126.104C117.667 125.12 118.207 123.812 118.207 122.18L118.171 122.144ZM131.412 137.768C131.796 137.84 131.988 138.068 131.988 138.452V140H123.564V138.452C123.564 138.068 123.756 137.84 124.14 137.768L126.156 137.372V116.096C125.052 115.88 124.38 115.736 124.14 115.664C123.756 115.592 123.564 115.376 123.564 115.016V113.468H129.396V137.336C130.5 137.552 131.172 137.696 131.412 137.768ZM149.846 137.696C150.014 137.72 150.146 137.804 150.242 137.948C150.338 138.068 150.386 138.212 150.386 138.38V139.928H146.642C146.426 139.928 146.174 139.88 145.886 139.784C145.718 139.736 145.598 139.544 145.526 139.208L145.166 137.48L143.726 138.668C143.318 139.004 142.838 139.292 142.286 139.532C141.758 139.772 141.23 139.952 140.702 140.072C140.222 140.192 139.574 140.252 138.758 140.252C138.086 140.252 137.438 140.144 136.814 139.928C136.07 139.664 135.53 139.376 135.194 139.064C134.762 138.68 134.402 138.176 134.114 137.552C133.85 137 133.718 136.28 133.718 135.392C133.718 134.624 133.91 133.928 134.294 133.304C134.726 132.608 135.374 132.008 136.238 131.504C137.198 130.952 138.35 130.52 139.694 130.208C141.086 129.896 142.838 129.74 144.95 129.74V128.336C144.95 126.92 144.638 125.84 144.014 125.096C143.39 124.352 142.49 123.98 141.314 123.98C140.546 123.98 139.886 124.088 139.334 124.304C138.71 124.544 138.254 124.76 137.966 124.952C137.822 125.048 137.654 125.156 137.462 125.276C137.294 125.372 137.114 125.48 136.922 125.6C136.658 125.792 136.382 125.888 136.094 125.888C135.83 125.888 135.638 125.84 135.518 125.744C135.374 125.624 135.254 125.48 135.158 125.312L134.582 124.304C135.518 123.392 136.598 122.672 137.822 122.144C138.926 121.664 140.222 121.424 141.71 121.424C142.79 121.424 143.702 121.592 144.446 121.928C145.262 122.288 145.922 122.744 146.426 123.296C146.954 123.848 147.362 124.568 147.65 125.456C147.914 126.248 148.046 127.184 148.046 128.264V137.372C149.198 137.612 149.798 137.744 149.846 137.768V137.696ZM144.878 131.792C143.318 131.792 142.07 131.876 141.134 132.044C140.222 132.212 139.382 132.464 138.614 132.8C137.942 133.112 137.462 133.472 137.174 133.88C136.886 134.312 136.742 134.768 136.742 135.248C136.742 135.632 136.826 136.04 136.994 136.472C137.138 136.832 137.354 137.12 137.642 137.336C137.93 137.552 138.242 137.708 138.578 137.804C138.986 137.924 139.382 137.984 139.766 137.984C140.246 137.984 140.75 137.924 141.278 137.804C141.758 137.684 142.202 137.528 142.61 137.336C142.97 137.168 143.366 136.904 143.798 136.544C144.038 136.352 144.398 136.016 144.878 135.536V131.792ZM166.863 137.444C165.351 139.316 163.095 140.252 160.095 140.252C157.791 140.252 155.895 139.424 154.407 137.768C152.847 136.016 152.067 133.712 152.067 130.856C152.067 128.072 152.799 125.828 154.263 124.124C155.799 122.372 157.935 121.496 160.671 121.496C162.039 121.496 163.839 121.928 166.071 122.792V127.544H164.631C164.295 127.544 164.091 127.376 164.019 127.04C163.995 126.968 163.947 126.512 163.875 125.672L163.767 124.484C163.503 124.388 163.239 124.316 162.975 124.268C162.735 124.22 162.567 124.184 162.471 124.16C161.823 124.064 161.151 124.016 160.455 124.016C159.831 124.016 159.171 124.172 158.475 124.484C157.827 124.772 157.263 125.216 156.783 125.816C155.871 127.016 155.415 128.696 155.415 130.856C155.415 133.016 155.895 134.72 156.855 135.968C157.791 137.168 159.075 137.768 160.707 137.768C162.219 137.768 163.551 137.264 164.703 136.256C164.895 136.064 165.135 135.968 165.423 135.968C165.687 135.968 165.879 136.064 165.999 136.256L166.863 137.444ZM177.789 121.496C178.845 121.496 179.841 121.676 180.777 122.036C181.737 122.396 182.529 122.912 183.153 123.584C183.873 124.352 184.401 125.204 184.737 126.14C185.121 127.22 185.313 128.372 185.313 129.596C185.313 130.148 185.265 130.484 185.169 130.604C185.049 130.772 184.833 130.856 184.521 130.856H172.425C172.425 132.008 172.569 133.016 172.857 133.88C173.097 134.624 173.505 135.32 174.081 135.968C174.609 136.568 175.209 137 175.881 137.264C176.601 137.552 177.369 137.696 178.185 137.696C179.049 137.696 179.745 137.612 180.273 137.444C180.777 137.276 181.281 137.072 181.785 136.832C182.313 136.568 182.673 136.376 182.865 136.256C183.177 136.064 183.417 135.968 183.585 135.968C183.849 135.968 184.053 136.076 184.197 136.292L185.097 137.48C184.761 137.912 184.281 138.32 183.657 138.704C182.937 139.16 182.349 139.46 181.893 139.604C181.173 139.844 180.525 140.012 179.949 140.108C179.229 140.228 178.569 140.288 177.969 140.288C176.721 140.288 175.557 140.072 174.477 139.64C173.445 139.232 172.521 138.596 171.705 137.732C170.937 136.94 170.337 135.92 169.905 134.672C169.473 133.448 169.257 132.056 169.257 130.496C169.257 129.248 169.461 128.072 169.869 126.968C170.277 125.84 170.841 124.88 171.561 124.088C172.305 123.272 173.205 122.636 174.261 122.18C175.317 121.724 176.493 121.496 177.789 121.496ZM177.861 123.836C176.301 123.836 175.089 124.28 174.225 125.168C173.337 126.104 172.785 127.352 172.569 128.912H182.469C182.469 128.168 182.361 127.496 182.145 126.896C181.881 126.152 181.593 125.612 181.281 125.276C180.873 124.844 180.381 124.496 179.805 124.232C179.253 123.992 178.593 123.872 177.825 123.872L177.861 123.836ZM194.572 121.496C195.82 121.496 197.404 121.82 199.324 122.468V127.148H197.92C197.584 127.148 197.38 126.98 197.308 126.644L197.092 124.268C195.964 124.004 195.028 123.872 194.284 123.872H194.248C193.264 123.872 192.436 124.136 191.764 124.664C191.116 125.168 190.792 125.72 190.792 126.32C190.792 126.944 190.936 127.4 191.224 127.688C191.704 128.24 192.4 128.66 193.312 128.948L194.392 129.272C194.584 129.32 194.968 129.44 195.544 129.632L197.272 130.28C197.752 130.448 198.256 130.76 198.784 131.216C199.768 131.984 200.26 133.04 200.26 134.384C200.26 136.136 199.672 137.528 198.496 138.56C197.224 139.688 195.616 140.252 193.672 140.252C191.68 140.252 189.712 139.928 187.768 139.28V134.528H189.064C189.352 134.528 189.532 134.672 189.604 134.96L189.82 137.264C190.78 137.744 192.016 137.984 193.528 137.984C194.68 137.984 195.616 137.684 196.336 137.084C196.96 136.532 197.272 135.92 197.272 135.248C197.272 134.552 197.128 134.048 196.84 133.736C196.504 133.352 196.144 133.064 195.76 132.872C195.232 132.608 194.728 132.416 194.248 132.296C192.472 131.72 191.356 131.336 190.9 131.144C190.324 130.88 189.784 130.544 189.28 130.136C188.272 129.296 187.768 128.168 187.768 126.752C187.768 125.312 188.344 124.088 189.496 123.08C190.696 122.024 192.388 121.496 194.572 121.496Z" fill="#E8E8E8"/>
<path fill-rule="evenodd" clip-rule="evenodd" d="M99 2C125.51 2 147 23.4901 147 50C147 76.5095 125.51 97.9999 99 97.9999C72.4903 97.9999 50.9999 76.5095 50.9999 50C50.9999 23.4901 72.4903 2 99 2Z" fill="#333333"/>
<path fill-rule="evenodd" clip-rule="evenodd" d="M99 19.5468C103.124 19.5468 107.016 20.3202 110.672 21.867C114.328 23.414 117.514 25.5476 120.234 28.2654C122.952 30.9857 125.086 34.1717 126.633 37.8281C128.18 41.4843 128.953 45.3756 128.953 49.4999C128.953 53.6263 128.18 57.5154 126.633 61.1718C125.086 64.828 122.952 68.0162 120.234 70.7343C117.514 73.4544 114.328 75.5859 110.672 77.1327C107.016 78.6795 103.124 79.4531 99 79.4531C94.8735 79.4531 90.9843 78.6795 87.3281 77.1327C83.6718 75.5859 80.4836 73.4544 77.7656 70.7343C75.0454 68.0162 72.914 64.828 71.3672 61.1718C69.8203 57.5154 69.0468 53.6263 69.0468 49.4999C69.0468 45.3756 69.8203 41.4843 71.3672 37.8281C72.914 34.1717 75.0454 30.9857 77.7656 28.2654C80.4836 25.5476 83.6718 23.414 87.3281 21.867C90.9843 20.3202 94.8735 19.5468 99 19.5468ZM99 77.0624C102.843 77.0624 106.429 76.3374 109.758 74.8828C113.084 73.4302 116.016 71.4857 118.547 69.0467C120.984 66.5155 122.928 63.5867 124.383 60.2576C125.835 56.9309 126.562 53.345 126.562 49.4999C126.562 45.6569 125.835 42.0708 124.383 38.742C122.928 35.4153 120.984 32.4841 118.547 29.9529C116.016 27.5162 113.084 25.5718 109.758 24.1172C106.429 22.6646 102.843 21.9372 99 21.9372C95.1548 21.9372 91.5688 22.6646 88.2421 24.1172C84.9132 25.5718 81.9843 27.5162 79.453 29.9529C77.0141 32.4841 75.0696 35.4153 73.6172 38.742C72.1626 42.0708 71.4374 45.6569 71.4374 49.4999C71.4374 53.345 72.1626 56.9309 73.6172 60.2576C75.0696 63.5867 77.0141 66.5155 79.453 69.0467C81.9843 71.4857 84.9132 73.4302 88.2421 74.8828C91.5688 76.3374 95.1548 77.0624 99 77.0624ZM114.047 38.8123C114.328 38.4388 114.726 38.25 115.242 38.25C115.756 38.25 116.202 38.4388 116.578 38.8123C116.859 39.188 117 39.6341 117 40.1483C117 40.6646 116.811 41.0625 116.438 41.3438L95.9063 61.3123C95.8117 61.5012 95.6469 61.6178 95.414 61.6639C95.1789 61.7122 94.968 61.7342 94.7812 61.7342C94.4999 61.7342 94.2407 61.7122 94.0078 61.6639C93.7727 61.6178 93.6079 61.5012 93.5155 61.3123L85.4999 53.2966C85.1242 52.9232 84.9375 52.4772 84.9375 51.9609C84.9375 51.4466 85.1242 51.0467 85.4999 50.7654C85.7812 50.392 86.179 50.2031 86.6953 50.2031C87.2095 50.2031 87.6554 50.392 88.0311 50.7654L94.7812 57.5154L114.047 38.8123Z" fill="#FF6363"/>
</g>
<defs>
<clipPath id="clip0">
<rect width="200" height="161" fill="white"/>
</clipPath>
</defs>
</svg>
