<svg width="215" height="174" viewBox="0 0 215 174" fill="none" xmlns="http://www.w3.org/2000/svg">
<g clip-path="url(#clip0)">
<path d="M15.7544 137.752C19.5464 138.496 21.4424 140.464 21.4424 143.656C21.4424 145.984 20.6024 147.796 18.9224 149.092C17.2424 150.364 15.0584 151 12.3704 151H0.670422V149.416C0.670422 149.056 0.850422 148.84 1.21042 148.768L3.26242 148.336V127.888L1.21042 127.456C0.850422 127.384 0.670422 127.168 0.670422 126.808V125.224H11.5064C14.3144 125.224 16.5224 125.752 18.1304 126.808C19.7624 127.864 20.5784 129.496 20.5784 131.704C20.5784 133.264 20.1824 134.536 19.3904 135.52C18.5984 136.504 17.3864 137.248 15.7544 137.752ZM11.3624 136.744C13.1864 136.744 14.6024 136.396 15.6104 135.7C16.6184 134.98 17.1224 133.888 17.1224 132.424C17.1224 130.864 16.6424 129.748 15.6824 129.076C14.7464 128.38 13.3544 128.032 11.5064 128.032H6.75442V136.744H11.3624ZM17.9864 143.584C17.9864 142.096 17.4824 141.004 16.4744 140.308C15.4904 139.612 14.1104 139.264 12.3344 139.264H6.75442V148.228H12.3704C14.2664 148.252 15.6704 147.868 16.5824 147.076C17.5184 146.26 17.9864 145.096 17.9864 143.584ZM31.6622 132.496C32.9822 132.496 34.1822 132.712 35.2622 133.144C36.3182 133.576 37.2422 134.2 38.0342 135.016C38.7782 135.784 39.3542 136.768 39.7622 137.968C40.1702 139.144 40.3742 140.44 40.3742 141.856C40.3742 143.272 40.1702 144.568 39.7622 145.744C39.3542 146.944 38.7782 147.928 38.0342 148.696C37.2422 149.512 36.3182 150.136 35.2622 150.568C34.1822 151 32.9822 151.216 31.6622 151.216C30.3422 151.216 29.1422 151 28.0622 150.568C27.0062 150.136 26.0822 149.512 25.2902 148.696C24.5702 147.952 23.9822 146.968 23.5262 145.744C23.1422 144.712 22.9502 143.416 22.9502 141.856C22.9502 140.296 23.1422 139 23.5262 137.968C23.9822 136.744 24.5702 135.76 25.2902 135.016C26.0822 134.2 27.0062 133.576 28.0622 133.144C29.1422 132.712 30.3422 132.496 31.6622 132.496ZM31.6622 148.768C33.5102 148.768 34.8542 148.168 35.6942 146.968C36.5822 145.72 37.0262 144.028 37.0262 141.892C37.0262 139.756 36.5822 138.064 35.6942 136.816C34.8542 135.616 33.5102 135.016 31.6622 135.016C30.7262 135.016 29.9342 135.16 29.2862 135.448C28.6622 135.736 28.1102 136.192 27.6302 136.816C27.1742 137.44 26.8382 138.16 26.6222 138.976C26.3822 139.936 26.2622 140.92 26.2622 141.928C26.2622 142.888 26.3822 143.848 26.6222 144.808C26.8382 145.624 27.1742 146.344 27.6302 146.968C28.0382 147.52 28.5902 147.952 29.2862 148.264C30.0542 148.6 30.8462 148.768 31.6622 148.768ZM51.5958 132.496C52.9158 132.496 54.1158 132.712 55.1958 133.144C56.2518 133.576 57.1758 134.2 57.9678 135.016C58.7118 135.784 59.2878 136.768 59.6958 137.968C60.1038 139.144 60.3078 140.44 60.3078 141.856C60.3078 143.272 60.1038 144.568 59.6958 145.744C59.2878 146.944 58.7118 147.928 57.9678 148.696C57.1758 149.512 56.2518 150.136 55.1958 150.568C54.1158 151 52.9158 151.216 51.5958 151.216C50.2758 151.216 49.0758 151 47.9958 150.568C46.9398 150.136 46.0158 149.512 45.2238 148.696C44.5038 147.952 43.9158 146.968 43.4598 145.744C43.0758 144.712 42.8838 143.416 42.8838 141.856C42.8838 140.296 43.0758 139 43.4598 137.968C43.9158 136.744 44.5038 135.76 45.2238 135.016C46.0158 134.2 46.9398 133.576 47.9958 133.144C49.0758 132.712 50.2758 132.496 51.5958 132.496ZM51.5958 148.768C53.4438 148.768 54.7878 148.168 55.6278 146.968C56.5158 145.72 56.9598 144.028 56.9598 141.892C56.9598 139.756 56.5158 138.064 55.6278 136.816C54.7878 135.616 53.4438 135.016 51.5958 135.016C50.6598 135.016 49.8678 135.16 49.2198 135.448C48.5958 135.736 48.0438 136.192 47.5638 136.816C47.1078 137.44 46.7718 138.16 46.5558 138.976C46.3158 139.936 46.1958 140.92 46.1958 141.928C46.1958 142.888 46.3158 143.848 46.5558 144.808C46.7718 145.624 47.1078 146.344 47.5638 146.968C47.9718 147.52 48.5238 147.952 49.2198 148.264C49.9878 148.6 50.7798 148.768 51.5958 148.768ZM80.3713 148.768C80.7313 148.84 80.9113 149.056 80.9113 149.416V151H77.5273C77.0713 151 76.6633 150.784 76.3033 150.352L70.3273 142.864C70.1593 142.624 69.9793 142.468 69.7873 142.396C69.5953 142.324 69.3193 142.288 68.9593 142.288H68.0953V148.372C68.2393 148.372 68.6593 148.456 69.3553 148.624L70.1113 148.768C70.4953 148.84 70.6873 149.068 70.6873 149.452V151H62.2633V149.452C62.2633 149.068 62.4433 148.84 62.8033 148.768L64.8553 148.372V127.096C63.7033 126.88 63.0193 126.736 62.8033 126.664C62.4433 126.592 62.2633 126.376 62.2633 126.016V124.468H68.0953V140.056H68.8873C69.3913 140.056 69.7753 139.888 70.0393 139.552L74.1433 135.16C74.0713 135.16 73.9993 135.148 73.9273 135.124C73.8553 135.1 73.7833 135.088 73.7113 135.088L73.1353 134.98C72.7513 134.908 72.5593 134.68 72.5593 134.296V132.784H80.1913V134.296C80.1913 134.656 80.0353 134.872 79.7233 134.944L77.4913 135.376L73.2433 139.912C72.8593 140.368 72.5113 140.692 72.1993 140.884C72.6793 141.196 73.0393 141.568 73.2793 142L78.3193 148.408L79.2553 148.552C79.8793 148.696 80.2633 148.768 80.4073 148.768H80.3713ZM100.818 125.008C101.754 125.008 102.618 125.152 103.41 125.44C104.154 125.704 104.838 126.112 105.462 126.664C106.014 127.144 106.458 127.72 106.794 128.392C107.106 128.992 107.298 129.688 107.37 130.48L105.39 130.876L105.21 130.912C105.114 130.912 104.97 130.864 104.778 130.768C104.658 130.72 104.562 130.576 104.49 130.336C104.418 130.048 104.286 129.712 104.094 129.328C103.95 129.04 103.722 128.74 103.41 128.428C103.146 128.164 102.786 127.936 102.33 127.744C101.874 127.552 101.394 127.456 100.89 127.456C100.242 127.456 99.6902 127.552 99.2342 127.744C98.7782 127.936 98.3702 128.212 98.0102 128.572C97.6502 128.932 97.3862 129.328 97.2182 129.76C97.0262 130.264 96.9302 130.768 96.9302 131.272C96.9302 131.68 96.9902 132.088 97.1102 132.496C97.2302 132.928 97.3862 133.312 97.5782 133.648C97.7462 133.96 98.0102 134.356 98.3702 134.836C98.6582 135.22 99.0422 135.652 99.5222 136.132L106.938 143.656C107.346 142.912 107.706 142.072 108.018 141.136C108.33 140.2 108.522 139.312 108.594 138.472C108.594 138.28 108.666 138.112 108.81 137.968C108.954 137.824 109.122 137.752 109.314 137.752H111.258C111.258 139.12 111.042 140.476 110.61 141.82C110.154 143.236 109.554 144.484 108.81 145.564L114.21 151.036H111.114C110.754 151.036 110.466 151 110.25 150.928C110.106 150.88 109.866 150.688 109.53 150.352L106.938 147.76C105.762 148.864 104.466 149.728 103.05 150.352C101.634 150.976 100.014 151.288 98.1902 151.288C97.2302 151.288 96.2942 151.132 95.3822 150.82C94.4462 150.484 93.6182 150.016 92.8982 149.416C92.1782 148.816 91.6022 148.072 91.1702 147.184C90.7382 146.32 90.5222 145.312 90.5222 144.16C90.5222 143.32 90.6662 142.528 90.9542 141.784C91.2662 140.992 91.6502 140.296 92.1062 139.696C92.5862 139.072 93.1862 138.496 93.9062 137.968C94.5782 137.488 95.3222 137.056 96.1382 136.672C95.4662 135.808 94.9382 134.908 94.5542 133.972C94.1942 133.108 94.0142 132.208 94.0142 131.272C94.0142 130.36 94.1702 129.52 94.4822 128.752C94.7702 128.056 95.2382 127.384 95.8862 126.736C96.4382 126.184 97.1702 125.74 98.0822 125.404C98.9222 125.092 99.8822 124.936 100.962 124.936L100.818 125.008ZM93.7262 143.908C93.7262 144.7 93.8702 145.384 94.1582 145.96C94.4462 146.56 94.8182 147.064 95.2742 147.472C95.6822 147.832 96.2222 148.144 96.8942 148.408C97.4702 148.624 98.0822 148.732 98.7302 148.732C100.05 148.732 101.25 148.48 102.33 147.976C103.41 147.472 104.346 146.824 105.138 146.032L97.5422 138.364C96.2942 139.012 95.3342 139.828 94.6622 140.812C94.0142 141.748 93.6902 142.792 93.6902 143.944L93.7262 143.908ZM142.328 131.452H140.6C140.168 131.452 139.916 131.248 139.844 130.84L139.592 128.068H129.944V136.636H139.448V139.372H129.944V148.192H139.592L139.808 145.6C139.88 145.216 140.144 145.024 140.6 145.024H142.328V151H123.824V149.488C123.824 149.104 124.004 148.876 124.364 148.804L126.416 148.408V127.852C125.264 127.636 124.58 127.492 124.364 127.42C124.004 127.348 123.824 127.12 123.824 126.736V125.224H142.328V131.452ZM150.569 135.376C152.369 133.432 154.385 132.46 156.617 132.46C158.585 132.46 160.097 133.096 161.153 134.368C162.185 135.616 162.701 137.284 162.701 139.372V148.336C163.853 148.552 164.537 148.696 164.753 148.768C165.137 148.84 165.329 149.068 165.329 149.452V151H159.497V139.408C159.497 136.48 158.225 135.016 155.681 135.016C153.881 135.016 152.225 135.868 150.713 137.572V148.372C150.809 148.372 151.505 148.516 152.801 148.804C153.161 148.876 153.341 149.104 153.341 149.488V151H144.953V149.488C144.953 149.104 145.121 148.876 145.457 148.804L147.545 148.408V135.412C146.345 135.196 145.649 135.052 145.457 134.98C145.121 134.908 144.953 134.68 144.953 134.296V132.784H149.417C149.849 132.784 150.137 133 150.281 133.432L150.569 135.412V135.376ZM174.149 126.16C174.269 126.4 174.329 126.7 174.329 127.06C174.329 127.396 174.269 127.684 174.149 127.924C174.005 128.212 173.837 128.452 173.645 128.644C173.453 128.836 173.213 129.004 172.925 129.148C172.685 129.268 172.397 129.328 172.061 129.328C171.725 129.328 171.437 129.268 171.197 129.148C170.909 129.004 170.669 128.836 170.477 128.644C170.285 128.452 170.117 128.212 169.973 127.924C169.853 127.684 169.793 127.396 169.793 127.06C169.793 126.7 169.853 126.4 169.973 126.16C170.141 125.824 170.309 125.572 170.477 125.404C170.669 125.212 170.909 125.044 171.197 124.9C171.437 124.78 171.725 124.72 172.061 124.72C172.397 124.72 172.685 124.78 172.925 124.9C173.213 125.044 173.453 125.212 173.645 125.404C173.813 125.572 173.981 125.824 174.149 126.16ZM170.801 157.156C170.201 157.42 169.469 157.552 168.605 157.552C167.837 157.552 167.093 157.432 166.373 157.192L166.517 155.464C166.565 155.224 166.757 155.104 167.093 155.104H167.813C168.749 155.104 169.409 154.888 169.793 154.456C170.201 154 170.405 153.304 170.405 152.368V135.412C170.261 135.388 170.033 135.352 169.721 135.304C169.409 135.232 168.941 135.136 168.317 135.016C167.981 134.944 167.813 134.716 167.813 134.332V132.784H173.573V152.368C173.573 154.792 172.649 156.4 170.801 157.192V157.156ZM185.014 132.496C186.334 132.496 187.534 132.712 188.614 133.144C189.67 133.576 190.594 134.2 191.386 135.016C192.13 135.784 192.706 136.768 193.114 137.968C193.522 139.144 193.726 140.44 193.726 141.856C193.726 143.272 193.522 144.568 193.114 145.744C192.706 146.944 192.13 147.928 191.386 148.696C190.594 149.512 189.67 150.136 188.614 150.568C187.534 151 186.334 151.216 185.014 151.216C183.694 151.216 182.494 151 181.414 150.568C180.358 150.136 179.434 149.512 178.642 148.696C177.922 147.952 177.334 146.968 176.878 145.744C176.494 144.712 176.302 143.416 176.302 141.856C176.302 140.296 176.494 139 176.878 137.968C177.334 136.744 177.922 135.76 178.642 135.016C179.434 134.2 180.358 133.576 181.414 133.144C182.494 132.712 183.694 132.496 185.014 132.496ZM185.014 148.768C186.862 148.768 188.206 148.168 189.046 146.968C189.934 145.72 190.378 144.028 190.378 141.892C190.378 139.756 189.934 138.064 189.046 136.816C188.206 135.616 186.862 135.016 185.014 135.016C184.078 135.016 183.286 135.16 182.638 135.448C182.014 135.736 181.462 136.192 180.982 136.816C180.526 137.44 180.19 138.16 179.974 138.976C179.734 139.936 179.614 140.92 179.614 141.928C179.614 142.888 179.734 143.848 179.974 144.808C180.19 145.624 180.526 146.344 180.982 146.968C181.39 147.52 181.942 147.952 182.638 148.264C183.406 148.6 184.198 148.768 185.014 148.768ZM214.808 134.296C214.808 134.656 214.628 134.872 214.268 134.944C214.172 134.944 214.028 134.968 213.836 135.016C213.668 135.064 213.488 135.112 213.296 135.16L212.396 135.34L203.36 156.364C203.264 156.604 203.108 156.796 202.892 156.94C202.7 157.084 202.472 157.156 202.208 157.156H199.832L203.144 149.92L196.736 135.304C196.016 135.184 195.476 135.064 195.116 134.944C194.756 134.872 194.576 134.656 194.576 134.296V132.748H202.748V134.296C202.748 134.656 202.568 134.872 202.208 134.944C201.968 135.016 201.296 135.16 200.192 135.376L204.26 144.88C204.38 145.144 204.476 145.456 204.548 145.816C204.644 146.176 204.704 146.416 204.728 146.536C204.896 145.96 205.088 145.408 205.304 144.88L209.228 135.376C209.228 135.376 208.568 135.244 207.248 134.98C206.912 134.908 206.744 134.68 206.744 134.296V132.784H213.512L214.808 132.748V134.296Z" fill="#E8E8E8"/>
<path fill-rule="evenodd" clip-rule="evenodd" d="M106 2C132.51 2 154 23.4901 154 50C154 76.5095 132.51 97.9999 106 97.9999C79.4902 97.9999 58 76.5095 58 50C58 23.4901 79.4902 2 106 2Z" fill="#333333"/>
<path fill-rule="evenodd" clip-rule="evenodd" d="M136.586 48.6561C136.586 49.3131 136.491 49.9218 136.305 50.4841C136.116 51.0467 135.834 51.563 135.461 52.0311C135.085 52.5014 134.663 52.8748 134.195 53.1561C133.725 53.4374 133.211 53.6724 132.648 53.8592C132.93 54.3294 133.163 54.8218 133.351 55.3357C133.538 55.8523 133.633 56.4388 133.633 57.0936C133.633 57.6562 133.538 58.2185 133.351 58.7812C133.163 59.3438 132.93 59.86 132.648 60.3279C132.273 60.7036 131.851 61.0552 131.383 61.3826C130.913 61.7123 130.444 61.9694 129.977 62.1562C130.258 62.6264 130.491 63.1404 130.68 63.703C130.866 64.2656 130.961 64.828 130.961 65.3906C130.961 66.0473 130.866 66.6342 130.68 67.1484C130.491 67.6646 130.258 68.1567 129.977 68.6249C129.601 69.0951 129.179 69.4927 128.711 69.8201C128.241 70.1498 127.726 70.3608 127.164 70.4529C127.538 70.9231 127.819 71.4155 128.008 71.9295C128.195 72.446 128.289 73.0325 128.289 73.6873C128.289 74.3443 128.148 75.0014 127.867 75.6561C127.586 76.3132 127.21 76.8756 126.742 77.3437C126.18 77.8139 125.569 78.1874 124.914 78.4687C124.257 78.75 123.554 78.8905 122.805 78.8905H104.242C103.585 78.8905 102.836 78.7984 101.992 78.6092C101.148 78.4226 100.256 78.1413 99.3203 77.7655C98.382 77.4842 97.4438 77.1327 96.5078 76.7108C95.5695 76.289 94.6313 75.8911 93.6952 75.5154C92.5702 75.0475 91.4672 74.5796 90.3905 74.1091C89.3117 73.6412 88.5383 73.406 88.0702 73.406H75.2734V45.9843L76.3984 45.8435C81.7421 45.8435 85.3984 45.8435 87.3672 45.8435C88.2109 45.8435 88.9843 45.7514 89.6875 45.5623C90.3905 45.3757 91.1157 44.9999 91.8671 44.4373C92.7108 43.9694 93.6711 43.3123 94.75 42.4687C95.8266 41.6248 97.1164 40.5943 98.6171 39.3749C101.522 36.9381 103.234 33.8904 103.75 30.2342C104.264 26.5781 104.523 24.4687 104.523 23.9061C104.523 23.3435 104.664 22.8054 104.945 22.2888C105.226 21.7748 105.6 21.3749 106.07 21.0936C106.538 20.7201 107.03 20.4608 107.547 20.3202C108.061 20.1794 108.553 20.1092 109.023 20.1092C109.773 20.1092 110.522 20.2037 111.273 20.3905C112.023 20.5794 112.726 21.0015 113.383 21.6562C114.038 22.313 114.554 23.1811 114.93 24.2577C115.303 25.3366 115.492 26.767 115.492 28.5467C115.492 30.1418 115.374 31.6647 115.141 33.117C114.905 34.5717 114.6 35.9537 114.226 37.2655C113.945 38.5794 113.594 39.7748 113.172 40.8514C112.75 41.9303 112.398 42.8445 112.117 43.5937H131.242C132.086 43.5937 132.811 43.7123 133.422 43.9452C134.031 44.1802 134.617 44.5317 135.18 44.9999C135.648 45.4701 135.999 46.0085 136.234 46.617C136.467 47.2279 136.586 47.9069 136.586 48.6561ZM131.242 51.6093C131.71 51.6093 132.132 51.5388 132.508 51.3983C132.881 51.2578 133.163 51.0467 133.351 50.7654C133.633 50.4841 133.866 50.1809 134.055 49.8515C134.241 49.5242 134.336 49.1263 134.336 48.6561C134.336 47.9069 134.055 47.2498 133.492 46.6875C132.93 46.1249 132.178 45.8435 131.242 45.8435H122.805C122.805 45.938 122.805 45.938 122.805 45.8435H108.32L109.164 44.156C111.788 37.6874 113.102 32.4842 113.102 28.5467C113.102 25.4529 112.585 23.649 111.555 23.1328C110.522 22.6185 109.678 22.3593 109.023 22.3593C108.742 22.3593 108.32 22.4999 107.758 22.7811C107.195 23.0625 106.914 23.4382 106.914 23.9061C106.914 24.4687 106.866 25.4068 106.773 26.7186C106.679 28.0327 106.398 29.5311 105.93 31.2187C105.459 32.9062 104.78 34.6419 103.89 36.4218C102.999 38.2036 101.757 39.7506 100.164 41.0624C98.5688 42.3763 97.2328 43.477 96.1562 44.367C95.0773 45.259 94.0688 45.9843 93.1327 46.5467C92.1945 47.1093 91.2563 47.5311 90.3203 47.8124C89.382 48.0937 88.3976 48.2342 87.3672 48.2342C86.6157 48.2342 85.7962 48.2342 84.9062 48.2342C84.0141 48.2342 83.1001 48.2342 82.164 48.2342C81.3203 48.2342 80.4984 48.2342 79.7031 48.2342C78.9054 48.2342 78.2265 48.2342 77.664 48.2342V71.0156H88.0702C88.725 71.0156 89.593 71.2264 90.6719 71.6482C91.7485 72.0702 93.0844 72.6107 94.6796 73.2655C95.4289 73.6412 96.2485 74.0388 97.1406 74.4607C98.0305 74.8828 98.8984 75.2343 99.7421 75.5154C100.678 75.7967 101.522 76.0561 102.273 76.289C103.023 76.524 103.68 76.6406 104.242 76.6406H119.852H122.805C123.273 76.6406 123.695 76.5482 124.07 76.3593C124.444 76.1724 124.773 75.9375 125.055 75.6561C125.336 75.4693 125.547 75.188 125.687 74.8123C125.828 74.4388 125.898 74.0631 125.898 73.6873C125.898 73.2194 125.828 72.8218 125.687 72.4921C125.547 72.1647 125.336 71.8592 125.055 71.5779C124.773 71.2969 124.444 71.0858 124.07 70.9453C123.695 70.8046 123.273 70.7343 122.805 70.7343H122.523V68.3436H125.758C126.131 68.3436 126.507 68.2734 126.883 68.1328C127.256 67.992 127.586 67.7813 127.867 67.4999C128.054 67.2187 128.241 66.8913 128.43 66.5155C128.616 66.1421 128.711 65.7663 128.711 65.3906C128.711 65.0169 128.616 64.6411 128.43 64.2656C128.241 63.8919 128.054 63.5625 127.867 63.2812C127.586 63.0943 127.256 62.9075 126.883 62.7186C126.507 62.532 126.131 62.4373 125.758 62.4373H124.773V60.0468H128.289C128.663 60.0468 129.038 59.9763 129.414 59.8358C129.788 59.6953 130.117 59.4842 130.398 59.203C130.68 58.9216 130.913 58.5942 131.102 58.2185C131.288 57.845 131.383 57.4693 131.383 57.0936C131.383 56.6257 131.288 56.2038 131.102 55.8281C130.913 55.4544 130.68 55.1734 130.398 54.9842C130.117 54.7029 129.788 54.4702 129.414 54.2811C129.038 54.0945 128.663 53.9998 128.289 53.9998H127.164V51.6093H131.242Z" fill="#00A2FF"/>
</g>
<defs>
<clipPath id="clip0">
<rect width="215" height="174" fill="white"/>
</clipPath>
</defs>
</svg>
