<svg width="777" height="96" viewBox="0 0 777 96" fill="none" xmlns="http://www.w3.org/2000/svg">
<g opacity="0.5">
<mask id="path-1-inside-1" fill="white">
<path fill-rule="evenodd" clip-rule="evenodd" d="M-2.02656e-06 95.9997C-2.02656e-06 95.9997 192.477 -116.458 393.059 95.9997C393.059 95.9997 569.327 -117.754 777 95.9997"/>
</mask>
<path fill-rule="evenodd" clip-rule="evenodd" d="M-2.02656e-06 95.9997C-2.02656e-06 95.9997 192.477 -116.458 393.059 95.9997C393.059 95.9997 569.327 -117.754 777 95.9997" fill="black" fill-opacity="0.01"/>
<path d="M393.059 95.9997L392.332 96.6862L393.109 97.5101L393.83 96.6359L393.059 95.9997ZM-2.02656e-06 95.9997C0.741095 96.6711 0.741495 96.6707 0.742628 96.6694C0.743984 96.6679 0.745848 96.6659 0.748555 96.6629C0.75397 96.6569 0.762307 96.6478 0.773558 96.6355C0.796059 96.6108 0.83021 96.5735 0.875924 96.5239C0.967352 96.4246 1.10503 96.2759 1.28825 96.0802C1.65469 95.6888 2.20331 95.1095 2.92846 94.3617C4.37878 92.8662 6.53514 90.6968 9.3525 88.0092C14.9875 82.6336 23.2652 75.1861 33.8255 66.9099C54.9504 50.3538 85.1856 30.4996 121.652 17.2679C158.113 4.03838 200.783 -2.56456 246.812 7.34651C292.836 17.2565 342.302 43.6948 392.332 96.6862L393.786 95.3132C343.524 42.0755 293.712 15.3993 247.233 5.39132C200.759 -4.61556 157.701 2.06013 120.97 15.3879C84.2448 28.7134 53.8244 48.6952 32.5918 65.3357C21.9732 73.6577 13.6466 81.1487 7.972 86.562C5.13456 89.2688 2.95979 91.4565 1.49269 92.9694C0.759129 93.7259 0.202452 94.3136 -0.171713 94.7132C-0.358796 94.9131 -0.500255 95.0658 -0.595386 95.1692C-0.642952 95.2208 -0.678936 95.2601 -0.703251 95.2867C-0.715408 95.3001 -0.724648 95.3102 -0.73096 95.3171C-0.734115 95.3206 -0.736651 95.3234 -0.73823 95.3251C-0.740031 95.3271 -0.741099 95.3283 -2.02656e-06 95.9997ZM393.059 95.9997C393.83 96.6359 393.831 96.6355 393.832 96.6343C393.833 96.6328 393.834 96.6308 393.837 96.6278C393.842 96.6218 393.849 96.6127 393.86 96.6003C393.88 96.5756 393.911 96.5382 393.953 96.4883C394.037 96.3886 394.163 96.2392 394.331 96.0425C394.667 95.6491 395.171 95.0667 395.837 94.3147C397.171 92.8108 399.156 90.6292 401.759 87.926C406.964 82.5195 414.636 75.0289 424.491 66.7045C444.205 50.052 472.632 30.0838 507.509 16.7764C542.377 3.47208 583.68 -3.17108 629.183 6.7992C674.686 16.7694 724.474 43.3711 776.283 96.6965L777.717 95.3029C725.689 41.7515 675.567 14.9148 629.611 4.84554C583.657 -5.22359 541.954 1.49286 506.796 14.9078C471.646 28.3196 443.026 48.4302 423.2 65.1767C413.285 73.5518 405.563 81.0907 400.318 86.5389C397.695 89.2631 395.691 91.465 394.341 92.9879C393.666 93.7494 393.154 94.3411 392.81 94.7436C392.638 94.9448 392.508 95.0987 392.421 95.2028C392.377 95.2549 392.344 95.2945 392.322 95.3214C392.311 95.3348 392.302 95.3451 392.297 95.3521C392.294 95.3556 392.291 95.3585 392.29 95.3602C392.288 95.3623 392.287 95.3635 393.059 95.9997Z" fill="white" mask="url(#path-1-inside-1)"/>
</g>
</svg>
